<?xml version="1.0" standalone="no"?>
<!DOCTYPE svg PUBLIC "-//W3C//DTD SVG 20010904//EN"
 "http://www.w3.org/TR/2001/REC-SVG-20010904/DTD/svg10.dtd">
<svg version="1.0" xmlns="http://www.w3.org/2000/svg"
 width="735.000000pt" height="788.000000pt" viewBox="0 0 735.000000 788.000000"
 preserveAspectRatio="xMidYMid meet">

<g transform="translate(0.000000,788.000000) scale(0.100000,-0.100000)"
fill="#000000" stroke="none">
<path d="M2954 7435 c-117 -18 -184 -35 -374 -97 -176 -57 -286 -109 -479
-226 -205 -125 -276 -181 -448 -350 -161 -160 -259 -272 -310 -355 -15 -26
-85 -131 -155 -235 -223 -331 -415 -702 -442 -854 -7 -37 4 -52 20 -27 20 33
221 82 314 77 82 -4 130 -43 130 -105 0 -32 -28 -103 -40 -103 -3 0 -14 -6
-24 -13 -16 -12 -15 -15 22 -39 86 -57 108 -190 55 -341 l-27 -78 31 -27 c79
-70 164 -214 184 -311 17 -84 7 -185 -25 -257 l-28 -62 26 -38 c29 -45 52
-165 42 -222 -4 -21 -21 -65 -37 -98 l-31 -62 31 -42 c17 -24 41 -73 52 -109
19 -61 21 -88 20 -351 -1 -327 6 -303 -104 -339 -112 -37 -184 -10 -237 91
-59 114 -94 134 -131 76 -15 -25 -19 -45 -16 -80 2 -27 0 -48 -4 -48 -5 0 -9
12 -9 26 0 14 -8 39 -17 55 -16 27 -16 31 0 64 30 62 19 107 -30 133 -71 38
-96 -9 -97 -183 -2 -192 21 -242 188 -413 110 -112 141 -136 200 -153 36 -11
76 11 76 41 0 24 -5 24 67 5 47 -12 73 -13 138 -5 44 6 96 19 115 28 29 14 36
23 38 53 2 27 9 39 28 48 35 16 41 14 48 -14 7 -29 69 -72 139 -96 38 -13 44
-18 28 -22 -16 -4 -21 -13 -21 -42 0 -31 4 -37 30 -46 17 -6 30 -12 30 -14 0
-2 -7 -37 -17 -77 -20 -92 -23 -304 -4 -410 10 -58 11 -84 2 -109 -16 -45 -14
-197 3 -253 11 -36 12 -55 4 -78 -7 -20 -8 -74 -3 -157 9 -144 9 -137 -4 -216
-18 -115 -42 -210 -66 -264 -31 -66 -31 -83 -3 -107 30 -27 107 -147 122 -191
16 -46 31 -51 216 -59 120 -6 138 -5 153 10 9 10 17 28 17 41 0 34 32 103 74
158 40 52 44 73 20 118 -17 34 -44 174 -44 231 0 20 -4 40 -10 43 -5 3 -10 19
-10 34 0 15 -13 48 -29 73 -28 44 -29 47 -11 63 27 24 70 128 77 183 5 44 1
58 -37 130 -35 69 -41 86 -34 114 4 18 9 98 10 178 1 80 9 195 17 255 8 61 13
144 12 187 -2 71 -1 77 21 87 35 15 42 57 14 86 -17 18 -20 30 -15 53 5 25 16
34 62 53 57 23 113 63 113 81 0 5 -14 21 -30 35 -32 26 -52 66 -65 122 -6 27
-2 38 18 59 64 70 134 182 146 237 7 31 11 59 8 61 -2 2 -23 -14 -46 -37 -23
-23 -44 -40 -46 -37 -3 3 9 49 25 104 32 106 46 197 37 236 -4 13 -18 30 -32
38 -20 11 -25 21 -25 49 -1 129 -6 220 -12 227 -13 12 -9 37 12 77 24 44 24
56 6 99 -8 18 -21 67 -31 109 -10 49 -29 97 -52 134 l-36 58 6 321 c6 307 8
326 32 411 15 50 39 113 54 142 45 83 231 342 262 366 33 24 36 35 12 44 -69
23 -103 48 -142 103 -76 108 -99 227 -67 345 14 55 50 130 74 157 13 16 13 24
-7 83 -11 36 -21 90 -21 120 0 135 89 384 198 555 154 243 250 369 434 573 84
93 85 109 8 119 -88 10 -238 7 -336 -7z m309 -32 c5 -3 -45 -32 -110 -64 -87
-43 -133 -73 -176 -115 -55 -54 -69 -82 -27 -56 26 16 33 15 26 -3 -6 -17 9
-21 19 -5 3 6 13 10 22 10 9 0 25 7 35 17 10 9 18 11 18 6 0 -6 -7 -16 -15
-23 -18 -15 -20 -34 -3 -24 7 5 -6 -14 -29 -41 -22 -28 -46 -61 -52 -75 -10
-20 -5 -17 23 12 20 21 36 34 36 29 0 -4 -52 -86 -116 -182 -202 -303 -304
-548 -304 -736 0 -41 -1 -42 -25 -33 -20 8 -27 6 -31 -5 -4 -10 -14 -13 -30
-9 -16 4 -26 1 -30 -9 -7 -18 -36 -16 -42 4 -3 11 -1 11 7 -1 7 -10 11 -11 11
-3 0 7 -9 17 -21 24 -22 11 -22 13 -4 -48 3 -10 26 -33 51 -52 43 -32 47 -34
89 -24 25 6 47 8 50 5 2 -3 -4 -20 -16 -38 -28 -45 -59 -159 -59 -215 0 -105
30 -196 97 -291 18 -26 26 -45 18 -42 -23 9 -18 -12 8 -30 19 -14 17 -14 -16
1 -31 14 -39 15 -50 3 -7 -8 -7 -10 -1 -7 7 4 18 -1 25 -10 12 -15 12 -16 -1
-8 -8 5 -32 10 -53 11 l-38 1 28 -29 28 -30 -30 14 c-16 7 -36 20 -43 28 -12
13 -13 13 -9 0 2 -8 21 -25 43 -37 21 -13 32 -23 23 -23 -9 0 -35 14 -57 30
-49 35 -68 39 -50 10 21 -33 88 -60 118 -47 28 12 120 16 120 5 0 -3 -19 -30
-43 -60 -122 -150 -207 -307 -233 -427 -18 -87 -36 -498 -27 -621 3 -47 2 -81
-3 -77 -4 4 -11 42 -15 85 l-6 77 -1 -79 c-2 -100 -14 -91 -23 17 l-6 82 -3
-75 c-2 -52 -4 -66 -9 -45 -3 17 -4 55 0 85 3 30 2 63 -3 73 -5 9 -5 17 -1 17
4 0 6 39 4 87 -5 127 25 410 58 554 14 59 61 147 106 197 l42 47 -23 18 c-14
10 -22 22 -19 26 2 5 -9 19 -25 33 -16 13 -43 53 -59 89 -24 51 -30 58 -31 37
0 -33 49 -120 97 -170 l36 -37 -37 -43 c-43 -50 -91 -144 -105 -208 -19 -88
-31 -167 -31 -212 0 -25 -4 -67 -9 -94 -5 -27 -15 -170 -21 -319 -6 -148 -15
-277 -20 -286 -4 -9 -5 -21 -2 -26 4 -6 7 -59 7 -117 0 -58 4 -106 9 -106 5 0
6 38 3 87 -4 60 -3 83 4 76 12 -12 15 -146 3 -165 -4 -7 -11 -28 -14 -48 l-6
-35 -18 57 c-20 62 -40 97 -51 86 -4 -3 -2 -23 4 -45 15 -52 14 -129 -3 -182
-16 -56 -24 -43 -38 64 -7 47 -15 85 -19 85 -4 0 -11 -21 -14 -47 -11 -83 -35
-158 -46 -142 -6 10 -9 3 -9 -23 0 -33 -20 -68 -20 -36 -1 8 -6 6 -15 -6 -8
-11 -15 -18 -15 -15 -1 16 -29 80 -30 65 0 -16 -2 -16 -16 -5 -13 11 -15 9 -9
-17 4 -23 3 -25 -4 -9 -5 11 -10 31 -10 44 -1 18 2 21 12 12 10 -8 14 -7 14 4
0 8 -5 11 -10 8 -7 -4 -8 1 -4 13 7 18 7 18 -8 0 -8 -11 -15 -28 -15 -37 0
-10 -4 -21 -10 -24 -14 -9 -12 26 3 52 6 12 34 52 61 89 l48 68 -55 51 -55 50
5 158 6 158 43 41 c24 23 44 47 44 52 -1 6 -20 32 -44 58 l-43 47 -47 -43
c-25 -24 -46 -48 -46 -53 0 -6 18 -30 40 -55 l39 -45 -6 -159 -5 -159 -55 -56
-55 -57 43 -58 c24 -33 47 -61 51 -64 4 -3 5 -89 3 -190 -3 -147 -7 -188 -20
-202 -8 -10 -15 -21 -15 -24 0 -2 -15 -25 -32 -49 -21 -28 -38 -42 -48 -39 -8
3 -11 2 -8 -2 4 -4 3 -14 -2 -24 -14 -27 -80 -103 -80 -93 0 5 11 20 25 33 18
17 23 29 18 48 -4 19 -3 24 8 20 10 -4 14 3 15 23 1 16 0 29 -2 29 -2 0 -15
-21 -28 -47 -18 -35 -26 -42 -27 -28 -3 28 -2 36 10 73 6 19 6 30 0 27 -5 -4
-9 -14 -10 -23 0 -14 -2 -13 -9 3 -12 27 -12 37 -1 30 14 -8 20 25 13 69 -8
43 -32 62 -32 25 0 -12 -2 -20 -5 -17 -6 6 -12 66 -16 168 -2 56 -5 36 -10
-75 -3 -82 -4 -1 -1 180 7 504 1 627 -37 835 -32 173 -84 300 -158 386 -28 33
-28 27 -2 105 45 135 34 295 -25 364 -21 24 -22 31 -14 78 12 65 -2 112 -51
168 -66 79 -192 110 -302 77 -22 -6 -42 -9 -45 -5 -22 21 216 386 363 556 21
24 45 53 53 65 23 33 192 197 361 351 46 42 107 92 154 127 6 4 26 20 45 35
180 143 482 312 670 373 124 41 152 39 103 -7 -31 -29 -133 -176 -133 -191 0
-5 -9 -17 -20 -27 -11 -10 -20 -22 -20 -27 0 -5 -8 -21 -19 -36 -98 -143 -185
-331 -227 -490 -24 -93 -11 -216 29 -275 20 -29 18 -39 -14 -112 -5 -11 -18
-60 -29 -108 -22 -98 -25 -194 -7 -278 11 -53 12 -46 13 100 1 150 2 159 33
246 18 50 37 94 42 100 14 14 11 35 -5 35 -15 0 -50 76 -41 90 3 4 -2 27 -11
51 -13 38 -14 54 -3 114 7 39 16 74 21 80 4 5 8 18 8 30 0 12 4 25 8 30 5 6
16 28 24 50 30 76 73 160 118 230 25 39 56 93 70 120 14 28 28 55 32 60 4 6
31 46 60 90 56 85 86 123 130 163 26 23 30 53 5 34 -7 -5 -46 -17 -87 -27 -41
-9 -113 -33 -160 -52 -105 -43 -356 -173 -370 -192 -3 -4 -26 -19 -52 -34 -41
-24 -215 -151 -228 -166 -3 -3 -26 -23 -52 -44 -26 -21 -53 -43 -60 -50 -7 -7
-29 -25 -48 -41 -43 -35 -299 -286 -360 -353 -50 -55 -64 -73 -100 -123 -14
-19 -30 -42 -37 -50 -106 -129 -263 -380 -284 -453 -8 -27 -6 -29 14 -23 117
34 148 39 202 28 133 -27 218 -142 187 -253 -8 -31 -6 -38 19 -67 31 -34 49
-91 55 -166 3 -48 -24 -189 -46 -238 -11 -22 -7 -31 38 -90 63 -83 103 -188
137 -353 35 -173 48 -363 41 -575 -4 -96 -9 -267 -12 -380 -5 -206 -20 -510
-26 -515 -2 -2 -22 -5 -45 -9 -39 -5 -43 -4 -43 17 0 17 -2 19 -9 8 -7 -11
-10 -9 -13 10 -4 22 -5 21 -16 -11 -11 -34 -11 -33 -7 18 2 29 0 50 -4 47 -5
-3 -9 43 -9 102 -1 60 -6 155 -12 213 -6 58 -12 116 -13 130 -1 14 -5 27 -8
30 -10 8 -59 98 -59 108 0 5 34 26 76 47 42 22 72 41 66 43 -6 2 -21 -2 -34
-9 l-23 -12 20 24 c13 15 14 19 3 11 -9 -7 -27 -15 -41 -17 -24 -5 -24 -4 -22
63 4 92 -12 189 -38 235 l-22 39 30 21 c17 12 43 35 60 50 30 28 29 28 -14 -2
-24 -17 -45 -30 -47 -29 -1 2 6 34 15 72 39 160 -20 348 -157 497 l-53 58 66
37 c45 25 63 40 56 47 -7 7 -18 5 -35 -6 -37 -25 -49 -3 -31 57 27 90 -2 204
-72 278 l-25 26 23 15 c13 8 40 24 59 34 54 29 120 73 120 79 0 4 -11 -1 -25
-10 -32 -21 -38 -20 -25 4 15 29 9 25 -39 -21 -42 -39 -70 -48 -39 -12 8 10
19 25 23 33 6 12 5 13 -6 3 -20 -20 -24 -17 -43 41 -13 37 -27 58 -47 70 -16
10 -27 21 -25 25 10 16 -184 2 -260 -19 -42 -11 -79 -18 -82 -15 -3 3 21 33
54 68 32 34 47 51 32 38 -34 -30 -46 -22 -23 13 28 42 12 30 -25 -19 -18 -25
-36 -43 -38 -40 -3 2 1 11 8 20 7 8 9 15 4 15 -4 0 1 7 12 16 10 8 13 13 7 9
-7 -3 -13 -3 -13 2 1 12 57 121 127 248 l61 110 44 6 43 6 -40 3 c-39 2 -39 3
-10 10 24 6 26 8 8 9 -26 1 -31 19 -8 27 8 4 15 12 15 19 0 16 58 120 109 195
89 132 255 357 282 383 16 15 29 32 29 38 0 12 37 49 50 49 5 0 10 5 10 11 0
30 262 287 315 309 11 5 34 21 52 37 109 97 459 298 504 289 4 0 15 6 25 16
48 42 388 137 544 151 57 5 254 5 263 0z m-618 -2061 c-3 -3 -11 0 -18 7 -9
10 -8 11 6 5 10 -3 15 -9 12 -12z m-618 -994 c18 -18 33 -37 33 -44 0 -7 -17
-27 -37 -44 l-38 -31 -32 35 c-18 20 -33 40 -33 45 0 10 60 71 70 71 2 0 19
-14 37 -32z m332 -265 c0 -25 -1 -25 -8 -8 -5 11 -7 23 -4 28 8 14 13 7 12
-20z m85 -40 c27 -53 66 -188 66 -229 0 -42 -11 -54 -48 -54 -15 0 -15 2 -2
10 12 7 12 10 1 10 -7 0 -11 6 -7 15 3 8 0 15 -7 15 -8 0 -6 4 3 10 13 9 13
10 0 10 -13 0 -13 1 0 10 12 8 12 10 -5 10 -17 0 -17 2 -5 10 13 9 13 10 0 10
-13 0 -13 1 0 10 13 9 13 10 0 11 -10 0 -8 3 5 9 l20 9 -20 0 c-17 1 -17 3 -5
11 11 7 11 10 2 10 -10 0 -10 5 -1 21 8 15 8 19 0 15 -7 -5 -11 2 -11 17 0 14
-3 39 -6 56 -8 38 1 40 20 4z m-60 -125 c26 -60 56 -171 56 -211 0 -34 -10
-39 -62 -30 -38 6 -40 8 -18 14 22 6 23 7 4 8 -20 1 -21 6 -18 49 5 70 6 72
23 72 10 0 12 3 5 8 -5 4 -11 30 -13 57 -1 28 -4 58 -7 68 -11 37 8 14 30 -35z
m-355 -86 l44 -38 -19 -30 c-27 -43 -76 -104 -84 -104 -5 0 -58 69 -84 109 -6
9 5 26 35 57 24 24 48 44 54 44 5 0 30 -17 54 -38z m321 -238 c0 -24 -14 -32
-24 -15 -3 4 -20 12 -38 16 -29 6 -31 8 -13 15 l20 9 -20 1 c-17 2 -16 3 5 10
14 4 18 8 9 9 -11 1 -15 9 -14 24 1 12 3 40 4 62 l2 40 34 -74 c19 -40 35 -84
35 -97z m193 155 c-13 -13 -83 -30 -83 -20 0 7 54 27 80 30 10 1 11 -2 3 -10z
m-29 -105 c6 -56 4 -71 -13 -97 -17 -27 -21 -29 -27 -14 -8 22 3 97 18 114 13
16 3 43 -17 43 -8 0 -15 5 -15 10 0 6 11 10 24 10 21 0 24 -5 30 -66z m-287
-118 c-3 -8 -18 -23 -32 -32 -25 -16 -27 -16 -43 1 -16 16 -16 17 8 10 23 -6
23 -5 -5 14 l-29 20 24 10 c14 5 19 10 13 10 -16 1 -17 31 -2 31 5 0 8 4 4 9
-3 6 0 31 6 57 l12 47 25 -81 c14 -44 22 -87 19 -96z m237 125 c-5 -5 -30 -12
-56 -16 -38 -6 -48 -4 -48 7 0 10 8 13 28 11 15 -3 38 0 52 5 27 11 39 7 24
-7z m-10 -98 l7 -67 -46 -45 c-45 -45 -45 -46 -45 -18 0 15 5 27 11 27 6 0 7
5 2 13 -13 20 -12 39 2 66 11 22 11 28 -1 39 -21 19 -17 40 9 45 54 10 54 10
61 -60z m-174 27 c0 -5 10 -10 23 -11 15 0 17 -2 7 -6 -8 -3 -18 -11 -22 -17
-5 -7 -8 -4 -8 7 0 9 -4 17 -10 17 -5 0 -10 5 -10 10 0 6 5 10 10 10 6 0 10
-4 10 -10z m90 -40 c0 -15 -61 -50 -87 -50 -38 0 -26 15 22 28 25 7 45 16 45
22 0 5 5 10 10 10 6 0 10 -5 10 -10z m130 -49 c-5 -11 -15 -23 -21 -27 -6 -3
-3 5 6 20 20 30 30 35 15 7z m-416 -44 c-14 -26 -28 -47 -30 -47 -3 0 7 23 22
50 15 28 29 49 31 47 2 -2 -8 -25 -23 -50z m275 -11 l9 -47 -61 -54 c-34 -30
-63 -52 -65 -50 -2 2 3 18 11 35 9 16 12 28 8 26 -4 -3 -8 11 -9 30 -1 19 -4
39 -7 44 -4 6 2 10 12 11 16 0 16 1 -2 9 -17 7 -17 9 -2 9 20 1 23 17 5 25 -7
3 -4 4 7 1 11 -3 34 -1 50 4 17 4 31 7 32 6 2 -1 7 -23 12 -49z m-165 23 c-3
-5 -16 -9 -30 -9 -33 0 -24 15 10 16 14 1 23 -2 20 -7z m337 -203 c-2 -24 -10
-40 -20 -43 -9 -2 -26 -22 -39 -44 -19 -33 -26 -38 -41 -29 -10 5 -21 6 -25 3
-3 -3 -6 -1 -6 5 0 8 -7 9 -26 2 -36 -14 -39 -13 -19 10 11 12 13 20 6 20 -6
0 3 14 21 30 18 17 25 28 16 24 -20 -7 -19 16 1 40 8 9 11 19 8 23 -4 3 8 25
27 47 18 23 46 61 62 86 l29 45 5 -90 c3 -49 4 -107 1 -129z m-307 168 c13
-50 4 -158 -14 -181 -20 -26 -30 -20 -30 18 0 17 -8 34 -20 42 -17 12 -20 24
-19 66 2 48 5 53 33 66 43 18 43 18 50 -11z m247 -1 c-20 -37 -86 -106 -137
-144 -66 -48 -76 -67 -75 -136 0 -69 7 -80 35 -54 27 25 83 43 108 35 26 -8
22 -24 -6 -24 -35 0 -91 -26 -130 -61 -42 -37 -76 -120 -76 -188 0 -46 -1 -48
-42 -69 -73 -35 -94 -42 -106 -30 -8 8 -7 15 6 25 15 11 14 12 -9 4 -27 -10
-60 1 -40 13 18 11 13 38 -11 64 -15 16 -19 26 -11 29 6 2 31 17 56 34 59 39
110 115 147 219 18 52 41 94 57 110 16 15 64 60 107 101 44 41 75 67 71 59 -7
-12 -6 -13 7 -3 8 7 17 11 20 8 3 -3 11 1 18 10 17 20 23 19 11 -2z m-356
-119 c33 -22 32 -36 -2 -28 -35 8 -47 19 -39 33 9 14 12 14 41 -5z m455 -5
c-7 -11 -14 -18 -17 -15 -8 8 5 36 17 36 7 0 7 -6 0 -21z m-553 -65 c-91 -180
-276 -375 -462 -486 -106 -64 -181 -89 -270 -91 -74 -2 -85 1 -145 33 -36 20
-74 49 -86 67 -12 18 -25 29 -28 25 -4 -3 -4 2 0 12 5 13 4 17 -4 12 -11 -7
-28 31 -18 41 3 4 6 -2 6 -13 0 -16 2 -17 10 -4 5 8 10 10 10 4 0 -6 10 -23
23 -37 l22 -26 0 34 c0 18 -3 37 -7 41 -5 4 -8 14 -8 23 0 8 13 -5 29 -30 45
-70 81 -98 144 -111 51 -11 65 -10 132 10 113 33 204 93 325 212 114 112 170
177 237 273 51 72 46 67 72 72 19 3 20 2 10 -18 -7 -12 -32 -51 -56 -86 -24
-35 -42 -68 -41 -73 4 -10 112 145 125 177 3 9 7 14 10 11 2 -2 -11 -35 -30
-72z m359 41 c-14 -13 -26 -29 -26 -36 0 -6 -7 -8 -17 -5 -10 4 -14 4 -11 0 6
-6 -39 -104 -48 -104 -2 0 -2 17 0 38 4 29 15 47 57 85 29 26 57 47 62 47 6 0
-2 -11 -17 -25z m-286 -18 c28 -23 22 -37 -10 -25 -30 10 -36 19 -23 31 9 10
16 8 33 -6z m-363 -39 c-3 -7 -5 -2 -5 12 0 14 2 19 5 13 2 -7 2 -19 0 -25z
m354 -11 c-1 -12 -15 -9 -19 4 -3 6 1 10 8 8 6 -3 11 -8 11 -12z m-33 -37 c7
-11 19 -20 26 -20 8 0 18 -5 22 -12 5 -7 2 -9 -7 -4 -8 4 -5 0 5 -8 11 -9 23
-16 28 -16 4 0 8 -4 8 -9 0 -8 -124 30 -136 42 -9 8 15 47 29 47 7 0 18 -9 25
-20z m452 -26 c-25 -40 -22 -54 5 -24 26 29 35 25 25 -11 -5 -18 -7 -36 -4
-40 3 -5 -3 -21 -14 -37 -34 -50 -35 -57 -3 -27 l32 30 -16 -37 c-8 -21 -15
-45 -15 -55 0 -9 -17 -34 -37 -55 -36 -37 -61 -51 -47 -25 7 11 -9 -2 -81 -68
-77 -72 -273 -136 -418 -137 -101 0 -123 7 -170 54 l-28 28 46 -20 c89 -38
240 -22 360 38 151 75 244 169 284 287 11 32 85 133 99 135 2 0 -6 -16 -18
-36z m-773 -6 c-3 -8 -6 -5 -6 6 -1 11 2 17 5 13 3 -3 4 -12 1 -19z m301 -36
c2 -7 -6 -12 -17 -12 -21 0 -27 11 -14 24 9 9 26 2 31 -12z m378 -56 c-20 -39
-46 -56 -72 -46 -13 5 -26 4 -32 -2 -8 -8 -10 -3 -8 18 3 31 30 53 79 64 42 9
51 0 33 -34z m-390 13 c39 -24 42 -28 15 -26 -11 0 -17 5 -15 9 3 4 3 8 0 8
-2 0 -13 3 -23 6 -10 4 1 -13 25 -38 36 -37 41 -47 29 -56 -11 -10 -30 -7 -83
9 -38 12 -72 23 -77 26 -14 8 54 83 75 83 11 0 36 -9 54 -21z m-1084 -52 c2
-7 -6 -30 -17 -50 -19 -36 -19 -38 -1 -67 14 -24 16 -42 11 -80 -9 -67 7 -110
60 -159 129 -119 322 -160 495 -105 45 14 88 23 96 20 19 -7 130 51 153 80 10
13 24 24 30 24 23 0 10 -21 -29 -46 -22 -15 -40 -28 -40 -31 0 -6 43 18 62 35
16 13 77 28 65 15 -3 -2 -7 -3 -9 -1 -2 1 -16 -7 -33 -18 -78 -56 -193 -112
-250 -123 -28 -5 -63 -15 -80 -21 -16 -6 -59 -15 -96 -19 -134 -17 -319 47
-406 141 -29 31 -93 154 -93 179 0 12 7 19 19 19 30 0 45 25 31 50 -10 18 -18
21 -42 16 -24 -5 -29 -3 -24 9 3 8 8 37 12 65 4 32 11 50 20 50 8 0 14 9 14
19 0 11 3 26 6 34 5 13 8 13 24 -3 10 -10 20 -25 22 -33z m998 -47 c0 -16 -31
-60 -42 -60 -5 0 -6 5 -2 12 5 8 2 9 -10 5 -15 -6 -14 -2 4 23 21 29 50 41 50
20z m652 -24 c19 12 -24 -52 -76 -113 -72 -84 -165 -164 -233 -200 -135 -72
-304 -84 -438 -30 -28 11 -23 13 70 23 95 11 97 11 40 14 l-60 3 80 8 c202 20
361 94 525 245 41 37 76 62 78 56 2 -7 8 -9 14 -6z m-1524 -31 c-3 -3 -9 2
-12 12 -6 14 -5 15 5 6 7 -7 10 -15 7 -18z m576 4 c-10 -11 -28 -25 -39 -30
-11 -6 -4 4 15 21 40 35 52 39 24 9z m270 -61 c-17 -20 -18 -21 -1 -15 20 7
23 -3 5 -21 -7 -7 -8 -12 -2 -12 5 0 17 14 26 31 15 25 20 28 32 17 17 -16 11
-29 -42 -87 -36 -41 -42 -43 -75 -37 -42 8 -56 24 -36 40 8 6 25 27 39 46 36
54 64 82 68 70 2 -6 -4 -21 -14 -32z m-24 27 c0 -6 -26 -38 -71 -88 l-36 -40
-32 29 c-30 27 -31 30 -12 31 12 1 37 12 57 23 28 18 32 25 23 36 -9 12 -4 14
30 14 22 0 41 -2 41 -5z m52 -27 c-7 -7 -12 -8 -12 -2 0 14 12 26 19 19 2 -3
-1 -11 -7 -17z m-1047 -18 c0 -22 -29 -18 -33 3 -3 14 1 18 15 15 10 -2 18
-10 18 -18z m165 -110 c0 -3 -5 -12 -10 -20 -8 -12 -10 -12 -10 5 -1 17 -3 17
-12 -5 -6 -14 -10 -29 -9 -33 4 -17 -23 0 -37 24 -12 21 -12 22 1 7 20 -25 30
-23 17 3 -15 28 14 53 42 35 10 -6 18 -13 18 -16z m980 26 c0 -2 -9 -6 -20 -9
-11 -3 -18 -1 -14 4 5 9 34 13 34 5z m-433 -43 c31 -24 33 -28 19 -39 -22 -16
-116 6 -116 27 0 7 45 37 58 39 2 0 19 -12 39 -27z m139 1 c18 -14 18 -14 -6
-3 -31 14 -36 19 -24 19 6 0 19 -7 30 -16z m-648 -23 c-2 -9 -11 -16 -19 -16
-9 0 -25 -7 -35 -15 -18 -14 -18 -14 -3 10 8 14 19 30 23 37 9 17 38 4 34 -16z
m617 8 c4 -6 5 -13 2 -16 -8 -7 -47 7 -47 18 0 13 37 11 45 -2z m-228 -57
c-15 -15 -37 -38 -48 -51 -21 -26 -49 -37 -49 -19 0 6 6 8 14 5 10 -4 15 1 15
14 1 10 1 28 2 39 0 10 14 31 31 45 28 24 32 25 47 10 14 -14 13 -18 -12 -43z
m892 21 c-26 -28 -8 -22 28 9 21 20 21 20 32 0 9 -17 6 -23 -22 -41 -17 -11
-27 -21 -22 -21 6 0 21 7 33 16 22 15 24 15 37 -2 8 -11 20 -31 27 -46 7 -16
19 -28 27 -28 18 0 6 -13 -17 -18 -9 -2 -51 -6 -92 -8 -41 -2 -86 -7 -100 -10
-23 -7 -21 -8 14 -14 22 -4 54 -4 70 1 17 5 42 9 56 8 47 -2 -60 -29 -175 -44
-194 -26 -352 -30 -419 -11 -32 10 -56 19 -54 22 3 2 19 -1 36 -7 17 -6 39 -9
49 -6 11 2 -1 9 -30 17 -59 16 -72 31 -16 19 62 -14 72 -4 12 11 -29 8 -53 18
-53 22 0 5 -5 6 -12 2 -7 -4 -8 -3 -4 5 5 7 22 10 44 7 20 -3 29 -3 19 0 -9 3
-15 10 -12 15 4 5 2 9 -2 9 -5 0 -18 7 -29 16 -10 8 -13 13 -6 9 7 -4 49 -15
93 -26 175 -42 314 -14 464 92 50 35 55 36 24 2z m-1194 2 c22 -8 50 -15 61
-15 25 0 41 -30 22 -42 -7 -4 -26 -5 -43 -2 -40 9 -116 54 -109 65 7 12 22 11
69 -6z m-124 -22 c-12 -20 -14 -14 -5 12 4 9 9 14 11 11 3 -2 0 -13 -6 -23z
m196 -63 c67 -14 75 -30 15 -30 -39 0 -87 15 -139 43 -52 28 -47 36 10 17 28
-10 80 -23 114 -30z m148 30 c-10 -11 -20 -18 -23 -15 -7 6 18 35 31 35 5 0 2
-9 -8 -20z m180 2 c-15 -13 -127 -53 -133 -47 -11 11 29 42 51 38 12 -2 33 0
47 6 32 12 47 14 35 3z m45 -12 c-24 -19 -40 -25 -40 -15 0 5 51 34 60 34 3 0
-6 -8 -20 -19z m-513 -113 c14 5 73 -24 73 -35 0 -5 16 -16 35 -25 19 -9 35
-21 35 -27 0 -19 -30 -23 -49 -6 -10 9 -25 14 -33 11 -15 -6 -56 29 -91 80
-19 27 -19 29 -1 14 10 -9 24 -14 31 -12z m488 -27 c-3 -5 -13 -10 -21 -10 -8
0 -14 -5 -14 -11 0 -15 -139 -7 -165 10 -16 10 -3 11 70 7 58 -4 83 -3 70 3
-16 8 -11 10 23 10 26 1 41 -3 37 -9z m768 -49 l-6 -53 -111 7 c-116 7 -137
12 -115 26 10 6 7 9 -11 10 -17 1 -12 4 15 9 35 6 31 8 -35 10 -46 2 -60 5
-35 7 98 9 289 33 293 38 9 9 10 1 5 -54z m-990 28 c22 -6 37 -12 35 -14 -2
-2 -26 2 -53 10 -28 7 -43 14 -35 14 8 1 32 -4 53 -10z m890 -95 c117 -6 127
-8 127 -25 0 -18 -6 -19 -102 -14 -122 6 -215 14 -243 19 -11 2 -45 8 -75 12
l-55 9 50 5 c28 3 77 4 110 3 33 -2 117 -6 188 -9z m-160 -58 c18 -7 43 -25
56 -40 14 -14 28 -26 32 -26 13 0 -3 34 -25 51 -16 13 -17 16 -3 16 14 0 119
-103 165 -160 14 -19 16 -57 2 -57 -5 0 -10 -7 -10 -16 0 -8 -4 -12 -10 -9 -6
3 -7 -1 -4 -9 3 -9 -1 -22 -9 -31 -9 -8 -17 -11 -19 -6 -4 11 -122 144 -188
212 -38 39 -44 49 -35 67 12 26 8 25 48 8z m-126 -53 l-5 -58 21 48 c22 49 45
68 25 20 -7 -17 -13 -101 -15 -207 -2 -98 -8 -186 -13 -195 -7 -11 -8 -4 -4
27 5 28 3 42 -5 42 -6 0 -11 -1 -11 -2 0 -2 -7 -21 -15 -43 l-14 -40 -1 32 c0
18 -5 55 -11 83 -8 36 -8 69 0 118 6 37 13 92 16 122 5 50 24 110 34 110 2 0
1 -26 -2 -57z m349 42 c4 -8 3 -23 -1 -32 -6 -17 -8 -17 -18 -1 -10 15 -12 15
-24 0 -11 -15 -12 -13 -13 16 0 28 3 32 25 32 14 0 28 -7 31 -15z m-291 -175
c3 -5 1 -10 -4 -10 -6 0 -11 5 -11 10 0 6 2 10 4 10 3 0 8 -4 11 -10z m85 -95
c6 4 30 -15 53 -40 66 -74 72 -96 13 -46 -18 15 -18 15 -11 -7 5 -18 -12 -8
-74 44 -68 57 -81 72 -81 97 l0 30 45 -42 c25 -23 50 -39 55 -36z m-11 27 c7
-7 11 -15 9 -17 -2 -3 -18 10 -34 27 -26 29 -9 22 25 -10z m129 -59 c-9 -12
-9 -15 0 -9 6 4 12 3 12 -3 0 -24 -25 -21 -53 7 l-31 31 24 19 c24 19 24 19
43 -5 16 -20 17 -26 5 -40z m64 -35 c-7 -7 -12 -8 -12 -2 0 6 3 14 7 17 3 4 9
5 12 2 2 -3 -1 -11 -7 -17z m-172 -47 c0 -6 -4 -13 -10 -16 -5 -3 -10 -11 -10
-16 0 -6 5 -7 10 -4 18 11 10 -12 -11 -31 -38 -35 -87 -109 -100 -153 -12 -39
-14 -41 -26 -25 -11 15 -13 10 -13 -39 0 -38 4 -57 12 -57 9 0 9 -3 0 -12 -7
-7 -12 -23 -13 -38 -1 -21 -2 -20 -11 10 -9 32 -6 131 7 220 7 49 82 160 108
160 6 0 0 -11 -13 -25 -13 -14 -21 -27 -18 -31 3 -3 19 11 35 30 27 34 53 47
53 27z m141 -24 c-16 -16 -13 -31 3 -17 8 6 16 21 18 33 2 14 6 18 10 11 8
-12 -104 -194 -119 -194 -11 0 -43 33 -43 45 0 6 15 25 33 41 17 16 48 48 67
72 19 23 37 37 39 31 2 -6 -2 -16 -8 -22z m33 -129 c-3 -52 -13 -103 -21 -116
-7 -12 -11 -27 -8 -32 3 -6 2 -10 -2 -10 -19 0 -29 39 -28 102 1 54 6 74 28
107 15 23 30 41 33 41 2 0 2 -42 -2 -92z m-338 45 c-10 -10 -19 5 -10 18 6 11
8 11 12 0 2 -7 1 -15 -2 -18z m214 -174 c0 10 9 6 28 -12 15 -15 32 -27 38
-27 9 0 102 -144 125 -192 22 -49 -23 -191 -53 -172 -8 5 -9 1 -4 -12 4 -10 4
-15 0 -11 -4 4 -15 0 -24 -8 -29 -26 -34 11 -8 53 27 44 27 102 -1 165 -12 26
-25 47 -29 46 -4 0 -24 -22 -45 -50 -20 -27 -43 -49 -49 -49 -6 0 -1 12 13 26
24 27 24 27 2 22 -22 -6 -22 -5 4 36 14 22 32 46 39 52 12 10 4 28 -51 110
-53 80 -58 90 -26 54 22 -25 41 -39 41 -31z m-12 26 c-3 -3 -9 2 -12 12 -6 14
-5 15 5 6 7 -7 10 -15 7 -18z m-84 0 c-4 -8 -1 -15 5 -15 8 0 7 -10 -4 -29
-43 -83 -84 -256 -72 -303 6 -23 -1 -50 -12 -43 -4 2 -6 20 -5 39 2 20 -1 36
-6 36 -5 0 -11 -21 -13 -47 -2 -27 -4 6 -3 72 1 108 4 125 27 170 46 90 102
171 83 120z m224 -93 c6 -18 -15 -14 -22 4 -4 10 -1 14 6 12 6 -2 14 -10 16
-16z m-221 -159 c-4 11 -3 16 3 12 6 -3 10 -13 10 -21 0 -8 4 -14 9 -14 17 0
122 -165 145 -229 7 -20 17 -44 21 -53 6 -14 2 -18 -16 -18 -27 1 -84 56 -167
161 -47 60 -52 72 -52 116 0 59 7 69 33 46 19 -17 20 -17 14 0z m-134 -111 c4
-21 3 -31 -3 -27 -6 3 -10 20 -10 37 0 38 5 34 13 -10z m152 -94 l46 -61 -28
-29 c-14 -15 -32 -28 -37 -28 -6 0 -2 7 8 15 32 24 10 29 -27 6 -19 -11 -38
-21 -43 -21 -5 0 6 10 24 22 29 18 31 23 18 30 -11 6 -25 3 -46 -12 -40 -28
-38 -17 3 20 35 31 24 33 -37 7 -54 -24 -55 -22 -8 19 24 20 49 49 58 65 8 16
17 29 19 29 3 0 25 -28 50 -62z m-131 -9 c-9 -10 -21 -16 -26 -13 -5 3 -2 11
6 17 12 9 13 16 5 27 -9 13 -10 12 -5 -2 3 -10 1 -18 -4 -18 -11 0 -14 33 -4
43 3 3 15 -4 26 -15 19 -19 19 -21 2 -39z m198 -143 c15 -3 30 -2 33 4 3 5 33
10 65 10 62 0 73 -9 66 -55 -3 -18 -11 -20 -90 -21 -48 0 -89 3 -92 8 -3 4
-15 8 -27 7 -21 0 -21 -1 -2 -9 19 -8 19 -9 -2 -9 -13 -1 -23 4 -23 9 0 6 -15
9 -32 9 l-33 -1 30 -7 c30 -7 30 -7 -10 -13 -22 -3 -49 -1 -60 3 -19 7 -19 8
3 8 37 1 14 21 -24 21 -24 0 -34 5 -34 15 0 11 13 15 50 17 90 3 110 5 117 12
4 3 14 4 22 2 9 -2 28 -7 43 -10z m-35 -93 c-16 -4 -17 -6 -3 -16 9 -7 18 -34
21 -64 5 -51 4 -53 -20 -53 -14 0 -25 -5 -25 -11 0 -7 10 -9 25 -7 l25 5 -4
-99 c-1 -54 -6 -101 -9 -104 -3 -3 -11 14 -18 38 -7 23 -16 48 -21 55 -6 7 -3
13 9 16 14 4 13 5 -4 6 -13 0 -23 5 -23 10 0 13 -73 121 -82 121 -13 0 -37
-44 -64 -119 -23 -63 -24 -74 -11 -84 20 -16 91 -125 106 -163 11 -27 19 -32
58 -38 86 -11 163 -7 163 9 0 8 9 30 20 50 11 20 20 44 20 55 0 10 18 38 41
62 l41 43 -21 75 c-12 41 -24 90 -27 108 -6 32 -18 39 -41 24 -23 -15 -79
-137 -93 -202 -23 -115 -31 -93 -30 80 1 91 -2 175 -5 187 -7 21 -5 21 92 20
l98 -2 6 -80 c4 -52 16 -104 34 -148 l28 -68 -21 -22 c-25 -28 -76 -121 -96
-178 -8 -24 -15 -36 -16 -27 0 10 9 41 20 70 11 28 18 54 15 56 -5 6 -31 -57
-40 -97 -9 -41 -32 -49 -115 -45 -174 9 -190 15 -190 62 0 33 -44 105 -92 147
l-40 37 30 91 c16 51 35 115 42 144 l12 52 56 4 c86 5 169 5 149 0z m208 -207
c22 -85 23 -84 -50 -91 -63 -7 -78 -18 -56 -41 8 -8 15 -61 12 -87 -1 -5 -13
5 -27 22 -22 27 -24 36 -19 76 6 35 12 45 26 45 23 0 67 58 80 105 6 20 12 35
15 32 2 -2 11 -30 19 -61z m-345 28 c0 -30 43 -86 76 -100 45 -19 56 -65 23
-100 -32 -35 -39 -30 -23 17 19 54 9 66 -66 71 -33 2 -62 7 -65 10 -3 3 1 23
9 44 8 22 17 47 20 57 7 22 26 22 26 1z"/>
<path d="M1873 5756 c-6 -29 -8 -58 -3 -70 7 -16 9 -17 9 -4 1 9 4 18 9 20 4
2 5 26 2 53 l-5 50 -12 -49z"/>
<path d="M1960 5756 c0 -19 -6 -37 -12 -39 -8 -3 -6 -6 5 -6 13 -1 17 7 17 39
0 22 -2 40 -5 40 -3 0 -5 -15 -5 -34z"/>
<path d="M1789 5717 c5 -5 19 -7 32 -5 20 3 19 5 -9 9 -20 3 -29 2 -23 -4z"/>
<path d="M1858 5488 c-2 -73 0 -140 4 -148 4 -8 8 51 8 133 0 81 -2 147 -4
147 -3 0 -6 -60 -8 -132z"/>
<path d="M2020 5510 c0 -5 5 -9 11 -7 15 3 52 -62 45 -79 -3 -8 -1 -14 4 -14
17 0 11 39 -12 75 -22 33 -48 47 -48 25z"/>
<path d="M1982 5420 c0 -14 2 -19 5 -12 2 6 2 18 0 25 -3 6 -5 1 -5 -13z"/>
<path d="M2033 5373 c-9 -3 -13 -30 -11 -91 l1 -87 6 80 c3 44 10 86 14 93 9
13 9 13 -10 5z"/>
<path d="M1852 5250 c0 -19 2 -27 5 -17 2 9 2 25 0 35 -3 9 -5 1 -5 -18z"/>
<path d="M1840 5063 c0 -187 -6 -222 -45 -268 l-34 -38 39 -40 38 -41 35 31
c41 36 72 35 101 -5 18 -23 19 -40 17 -156 -1 -72 0 -129 2 -126 3 3 8 61 12
129 7 121 7 124 36 148 37 31 36 42 -2 76 l-32 28 7 142 c4 78 9 160 13 182 4
28 2 37 -5 30 -6 -6 -14 -83 -18 -185 -6 -157 -9 -177 -27 -197 -27 -30 -48
-29 -86 3 -32 27 -42 23 -16 -6 18 -20 13 -40 -17 -59 -18 -11 -24 -10 -50 16
l-28 29 26 32 c15 17 30 29 35 26 5 -3 9 80 9 185 0 105 -2 191 -5 191 -3 0
-5 -57 -5 -127z m192 -300 c24 -21 23 -39 -4 -57 -20 -14 -23 -14 -40 4 -22
24 -22 29 -1 52 20 22 22 22 45 1z"/>
<path d="M2375 4391 c-5 -9 9 -88 18 -97 2 -2 5 21 6 51 1 50 -9 70 -24 46z"/>
<path d="M2152 3815 c0 -16 2 -22 5 -12 2 9 2 23 0 30 -3 6 -5 -1 -5 -18z"/>
<path d="M2132 3670 c0 -14 2 -19 5 -12 2 6 2 18 0 25 -3 6 -5 1 -5 -13z"/>
<path d="M2077 3620 c-3 -11 -2 -22 2 -24 4 -3 8 6 9 20 2 29 -4 31 -11 4z"/>
<path d="M1703 3595 c0 -22 2 -30 4 -17 2 12 2 30 0 40 -3 9 -5 -1 -4 -23z"/>
<path d="M2066 3567 c3 -10 9 -15 12 -12 3 3 0 11 -7 18 -10 9 -11 8 -5 -6z"/>
<path d="M1498 3523 c7 -3 16 -2 19 1 4 3 -2 6 -13 5 -11 0 -14 -3 -6 -6z"/>
<path d="M1736 3363 c-6 -14 -5 -15 5 -6 7 7 10 15 7 18 -3 3 -9 -2 -12 -12z"/>
<path d="M2390 3200 c-20 -16 -21 -19 -5 -13 17 6 18 5 7 -9 -11 -14 -11 -16
1 -14 8 1 22 8 31 15 9 7 16 9 16 4 0 -5 7 -10 15 -10 8 0 12 4 9 8 -2 4 0 10
6 14 5 3 10 12 10 18 0 7 -7 4 -14 -5 -14 -19 -32 -25 -21 -8 3 6 1 10 -5 10
-6 0 -13 -7 -16 -15 -4 -8 -10 -12 -16 -9 -5 3 -4 11 3 20 16 19 9 17 -21 -6z"/>
<path d="M2155 3341 c-3 -5 -1 -12 5 -16 5 -3 10 1 10 9 0 18 -6 21 -15 7z"/>
<path d="M2027 2812 c-22 -24 -22 -36 0 -24 9 6 18 17 19 26 3 20 1 20 -19 -2z"/>
<path d="M1985 3279 c-4 -6 -5 -12 -2 -15 2 -3 7 2 10 11 7 17 1 20 -8 4z"/>
<path d="M2449 2893 c-13 -16 -12 -17 4 -4 9 7 17 15 17 17 0 8 -8 3 -21 -13z"/>
<path d="M1650 2575 c-14 -8 -20 -14 -14 -15 5 0 19 7 30 15 24 18 16 19 -16
0z"/>
<path d="M2522 2874 c-23 -29 -40 -54 -38 -54 8 0 89 101 84 105 -2 2 -23 -21
-46 -51z"/>
<path d="M2028 2633 c7 -3 16 -2 19 1 4 3 -2 6 -13 5 -11 0 -14 -3 -6 -6z"/>
<path d="M2058 2613 c7 -3 16 -2 19 1 4 3 -2 6 -13 5 -11 0 -14 -3 -6 -6z"/>
<path d="M1928 2603 c7 -3 16 -2 19 1 4 3 -2 6 -13 5 -11 0 -14 -3 -6 -6z"/>
<path d="M1973 2603 c9 -2 25 -2 35 0 9 3 1 5 -18 5 -19 0 -27 -2 -17 -5z"/>
<path d="M1935 2808 l-16 -33 21 24 c11 13 20 27 20 32 0 18 -10 8 -25 -23z"/>
<path d="M2353 2563 c9 -2 23 -2 30 0 6 3 -1 5 -18 5 -16 0 -22 -2 -12 -5z"/>
<path d="M2358 2533 c7 -3 16 -2 19 1 4 3 -2 6 -13 5 -11 0 -14 -3 -6 -6z"/>
<path d="M1868 2523 c7 -3 16 -2 19 1 4 3 -2 6 -13 5 -11 0 -14 -3 -6 -6z"/>
<path d="M2158 2493 c6 -2 18 -2 25 0 6 3 1 5 -13 5 -14 0 -19 -2 -12 -5z"/>
<path d="M1968 2463 c6 -2 18 -2 25 0 6 3 1 5 -13 5 -14 0 -19 -2 -12 -5z"/>
<path d="M1116 2445 c9 -14 26 -31 38 -37 14 -7 10 1 -13 26 -41 42 -48 45
-25 11z"/>
<path d="M2080 2261 c0 -5 7 -12 16 -15 14 -5 15 -4 4 9 -14 17 -20 19 -20 6z"/>
<path d="M2250 1610 c0 -5 5 -10 10 -10 6 0 10 5 10 10 0 6 -4 10 -10 10 -5 0
-10 -4 -10 -10z"/>
<path d="M2297 1217 c-19 -36 -22 -44 -8 -27 11 14 21 30 21 35 1 6 5 1 10
-10 6 -15 7 -11 7 18 -1 20 -1 37 -1 37 -1 0 -14 -24 -29 -53z"/>
<path d="M2156 975 c4 -8 7 -15 9 -15 2 0 5 7 9 15 3 9 0 15 -9 15 -9 0 -12
-6 -9 -15z"/>
<path d="M2115 810 c-3 -5 3 -10 15 -10 12 0 18 5 15 10 -3 6 -10 10 -15 10
-5 0 -12 -4 -15 -10z"/>
<path d="M3700 7445 c-8 -2 -36 -7 -62 -10 -44 -6 -48 -8 -48 -34 0 -16 7 -35
16 -42 65 -54 375 -450 435 -554 12 -22 28 -47 35 -55 24 -30 98 -176 127
-250 83 -213 100 -392 45 -480 -9 -14 -5 -28 20 -67 113 -176 96 -394 -40
-532 -22 -22 -57 -45 -77 -52 -20 -6 -40 -15 -45 -19 -4 -4 14 -30 40 -57 27
-26 94 -113 149 -193 169 -246 185 -313 188 -785 l2 -260 -37 -65 c-22 -38
-43 -96 -53 -140 -8 -41 -23 -90 -32 -109 -17 -32 -16 -35 5 -72 23 -40 28
-79 13 -94 -6 -6 -6 -27 0 -55 7 -31 7 -58 0 -87 -6 -23 -11 -62 -11 -87 0
-32 -4 -46 -13 -46 -25 0 -47 -36 -47 -76 0 -46 20 -130 53 -231 15 -44 20
-73 14 -73 -6 0 -31 19 -54 42 -48 47 -49 46 -28 -36 16 -62 60 -135 125 -209
27 -30 40 -54 40 -74 -1 -42 -37 -115 -73 -145 l-32 -26 20 -23 c11 -12 53
-37 93 -55 69 -32 72 -35 72 -68 0 -18 -7 -39 -15 -46 -24 -20 -19 -69 8 -81
23 -11 24 -15 30 -178 3 -92 11 -180 18 -196 7 -19 11 -78 10 -155 -1 -69 3
-150 8 -180 8 -48 6 -58 -14 -90 -46 -74 -66 -132 -59 -175 8 -51 49 -144 76
-172 l21 -22 -27 -45 c-14 -24 -26 -59 -26 -76 0 -18 -6 -33 -15 -36 -11 -5
-15 -22 -15 -68 0 -67 -18 -156 -46 -227 l-18 -46 36 -44 c45 -56 75 -113 84
-164 4 -22 14 -45 23 -52 20 -15 125 -15 250 0 l94 12 36 71 c36 70 70 120
116 169 l23 26 -29 68 c-28 68 -52 159 -70 276 -13 77 -13 76 -4 230 5 90 4
137 -3 151 -8 16 -7 33 4 70 19 62 21 207 4 261 -10 33 -10 55 -2 100 29 148
24 312 -14 485 -5 23 -3 28 13 28 28 0 43 20 43 57 0 20 -7 36 -17 42 -17 10
-17 10 0 11 38 0 138 61 159 95 11 19 22 35 25 35 3 0 18 -8 34 -17 19 -11 27
-23 24 -34 -15 -47 26 -72 144 -89 79 -12 147 -6 209 17 7 3 12 -3 12 -14 0
-33 34 -56 72 -48 53 11 88 38 204 155 119 120 155 173 179 265 30 118 11 333
-31 349 -23 9 -80 -21 -93 -50 -16 -36 -14 -58 10 -99 19 -32 20 -37 6 -53 -8
-9 -17 -32 -19 -51 -5 -60 -24 -46 -23 18 0 44 -5 64 -19 80 -38 42 -70 19
-130 -94 -37 -69 -80 -97 -153 -98 -47 -1 -71 4 -118 28 l-60 30 -8 215 c-13
355 0 454 72 552 l30 40 -32 60 c-53 101 -49 242 9 331 l24 37 -24 48 c-31 62
-39 101 -38 193 2 123 58 246 167 366 l56 62 -26 73 c-52 144 -30 288 51 341
40 26 41 32 11 52 -30 19 -47 56 -47 100 0 51 20 85 58 101 73 30 264 6 358
-45 l56 -30 -7 47 c-21 139 -221 524 -443 855 -70 103 -136 202 -146 220 -74
124 -387 459 -531 568 -127 96 -437 281 -551 329 -123 51 -379 129 -496 150
-106 19 -304 34 -338 25z m350 -65 c177 -35 309 -75 435 -134 28 -13 66 -30
85 -37 47 -17 153 -73 220 -117 144 -93 206 -135 215 -146 6 -7 35 -28 65 -48
30 -19 114 -93 185 -164 137 -137 161 -164 158 -176 -2 -4 6 -10 17 -13 11 -4
20 -13 20 -20 0 -8 8 -20 18 -27 18 -13 255 -336 308 -419 44 -69 94 -160 94
-170 0 -5 -10 -10 -22 -10 -15 -1 -11 -4 11 -8 49 -9 51 -29 4 -34 l-38 -4 45
-3 45 -3 -40 -7 -40 -7 42 -2 42 -1 52 -92 c75 -133 150 -281 144 -286 -2 -2
5 -23 16 -46 l20 -41 -23 30 c-13 16 -34 41 -47 55 l-23 25 16 -27 c19 -33 20
-42 4 -32 -7 5 5 -13 26 -39 21 -26 36 -47 32 -47 -3 0 -39 9 -79 21 -74 21
-282 35 -271 18 3 -5 -7 -14 -21 -21 -26 -12 -65 -83 -65 -121 0 -19 -1 -20
-20 -2 -27 24 -26 7 2 -22 28 -30 19 -39 -13 -11 -13 12 -34 31 -47 42 -19 17
-22 18 -16 3 4 -11 1 -17 -7 -17 -13 0 60 -59 74 -60 4 0 26 -12 48 -26 l41
-26 -24 -26 c-73 -80 -101 -194 -72 -292 17 -56 6 -71 -35 -47 -23 13 -30 14
-34 4 -3 -9 15 -24 50 -43 31 -16 58 -34 60 -41 3 -7 -8 -24 -24 -37 -41 -34
-120 -154 -149 -227 -27 -67 -45 -204 -33 -259 18 -88 20 -112 10 -105 -20 12
-11 -6 14 -28 l25 -22 -27 -55 c-26 -51 -28 -64 -28 -177 0 -86 -3 -119 -11
-112 -6 5 -15 5 -19 1 -5 -4 -5 -1 -1 5 5 9 2 11 -7 7 -8 -3 -18 -1 -22 5 -3
6 -11 11 -17 11 -5 0 0 -9 13 -20 l24 -21 -32 16 c-18 8 -33 11 -33 6 0 -6 34
-27 75 -47 41 -20 75 -42 75 -48 0 -6 -11 -27 -23 -46 -13 -19 -31 -60 -40
-90 -18 -59 -39 -311 -34 -397 2 -29 -1 -53 -6 -53 -6 0 -7 -22 -4 -52 5 -48
5 -50 -5 -20 -6 17 -15 32 -19 32 -5 0 -8 -3 -7 -7 4 -13 -28 -54 -36 -46 -3
4 -21 7 -39 7 -32 1 -32 2 -39 61 -9 84 -32 743 -32 955 -1 207 12 335 52 530
28 131 82 254 143 319 33 37 39 48 31 65 -34 72 -52 176 -48 269 3 63 23 119
55 154 15 16 18 32 14 94 -4 67 -2 78 22 114 69 104 196 141 330 95 32 -11 60
-20 62 -20 12 0 -64 172 -79 178 -4 2 -8 8 -8 14 0 9 -57 98 -70 108 -4 3 -9
12 -13 20 -8 17 -30 53 -37 60 -13 13 -79 99 -101 131 -128 190 -611 643 -842
790 -34 21 -75 49 -91 61 -47 37 -359 193 -434 217 -120 38 -202 59 -202 51 0
-4 18 -26 40 -49 48 -50 162 -220 210 -311 18 -36 50 -90 71 -121 58 -86 131
-248 169 -375 24 -79 -13 -294 -50 -294 -13 0 -13 -25 0 -48 26 -45 53 -135
66 -217 16 -106 18 -221 4 -230 -5 -3 -10 -18 -10 -32 0 -13 -6 -37 -14 -51
-8 -15 -22 -47 -32 -70 -10 -24 -33 -55 -51 -69 -18 -14 -31 -30 -30 -36 1 -6
-8 -15 -20 -22 -21 -11 -21 -12 23 -61 63 -71 111 -178 127 -284 3 -14 5 -4 6
21 2 66 -55 198 -109 256 -17 18 -30 36 -30 41 0 5 15 25 33 44 91 97 152 320
127 468 -17 101 -32 165 -41 176 -5 7 -8 16 -7 20 2 5 -4 24 -11 43 -13 29
-12 37 1 65 29 57 38 98 38 181 0 77 -22 178 -50 227 -6 10 -10 23 -10 30 0
19 -76 169 -130 257 -27 46 -50 85 -50 87 0 5 -171 258 -201 297 l-21 28 28
-6 c46 -10 185 -56 224 -73 132 -59 457 -252 548 -327 9 -7 55 -44 102 -81 47
-38 87 -70 90 -73 3 -4 61 -58 130 -121 201 -185 291 -283 390 -424 30 -43 69
-94 86 -114 73 -87 204 -305 204 -341 0 -7 -9 -9 -22 -6 -138 31 -151 31 -221
5 -64 -24 -116 -70 -147 -129 -18 -37 -22 -56 -17 -107 4 -53 1 -68 -18 -96
-12 -18 -27 -48 -33 -67 -14 -40 -16 -200 -3 -233 8 -21 18 -55 35 -114 4 -13
-1 -29 -11 -41 -47 -55 -53 -64 -53 -73 0 -6 -3 -10 -8 -10 -7 0 -13 -13 -48
-95 -36 -86 -63 -213 -89 -420 -12 -95 -14 -207 -11 -535 2 -228 0 -356 -3
-285 l-7 130 -3 -95 c-1 -52 -6 -104 -11 -115 -8 -18 -9 -18 -9 -2 -1 10 -5
16 -10 13 -4 -3 -6 -18 -3 -32 3 -17 1 -25 -6 -21 -5 4 -12 1 -15 -7 -8 -20 3
-57 15 -50 5 3 6 -6 1 -23 -4 -15 -7 -36 -7 -45 0 -9 -4 -14 -9 -11 -4 2 -5
-8 -1 -24 6 -27 6 -28 -11 -8 -15 19 -16 19 -11 1 6 -17 5 -17 -10 -5 -16 13
-16 12 -6 -6 6 -11 22 -33 36 -49 15 -16 26 -32 26 -35 -1 -15 -89 96 -90 111
0 10 -3 17 -7 16 -10 -3 -53 34 -53 45 0 5 -14 26 -30 47 l-30 38 -5 188 -4
187 27 36 c15 20 37 47 50 61 12 14 22 28 22 31 0 4 -25 30 -55 60 l-55 53 -2
121 -2 120 -6 -122 -5 -123 -50 -41 c-27 -23 -52 -43 -54 -45 -5 -4 21 -45 71
-111 24 -32 41 -65 44 -90 l4 -38 -15 40 c-17 43 -34 65 -32 44 1 -33 -5 -73
-10 -61 -7 17 -23 15 -23 -3 0 -8 -5 -26 -12 -40 l-12 -26 -18 33 c-13 23 -17
26 -12 9 4 -16 3 -21 -5 -17 -6 4 -11 16 -11 26 0 10 -4 21 -9 24 -13 8 -38
92 -46 153 -4 29 -11 55 -16 59 -5 3 -9 2 -10 -3 -4 -75 -12 -135 -21 -162
l-11 -34 -14 43 c-15 45 -14 177 1 213 6 12 4 17 -7 17 -8 0 -22 -20 -31 -47
-10 -27 -21 -55 -24 -63 -10 -22 -19 241 -9 269 4 14 4 27 -2 30 -5 4 -12 105
-14 231 -6 243 -20 436 -32 448 -4 4 -5 -10 -1 -32 4 -21 9 -155 11 -298 4
-250 -1 -321 -11 -187 -7 90 -14 86 -14 -9 0 -70 -3 -83 -19 -92 -11 -5 -21
-10 -23 -10 -2 0 -4 127 -5 281 -3 304 -11 398 -42 499 -22 71 -95 197 -176
306 -27 37 -58 79 -67 93 l-17 26 47 0 c26 -1 58 -6 71 -11 40 -17 96 7 132
57 l22 31 -29 -16 c-16 -9 -44 -28 -63 -41 -19 -14 -41 -25 -50 -25 -9 0 5 12
32 27 26 14 47 30 47 35 0 11 -18 10 -25 -2 -3 -6 -21 -17 -38 -26 l-32 -15
24 19 c13 11 21 24 17 30 -8 14 -55 12 -76 -2 -8 -6 -6 -1 4 12 23 26 9 29
-37 7 -30 -15 -31 -15 -9 1 25 19 30 36 6 27 -10 -3 -2 14 20 44 52 73 83 148
96 234 9 64 8 87 -6 145 -9 38 -28 90 -41 116 -12 26 -23 49 -23 52 0 2 26 4
58 3 55 -2 59 0 100 40 23 23 42 51 42 62 0 11 3 28 6 38 3 10 -2 7 -10 -7 -8
-14 -15 -20 -16 -15 0 6 -9 -3 -21 -20 -15 -23 -19 -25 -17 -10 2 16 -2 20
-27 19 -16 0 -34 5 -38 12 -5 9 -15 11 -31 4 -23 -8 -23 -8 -28 83 -11 193
-118 430 -342 756 -47 69 -84 126 -82 129 2 2 20 -14 40 -35 40 -42 39 -18 -1
30 -13 16 -23 34 -23 42 0 7 -8 19 -17 26 -16 13 -17 12 -4 -3 19 -26 8 -22
-15 4 -10 12 -13 18 -6 14 15 -9 16 6 0 22 -6 6 -9 14 -6 17 3 3 12 0 19 -8
20 -19 66 -30 71 -16 3 8 10 8 25 -2 49 -30 33 5 -28 62 -46 42 -96 75 -176
115 -62 31 -113 58 -113 59 0 2 64 4 143 4 103 1 170 -5 247 -19z m527 -3347
c-3 -10 -5 -4 -5 12 0 17 2 24 5 18 2 -7 2 -21 0 -30z m-65 -60 c-2 -29 -10
-53 -20 -60 -9 -8 -11 -13 -4 -13 7 0 12 -12 11 -27 -1 -16 -1 -32 1 -38 8
-30 -2 -52 -27 -61 -24 -8 -25 -11 -10 -17 11 -4 16 -3 12 3 -3 6 -1 10 5 10
8 0 9 -7 5 -17 -4 -10 -8 -24 -8 -31 0 -9 -8 -11 -21 -8 -12 3 -24 6 -28 6
-15 0 -8 79 13 146 24 76 58 154 68 154 3 0 5 -21 3 -47z m97 -125 c-1 -88 -2
-91 -11 -45 -9 42 -4 137 8 137 2 0 3 -42 3 -92z m-29 0 c-1 -46 1 -94 5 -108
3 -14 7 -40 9 -57 3 -29 0 -33 -23 -34 l-26 -1 25 -7 c22 -7 21 -8 -18 -15
-63 -12 -69 -2 -48 91 15 71 64 213 73 213 2 0 3 -37 3 -82z m426 -55 c57 -55
58 -59 33 -95 -13 -18 -35 -45 -48 -61 -23 -26 -25 -26 -41 -10 -24 27 -80
111 -79 120 0 12 79 73 94 73 7 0 26 -12 41 -27z m-571 -93 c41 -15 45 -19 23
-20 -31 0 -78 19 -78 32 0 10 -3 11 55 -12z m228 -43 c3 -34 0 -52 -10 -62
-13 -13 -12 -15 4 -16 16 0 16 -1 -2 -9 -18 -8 -18 -9 5 -10 21 -2 22 -3 5 -8
l-20 -5 20 -8 c14 -6 10 -7 -13 -3 -19 3 -39 1 -47 -6 -27 -22 -18 40 17 117
18 40 34 70 35 65 1 -4 3 -29 6 -55z m-193 -7 c0 -5 -6 -7 -14 -4 -11 4 -13
-2 -10 -23 14 -105 16 -155 5 -149 -20 13 -42 66 -36 86 3 11 6 38 7 60 0 35
3 40 24 40 13 0 24 -4 24 -10z m305 -97 c-2 -7 0 -13 5 -13 14 0 12 -27 -2
-33 -8 -3 -6 -6 5 -6 9 -1 17 -5 17 -11 0 -5 -8 -10 -17 -10 -16 -1 -17 -2 -2
-13 15 -11 15 -14 1 -26 -13 -13 -18 -12 -41 0 -32 18 -33 54 -6 147 l19 64
13 -44 c7 -23 11 -49 8 -55z m-232 53 c25 0 37 -4 37 -14 0 -11 -11 -12 -52
-7 -59 8 -68 12 -68 26 0 6 9 7 23 2 12 -4 39 -8 60 -7z m-4 -42 c28 -6 45
-34 20 -34 -5 0 -7 -4 -4 -10 3 -5 -2 -10 -12 -10 -10 0 -14 -4 -8 -8 17 -12
36 -52 29 -63 -3 -6 -6 -26 -6 -45 0 -42 -4 -41 -49 11 -33 38 -35 43 -31 103
4 66 5 67 61 56z m391 -51 c-11 -17 -11 -17 -6 0 3 10 7 28 7 40 2 22 2 22 6
0 2 -12 -1 -30 -7 -40z m-279 -8 c0 -5 -5 -11 -13 -13 -10 -3 -10 -1 1 6 11 8
10 11 -5 15 -16 5 -16 6 -1 4 10 -1 18 -6 18 -12z m12 -45 c11 0 15 -5 11 -11
-9 -15 -62 -3 -86 18 -29 26 -21 32 19 12 21 -10 46 -19 56 -19z m-219 -16 c3
-8 2 -12 -4 -9 -6 3 -10 10 -10 16 0 14 7 11 14 -7z m410 -31 c9 -18 14 -33
12 -33 -6 0 -36 55 -36 66 0 11 5 3 24 -33z m-187 12 c13 3 23 1 23 -5 0 -5
-6 -10 -12 -10 -10 0 -10 -2 0 -8 9 -6 11 -26 9 -63 -3 -30 0 -65 5 -78 14
-37 3 -36 -46 4 -26 21 -46 33 -46 29 1 -5 21 -25 46 -44 57 -45 87 -89 114
-170 12 -35 33 -83 46 -106 31 -52 98 -119 135 -135 34 -14 35 -19 9 -42 -23
-19 -26 -46 -7 -67 6 -8 -1 -4 -17 10 l-30 25 17 -26 c16 -26 15 -27 -5 -21
-18 4 -19 3 -8 -18 7 -12 8 -20 3 -17 -5 3 -21 8 -34 10 -38 7 -119 48 -120
61 -1 6 0 19 1 29 3 35 -22 122 -47 160 -28 44 -106 97 -142 97 -15 0 -32 4
-40 9 -11 7 -10 11 7 20 26 14 100 -11 124 -42 l18 -22 0 28 c0 15 -11 45 -25
67 -14 22 -25 42 -25 45 0 11 -62 84 -76 89 -15 6 -14 -27 1 -41 4 -5 5 -1 0
7 -5 8 -6 13 -2 10 3 -3 6 -9 7 -15 1 -5 7 -17 13 -25 11 -13 10 -13 -6 -1 -9
8 -20 11 -23 9 -3 -3 8 -16 23 -28 19 -16 22 -21 8 -16 -18 6 -17 5 3 -17 l23
-25 -28 1 c-15 0 -40 -3 -54 -7 -21 -6 -29 -3 -42 17 -9 14 -28 37 -42 53 -15
16 -25 39 -26 58 -2 92 3 192 10 199 5 5 21 -13 36 -39 36 -61 94 -125 157
-170 46 -34 57 -52 61 -101 0 -13 5 -23 10 -23 6 0 7 19 3 43 -5 31 -15 50
-40 72 -19 17 -49 44 -68 60 -54 48 -107 115 -105 135 1 10 5 16 9 14 5 -3 6
-9 3 -14 -6 -10 20 -32 28 -23 8 7 38 -17 33 -26 -3 -4 4 -8 15 -8 11 -1 19 4
18 10 -2 11 6 49 16 84 3 10 11 10 32 2 15 -5 38 -8 50 -4z m112 -11 c5 4 12
2 16 -4 11 -18 -42 -10 -66 10 l-24 20 32 -16 c18 -8 37 -13 42 -10z m19 -93
c3 -43 0 -57 -16 -72 -11 -10 -23 -32 -27 -50 l-7 -31 -20 20 c-18 18 -21 32
-19 108 1 48 4 91 7 95 2 4 21 2 42 -5 36 -13 37 -15 40 -65z m-421 -66 c9
-25 -4 -29 -17 -6 -7 15 -7 21 0 21 6 0 13 -7 17 -15z m471 -21 c-13 -8 -32
-13 -43 -14 -17 0 -16 4 10 24 22 18 33 21 43 13 11 -8 9 -13 -10 -23z m87 15
c-4 -5 -1 -10 4 -10 6 -1 15 -2 21 -3 5 0 26 -25 46 -54 20 -30 42 -61 49 -70
139 -176 237 -272 352 -349 213 -140 363 -132 463 27 12 19 20 26 17 15 -2
-11 -6 -24 -7 -30 -1 -5 -2 -20 -1 -33 1 -19 3 -21 14 -10 7 7 18 22 25 33 8
15 12 16 12 5 1 -10 4 -9 11 5 7 16 8 14 3 -10 -3 -16 -10 -34 -16 -40 -8 -7
-8 -6 -3 4 5 9 4 12 -3 7 -7 -4 -12 -13 -12 -20 0 -22 -53 -64 -123 -97 -63
-29 -73 -31 -141 -24 -89 8 -209 59 -330 139 -84 56 -242 214 -313 313 -33 46
-107 183 -99 183 2 0 16 -19 32 -42 45 -67 98 -135 92 -118 -3 8 -31 53 -62
99 -49 74 -64 113 -35 95 5 -3 7 -10 4 -15z m-45 -49 c0 -12 -50 -33 -58 -26
-3 3 1 12 8 21 14 17 50 20 50 5z m327 -37 c-3 -10 -5 -4 -5 12 0 17 2 24 5
18 2 -7 2 -21 0 -30z m-337 -13 c0 -5 -7 -10 -15 -10 -8 0 -15 5 -15 10 0 6 7
10 15 10 8 0 15 -4 15 -10z m58 -35 c11 -25 10 -27 -34 -45 -25 -11 -50 -18
-54 -15 -5 3 -11 1 -15 -5 -3 -5 -11 -10 -17 -10 -6 0 6 16 26 35 21 19 42 35
47 35 6 0 8 4 5 9 -5 8 7 18 25 20 3 1 11 -10 17 -24z m-437 -94 c6 -14 8 -14
14 1 6 16 10 16 58 -2 57 -22 70 -32 72 -57 1 -14 -7 -19 -32 -21 -42 -3 -71
12 -83 41 -7 18 -9 19 -9 4 -2 -49 101 -176 192 -236 110 -74 222 -111 337
-111 56 0 86 5 115 20 51 26 53 25 24 -6 -45 -49 -75 -58 -189 -56 -88 1 -120
6 -197 31 -114 38 -175 71 -231 125 -23 22 -49 41 -58 41 -25 0 -91 73 -97
108 -3 18 -9 41 -13 52 -6 17 -4 17 20 -5 l28 -25 -23 39 c-13 22 -24 60 -26
84 l-2 45 25 -24 26 -24 -16 40 -17 40 38 -44 c21 -25 41 -51 44 -60z m716 67
c-3 -8 -6 -5 -6 6 -1 11 2 17 5 13 3 -3 4 -12 1 -19z m-269 -40 c-3 -7 -11
-13 -18 -13 -7 0 -15 6 -17 13 -3 7 4 12 17 12 13 0 20 -5 18 -12z m73 -50
c13 -18 28 -36 33 -40 6 -4 8 -9 6 -11 -12 -11 -85 -37 -104 -37 -12 0 -27 -5
-34 -12 -9 -9 -16 -8 -29 5 -15 15 -14 19 22 51 21 20 36 38 32 42 -8 8 -29
-5 -23 -15 3 -3 -4 -7 -14 -7 -26 0 -6 24 35 42 44 19 51 17 76 -18z m1049
-24 c0 -8 4 -13 9 -9 5 3 12 1 16 -5 3 -5 1 -10 -4 -10 -6 0 -11 -8 -11 -17 0
-14 2 -15 9 -4 11 17 16 0 26 -76 l7 -53 -30 6 c-22 4 -31 2 -36 -11 -11 -29
3 -55 30 -55 32 0 31 -14 -11 -96 -63 -127 -147 -190 -311 -234 -87 -24 -179
-22 -257 6 -23 8 -64 20 -92 25 -46 9 -69 19 -180 79 -52 27 -91 57 -85 64 3
2 33 -13 67 -35 34 -21 66 -39 70 -39 4 0 -20 19 -55 42 -44 29 -60 44 -52 52
7 7 15 4 26 -12 19 -27 70 -56 104 -59 14 -1 70 -18 125 -37 84 -30 114 -36
184 -36 47 0 101 5 120 11 75 23 183 81 226 120 52 48 70 93 61 158 -4 32 -1
55 9 75 19 35 19 55 0 80 -20 26 -19 56 3 72 23 18 32 17 32 -2z m-1000 -105
c0 -5 -5 -9 -11 -9 -5 0 -7 -4 -4 -10 12 -19 -7 -10 -26 13 -22 26 -24 43 -6
50 12 5 47 -28 47 -44z m-675 9 c14 -6 25 -15 25 -19 0 -14 70 -76 144 -128
130 -90 304 -149 445 -153 l76 -2 -75 -6 -75 -6 60 -4 60 -3 -45 -7 c-28 -5
-13 -6 39 -3 97 6 102 -6 13 -33 -87 -26 -221 -23 -302 5 -90 31 -171 83 -252
159 -85 81 -170 192 -125 166 7 -5 7 -1 -3 12 -22 29 -24 30 -16 10 6 -16 4
-17 -9 -6 -13 11 -13 15 -3 21 16 11 13 11 43 -3z m971 -59 c11 -19 -29 7 -51
32 l-20 23 32 -23 c18 -12 35 -27 39 -32z m-256 -91 l40 -46 -32 -11 c-17 -6
-39 -11 -48 -11 -21 0 -49 30 -55 58 -2 11 -11 35 -20 54 l-16 33 23 -27 c17
-20 26 -23 34 -14 12 13 8 36 -7 36 -4 0 -6 -8 -2 -17 5 -17 5 -17 -12 -1 -15
14 -15 18 -4 32 15 17 9 23 99 -86z m23 81 c-14 -14 22 -47 58 -54 35 -7 36
-15 5 -41 -27 -24 -29 -24 -48 -7 -21 19 -78 97 -78 107 0 3 17 6 37 6 28 0
34 -3 26 -11z m967 -34 c0 -19 -13 -25 -30 -15 -11 7 -11 11 -1 24 15 17 31
13 31 -9z m-1559 -2 c13 -16 12 -17 -3 -4 -10 7 -18 15 -18 17 0 8 8 3 21 -13z
m452 -23 c10 -16 16 -30 13 -30 -2 0 -14 14 -26 30 -12 17 -18 30 -13 30 5 0
17 -13 26 -30z m-48 -78 c-3 -3 -11 0 -18 7 -9 10 -8 11 6 5 10 -3 15 -9 12
-12z m1025 -4 c0 -5 -5 -19 -11 -30 -9 -17 -13 -18 -20 -7 -4 8 -13 15 -19 15
-5 1 -13 2 -17 3 -3 0 2 10 11 20 17 19 56 18 56 -1z m-550 -13 c17 -9 30 -20
30 -25 0 -6 10 -10 21 -10 21 0 111 -85 101 -95 -3 -3 -13 2 -23 11 -16 15
-17 13 -9 -23 8 -38 8 -38 -8 -13 -9 14 -32 40 -49 59 -18 19 -33 40 -33 48 0
16 -5 16 -29 3 -10 -5 -39 -11 -64 -13 -51 -4 -53 10 -8 50 31 27 34 27 71 8z
m-190 -5 c-8 -5 -19 -10 -25 -10 -5 0 -3 5 5 10 8 5 20 10 25 10 6 0 3 -5 -5
-10z m764 -2 c-12 -22 -37 -48 -44 -48 -4 0 4 13 19 30 28 32 36 37 25 18z
m-64 -62 c0 -5 -6 -3 -14 3 -12 10 -14 8 -10 -11 5 -22 5 -22 -7 -3 -7 11 -18
24 -26 28 -16 10 -17 34 0 40 12 4 56 -39 57 -57z m-640 44 c0 -12 -48 -25
-58 -16 -8 9 18 26 41 26 9 0 17 -4 17 -10z m-717 -29 c16 -16 -6 -14 -23 2
-12 10 -12 9 0 -6 7 -10 19 -16 27 -13 7 3 36 -8 64 -25 119 -74 270 -98 406
-65 32 8 72 17 88 20 l30 6 -28 -15 c-29 -17 -27 -40 3 -32 37 10 8 -22 -33
-37 l-42 -15 45 5 c42 4 43 3 15 -7 -57 -20 -78 -30 -73 -34 3 -3 27 2 54 10
62 19 66 18 29 -2 -40 -23 -197 -28 -340 -13 -188 21 -210 22 -203 15 10 -10
171 -34 231 -35 26 0 47 -4 47 -8 0 -5 -13 -7 -29 -4 -19 3 -30 -1 -34 -12 -4
-9 -2 -16 3 -16 6 0 10 -4 10 -9 0 -5 -27 -12 -60 -15 -33 -3 -86 -9 -119 -12
l-58 -6 -6 44 c-11 82 -11 82 -61 98 -26 9 -47 20 -46 25 0 6 -14 13 -32 16
-18 4 -28 7 -22 8 13 1 78 96 88 127 5 16 13 20 32 18 15 -1 31 -7 37 -13z
m1269 -6 c1 -5 -29 -25 -66 -44 -61 -30 -69 -32 -83 -18 -21 20 -10 47 19 47
13 0 41 7 63 15 43 16 66 16 67 0z m28 -44 c0 -26 -181 -88 -217 -74 -20 8
-16 23 7 23 29 0 163 38 208 59 1 0 2 -3 2 -8z m-371 -41 c15 -23 15 -23 -10
-17 -15 4 -46 15 -70 25 l-44 19 54 -2 c45 -1 57 -6 70 -25z m361 -120 c-18
-22 -42 -45 -53 -52 -22 -11 -22 -11 -3 11 26 29 11 27 -22 -4 -33 -31 -61
-40 -75 -26 -6 6 -9 12 -6 13 2 2 32 22 66 46 62 42 90 53 77 30 -4 -7 2 -5
12 5 34 31 36 18 4 -23z m-454 -1 c5 -8 30 -9 80 -5 92 9 99 -8 9 -23 -64 -11
-115 -7 -115 10 0 5 -7 9 -15 9 -8 0 -15 5 -15 10 0 14 47 13 56 -1z m219 -19
c-3 -5 -16 -10 -28 -10 -18 0 -19 2 -7 10 20 13 43 13 35 0z m-640 -100 c60
-7 60 -7 15 -10 -25 -1 -54 -4 -65 -5 -131 -17 -230 -25 -305 -25 -82 0 -91 2
-88 18 3 14 16 18 68 20 36 1 74 4 85 6 37 6 230 4 290 -4z m-229 -89 c-35
-39 -13 -40 32 -2 50 43 62 48 62 30 0 -5 -4 -8 -8 -5 -5 3 -9 -1 -9 -9 0 -22
18 -18 24 5 7 26 18 25 29 -1 8 -17 -1 -31 -56 -87 -36 -37 -92 -97 -125 -133
-52 -59 -61 -65 -72 -50 -7 9 -13 30 -13 46 0 21 -3 26 -9 16 -6 -9 -10 -4
-13 18 -4 31 6 43 15 19 3 -7 6 -1 6 15 1 20 21 48 73 102 40 42 74 71 76 65
2 -6 -3 -19 -12 -29z m240 -90 c3 -36 10 -84 15 -106 12 -57 12 -158 -2 -150
-6 5 -9 -9 -8 -39 2 -25 0 -49 -4 -52 -4 -4 -7 6 -7 22 0 16 -10 40 -21 54
l-21 25 6 -50 c4 -38 3 -46 -5 -32 -7 11 -11 79 -10 170 0 94 -4 176 -13 214
-7 35 -10 60 -5 57 5 -3 9 -12 9 -20 0 -8 4 -12 10 -9 6 3 7 -1 4 -10 -4 -8
-2 -21 4 -28 6 -7 13 -30 15 -52 2 -22 3 1 1 50 -4 88 -3 89 11 56 9 -19 18
-64 21 -100z m-327 87 c0 -32 -1 -32 -11 -10 l-12 23 -12 -23 c-9 -15 -14 -18
-15 -8 0 8 -5 4 -9 -10 -7 -23 -8 -22 -9 11 -1 43 4 49 41 49 25 0 28 -3 27
-32z m251 -158 c0 -5 -4 -10 -10 -10 -5 0 -10 5 -10 10 0 6 5 10 10 10 6 0 10
-4 10 -10z m-58 -53 c-12 -13 -22 -27 -22 -32 0 -5 8 0 19 11 10 10 28 27 40
36 21 17 21 17 21 -11 0 -21 -9 -36 -37 -57 -21 -16 -58 -47 -82 -69 -39 -35
-44 -37 -38 -17 5 22 4 22 -11 9 -32 -27 -45 -31 -34 -11 25 46 83 103 99 97
11 -5 14 -3 9 6 -8 13 43 76 52 66 3 -3 -4 -15 -16 -28z m-92 -48 c0 -3 -14
-18 -30 -34 -29 -27 -31 -28 -47 -12 -10 10 -13 17 -5 17 6 0 9 6 6 14 -3 8 2
23 12 34 16 19 18 20 40 4 13 -9 24 -20 24 -23z m-126 -55 c3 -8 2 -12 -4 -9
-6 3 -10 10 -10 16 0 14 7 11 14 -7z m23 -91 c2 3 -1 16 -7 29 -7 12 22 -13
64 -57 42 -44 76 -83 76 -86 0 -3 -9 -14 -21 -25 -21 -19 -21 -19 -51 16 -36
43 -98 147 -98 163 1 7 8 -1 16 -16 9 -16 18 -27 21 -24z m200 10 c21 -24 30
-30 23 -15 -6 12 -15 22 -20 22 -6 0 -10 7 -10 17 0 14 2 14 20 -2 36 -33 93
-127 96 -159 1 -17 7 -60 12 -96 5 -36 6 -72 2 -80 -4 -8 -7 -29 -6 -47 0 -17
-2 -29 -6 -26 -5 2 -8 45 -8 96 0 79 -2 88 -14 72 -12 -17 -15 -14 -30 31 -9
27 -39 77 -66 111 -50 62 -61 81 -37 66 6 -4 4 5 -6 20 -16 25 -16 27 -1 27 9
0 32 -17 51 -37z m-194 -85 c27 -32 26 -144 -1 -165 -15 -12 -15 -12 3 -6 18
6 19 5 6 -11 -14 -16 -16 -15 -32 16 -22 40 -27 238 -6 205 7 -10 20 -28 30
-39z m317 11 c0 -6 -4 -7 -10 -4 -5 3 -10 11 -10 16 0 6 5 7 10 4 6 -3 10 -11
10 -16z m-216 -205 c-60 -86 -65 -97 -51 -112 31 -36 67 -101 52 -96 -21 8
-19 -13 3 -25 15 -9 15 -10 1 -11 -9 0 -32 20 -50 45 -19 24 -38 45 -44 45
-15 0 -55 -97 -55 -136 0 -19 11 -52 25 -74 30 -47 25 -82 -7 -53 -11 10 -23
18 -27 18 -3 0 -5 9 -3 20 1 14 0 16 -6 7 -11 -17 -24 -1 -41 47 -22 66 -14
113 30 182 71 112 84 129 94 129 5 0 27 17 49 38 22 20 34 29 27 19 -8 -9 -12
-20 -9 -23 3 -3 20 13 38 36 56 70 43 43 -26 -56z m119 7 c69 -110 77 -140 75
-264 -1 -87 -3 -101 -8 -62 l-7 50 -1 -44 c-3 -72 -22 -35 -26 50 -4 69 -31
170 -70 261 -15 35 -15 37 1 31 15 -5 16 -3 6 8 -12 12 -17 29 -9 29 2 0 19
-26 39 -59z m64 -43 c-2 -13 -4 -5 -4 17 -1 22 1 32 4 23 2 -10 2 -28 0 -40z
m-307 -9 c-7 -11 -14 -18 -17 -15 -8 8 5 36 17 36 7 0 7 -6 0 -21z m357 -71
c-3 -8 -6 -5 -6 6 -1 11 2 17 5 13 3 -3 4 -12 1 -19z m-141 -66 c-17 -16 -18
-16 -5 5 7 12 15 20 18 17 3 -2 -3 -12 -13 -22z m19 -139 c-9 -10 -35 -43 -58
-73 -66 -87 -121 -139 -145 -137 -26 2 -26 1 -9 47 36 99 177 312 177 268 0
-7 10 -2 23 10 l22 23 3 -60 c2 -45 -1 -65 -13 -78z m125 7 c0 -10 -5 -22 -10
-25 -7 -4 -8 -24 -5 -50 8 -50 -6 -66 -29 -33 -13 18 -13 23 -2 32 8 6 17 32
21 59 6 45 25 58 25 17z m-107 -70 c10 -16 36 -44 58 -62 21 -17 37 -33 35
-35 -2 -3 -23 5 -47 16 -59 29 -68 26 -33 -10 l29 -32 -32 19 c-23 13 -36 15
-44 7 -7 -7 -1 -16 23 -31 18 -12 29 -22 23 -22 -5 0 -23 9 -40 20 -39 26 -53
26 -30 0 29 -32 2 -23 -29 9 l-28 29 41 61 c23 34 45 61 49 61 4 0 16 -13 25
-30z m34 -2 c-3 -8 -6 -5 -6 6 -1 11 2 17 5 13 3 -3 4 -12 1 -19z m-201 -178
c6 -6 21 -6 40 -1 19 5 67 4 125 -3 92 -12 123 -28 64 -34 -39 -4 -58 -22 -24
-23 22 0 22 -1 4 -8 -30 -11 -155 -1 -130 10 15 7 13 8 -10 3 -16 -3 -69 -8
-117 -11 l-88 -5 0 35 c0 18 3 37 7 40 10 11 118 8 129 -3z m24 -102 c0 -5 5
-6 10 -3 6 3 10 -1 10 -9 0 -9 -4 -16 -10 -16 -5 0 -10 -17 -9 -37 0 -45 16
-128 18 -96 1 15 6 21 15 17 8 -3 16 3 19 15 6 23 -18 30 -26 9 -3 -7 -4 10
-3 37 1 28 9 61 17 73 13 22 19 23 73 18 32 -3 76 -6 96 -6 37 0 38 -1 49 -47
6 -27 26 -92 43 -146 l31 -98 -44 -47 c-63 -66 -70 -76 -89 -135 -21 -63 -33
-68 -203 -65 l-117 1 -6 26 c-10 39 -74 162 -100 191 l-23 26 24 61 c28 69 45
146 45 204 l0 38 53 3 c70 4 127 -2 127 -14z"/>
<path d="M5059 5732 c-2 -24 -2 -75 0 -115 l5 -72 6 70 c3 39 3 90 0 115 l-6
45 -5 -43z"/>
<path d="M4970 5734 c0 -16 4 -36 9 -44 7 -9 9 -2 7 23 -4 46 -16 62 -16 21z"/>
<path d="M5161 5733 c-1 -21 -7 -33 -18 -36 -17 -4 -17 -5 0 -6 21 -1 30 18
24 51 -3 18 -5 16 -6 -9z"/>
<path d="M4892 5488 c-5 -7 -19 -29 -30 -49 -15 -28 -17 -39 -8 -51 10 -14 12
-11 12 18 0 20 5 38 11 42 11 7 37 52 30 52 -3 0 -9 -6 -15 -12z"/>
<path d="M5084 5290 c0 -85 2 -120 3 -77 2 42 2 112 0 155 -1 42 -3 7 -3 -78z"/>
<path d="M4913 5345 c-7 -8 -9 -16 -4 -19 5 -3 12 1 15 10 8 22 4 25 -11 9z"/>
<path d="M4922 4969 l-2 -216 -25 -23 c-14 -13 -25 -27 -25 -31 0 -4 16 -24
35 -43 l35 -36 0 -130 0 -129 -32 -38 c-18 -21 -36 -39 -40 -41 -18 -8 -5 -30
40 -74 l47 -47 43 50 c23 28 42 57 42 64 0 7 -20 29 -45 49 l-45 37 0 148 c0
134 2 149 20 169 28 30 55 28 99 -7 l37 -29 32 32 c18 18 32 39 32 45 0 7 -13
29 -30 49 -27 35 -29 44 -33 137 l-3 100 -2 -106 c-2 -105 -2 -105 -37 -143
-40 -44 -76 -50 -108 -17 -21 20 -22 34 -27 234 l-6 212 -2 -216z m216 -214
c28 -32 27 -36 -2 -64 -26 -24 -54 -23 -76 4 -10 12 -7 22 14 50 15 19 30 35
35 35 4 0 17 -11 29 -25z m-187 -25 c23 -13 24 -29 5 -55 -13 -18 -17 -18 -40
-6 -30 17 -32 28 -9 53 19 21 19 21 44 8z m42 -425 l39 -34 -39 -42 -39 -42
-37 33 c-20 18 -37 37 -37 43 0 11 60 77 69 77 4 -1 23 -16 44 -35z"/>
<path d="M4563 4775 c0 -38 2 -53 4 -32 2 20 2 52 0 70 -2 17 -4 1 -4 -38z"/>
<path d="M4540 4320 c0 -29 3 -51 6 -47 8 7 7 87 0 95 -3 3 -6 -19 -6 -48z"/>
<path d="M4951 4114 c0 -11 3 -14 6 -6 3 7 2 16 -1 19 -3 4 -6 -2 -5 -13z"/>
<path d="M5420 4096 c0 -2 8 -10 18 -17 15 -13 16 -12 3 4 -13 16 -21 21 -21
13z"/>
<path d="M4783 3755 c0 -22 2 -30 4 -17 2 12 2 30 0 40 -3 9 -5 -1 -4 -23z"/>
<path d="M4792 3665 c0 -16 2 -22 5 -12 2 9 2 23 0 30 -3 6 -5 -1 -5 -18z"/>
<path d="M4862 3518 c-1 -26 1 -30 9 -15 6 10 6 23 1 33 -7 12 -9 8 -10 -18z"/>
<path d="M5231 3524 c0 -11 3 -14 6 -6 3 7 2 16 -1 19 -3 4 -6 -2 -5 -13z"/>
<path d="M5171 3144 c0 -11 3 -14 6 -6 3 7 2 16 -1 19 -3 4 -6 -2 -5 -13z"/>
<path d="M5363 3133 c9 -2 25 -2 35 0 9 3 1 5 -18 5 -19 0 -27 -2 -17 -5z"/>
<path d="M5130 3113 c0 -13 5 -23 10 -23 13 0 13 11 0 30 -8 12 -10 11 -10 -7z"/>
<path d="M4561 3724 c0 -11 3 -14 6 -6 3 7 2 16 -1 19 -3 4 -6 -2 -5 -13z"/>
<path d="M4455 3142 c-2 -7 -1 -10 4 -7 5 3 13 0 16 -6 4 -5 13 -8 20 -5 8 3
19 -2 25 -9 7 -8 16 -12 22 -9 5 4 5 11 -1 18 -6 7 -8 15 -5 18 3 3 0 9 -7 14
-8 4 -10 3 -5 -4 4 -7 3 -12 -3 -12 -5 0 -12 4 -16 9 -8 14 -44 9 -50 -7z"/>
<path d="M4946 3218 c3 -5 10 -6 15 -3 13 9 11 12 -6 12 -8 0 -12 -4 -9 -9z"/>
<path d="M5324 2515 c11 -8 24 -15 30 -15 5 0 1 7 -10 15 -10 8 -23 14 -29 14
-5 0 -1 -6 9 -14z"/>
<path d="M4888 2573 c6 -2 18 -2 25 0 6 3 1 5 -13 5 -14 0 -19 -2 -12 -5z"/>
<path d="M4928 2543 c7 -3 16 -2 19 1 4 3 -2 6 -13 5 -11 0 -14 -3 -6 -6z"/>
<path d="M4527 2549 c7 -7 15 -10 18 -7 3 3 -2 9 -12 12 -14 6 -15 5 -6 -5z"/>
<path d="M4529 2435 c29 -9 57 -11 85 -5 44 8 37 10 -64 15 l-65 3 44 -13z"/>
<path d="M4607 1167 c-3 -8 1 -14 8 -14 7 0 11 6 8 14 -3 7 -6 13 -8 13 -2 0
-5 -6 -8 -13z"/>
<path d="M4982 1100 c0 -14 2 -19 5 -12 2 6 2 18 0 25 -3 6 -5 1 -5 -13z"/>
<path d="M4610 750 c-13 -23 -13 -63 -1 -55 9 5 13 -4 25 -56 8 -37 44 -79 67
-79 21 0 39 -35 39 -74 0 -12 -13 -38 -30 -56 l-30 -34 0 38 c0 20 7 50 15 66
17 33 17 34 -73 44 -55 6 -57 9 -43 45 7 16 11 40 8 53 -3 18 -5 16 -6 -9 0
-17 -5 -34 -10 -37 -18 -12 -19 -56 0 -66 19 -11 60 -64 63 -83 1 -7 13 -38
26 -70 24 -59 25 -59 60 -53 19 3 65 6 103 6 49 0 67 4 67 13 0 18 77 146 107
178 24 26 24 26 7 75 -9 27 -27 71 -41 97 -19 39 -27 46 -38 37 -21 -17 -105
-156 -105 -173 0 -32 -25 -72 -47 -75 -18 -3 -23 2 -23 21 0 60 -85 249 -117
261 -7 3 -17 -3 -23 -14z m350 -73 c0 -1 9 -27 20 -56 11 -30 17 -57 14 -60
-3 -3 -36 -10 -72 -16 -74 -11 -72 -8 -56 -90 l7 -40 -27 33 c-23 27 -27 38
-22 67 5 22 13 35 22 35 25 0 83 65 90 99 4 17 10 31 15 31 5 0 9 -1 9 -3z"/>
<path d="M4783 545 c0 -22 2 -30 4 -17 2 12 2 30 0 40 -3 9 -5 -1 -4 -23z"/>
<path d="M4621 404 c0 -11 3 -14 6 -6 3 7 2 16 -1 19 -3 4 -6 -2 -5 -13z"/>
<path d="M4631 373 c0 -4 4 -17 9 -28 8 -19 9 -19 9 2 1 12 -3 25 -9 28 -5 3
-10 3 -9 -2z"/>
</g>
</svg>
