<?xml version="1.0" encoding="UTF-8" standalone="no"?>
<!-- Created with Inkscape (http://www.inkscape.org/) -->

<svg
   width="12in"
   height="12in"
   viewBox="0 0 304.8 304.80001"
   version="1.1"
   id="svg5"
   xmlns="http://www.w3.org/2000/svg"
   xmlns:svg="http://www.w3.org/2000/svg">
  <defs
     id="defs2" />
  <g
     id="layer1">
    <path
       style="fill:#010101;stroke:none;stroke-width:0.0855855"
       d="m 133.99987,119.64187 c -1.77933,-1.35054 -3.29933,-3.21375 -4.87838,-4.7928 l -9.24323,-9.24323 C 110.80705,96.53463 101.64854,87.547296 92.576474,78.475233 89.052926,74.95125 85.487437,71.4716 81.963878,67.948216 l -3.252246,-3.252249 c -0.457542,-0.45754 -0.956681,-1.160625 -1.540539,-1.452558 -0.8467,-0.423305 -2.566119,-0.08379 -3.509012,-0.08807 -2.841183,-0.01284 -5.716593,0.0031 -8.558544,-0.08858 -8.181041,-0.263946 -16.377043,-0.169544 -24.563047,-0.254017 -2.567222,-0.02644 -5.132816,-0.08525 -7.702696,-0.08525 -1.015472,0 -2.271355,-0.289879 -3.252246,0 v 0.08559 c 1.155485,0.880333 2.140318,2.054737 3.166667,3.081078 l 5.648644,5.648643 c 5.63435,5.63435 11.31063,11.225053 16.94593,16.860345 16.532461,16.532542 33.191765,32.935012 49.725181,49.468412 6.65769,6.6577 13.23494,13.45233 20.06637,19.93201 2.14563,2.03437 4.2031,4.16631 6.29396,6.25716 0.71721,0.71721 2.16275,1.69459 2.51621,2.65315 0.27559,0.74802 0.0514,1.94365 0.0514,2.73873 v 6.33334 21.39637 72.49093 25.50447 6.41891 c 0,0.47672 -0.23965,1.87946 0.0881,2.23978 0.26531,0.29184 1.65522,0.0711 2.05149,0.0711 h 6.24773 16.51801 5.13513 c 0.91319,0 1.93337,-0.12666 2.82432,0.0856 l 0.0856,-3.25225 -0.0856,-7.1036 v -22.59457 -71.72065 c 13.90764,13.90764 27.94538,27.68862 41.85131,41.59456 l 11.98197,11.98196 c 1.12716,1.12716 2.29626,2.21068 3.42342,3.33784 0.45531,0.45532 1.00991,1.26153 1.62612,1.48919 1.00991,0.37229 2.68824,0.0514 3.76577,0.0514 2.76869,0 5.53139,0.0856 8.30179,0.0856 7.66932,0 15.3489,0.25675 23.02251,0.25675 2.65657,0 5.30373,0.0856 7.95945,0.0856 1.38392,0 3.01689,-0.23535 4.36486,0.0856 -0.38343,-0.82333 -1.33086,-1.50202 -1.96847,-2.13964 l -4.36486,-4.36486 c -5.00676,-5.00675 -10.0563,-9.97071 -15.06305,-14.97746 -12.64954,-12.64953 -25.28966,-25.32817 -38.08555,-37.82964 -4.38455,-4.28442 -8.58765,-8.75883 -13.009,-13.00472 -6.07315,-5.83351 -11.76715,-12.09752 -17.95156,-17.81549 -1.59959,-1.47806 -3.10332,-3.07165 -4.64301,-4.61134 -0.3218,-0.3218 -1.46009,-1.13315 -1.40103,-1.62612 0.0642,-0.53748 0.96027,-1.17253 1.31202,-1.54054 1.2136,-1.26924 2.38099,-2.58212 3.59459,-3.85135 4.61905,-4.83045 9.08234,-9.79269 13.78269,-14.54954 12.39107,-12.54084 24.34566,-25.52331 36.80176,-37.99996 3.96262,-3.96946 7.76005,-8.102378 11.72523,-12.067555 1.45152,-1.451531 2.94584,-2.910763 4.30408,-4.450447 0.46645,-0.528918 1.12888,-0.98081 1.43014,-1.626124 -2.36044,-2.041814 -4.41279,-4.528415 -6.59094,-6.761255 C 238.03246,73.947069 233.00517,68.845488 228.0549,63.669106 214.43397,49.424854 200.43047,35.548704 186.80954,21.304281 182.82211,17.13447 178.72941,13.064708 174.74198,8.894383 172.3473,6.3899627 170.0245,3.5246034 167.3782,1.2899573 166.86812,0.85897436 166.03793,1.0205167 165.40974,1.0205167 h -4.7928 -19.08556 -5.39188 c -0.46816,0 -1.62527,-0.21066067 -2.0027,0.087964 -0.32951,0.2614641 -0.13695,1.4075484 -0.13695,1.7949171 v 5.391886 21.9098892 89.436857 m 32.86484,-69.324262 3.08108,2.995492 5.81981,5.819814 18.14412,18.144126 6.41892,6.418913 1.54054,1.540539 0.43477,0.684684 -0.60594,0.77027 -1.62613,1.626125 -6.59008,6.504498 -17.7162,17.630621 -5.9054,5.9054 -3.08108,2.99549 V 70.943708 56.394173 52.200483 Z"
       id="path2977" />
  </g>
</svg>
