<?xml version="1.0" standalone="no"?>
<!DOCTYPE svg PUBLIC "-//W3C//DTD SVG 20010904//EN"
 "http://www.w3.org/TR/2001/REC-SVG-20010904/DTD/svg10.dtd">
<svg version="1.0" xmlns="http://www.w3.org/2000/svg"
 width="750.000000pt" height="1000.000000pt" viewBox="0 0 750.000000 1000.000000"
 preserveAspectRatio="xMidYMid meet">

<g transform="translate(0.000000,1000.000000) scale(0.100000,-0.100000)"
fill="#000000" stroke="none">
<path d="M3320 8036 c0 -18 16 -29 30 -21 13 8 1 35 -16 35 -8 0 -14 -6 -14
-14z"/>
<path d="M4085 7842 c-3 -21 -2 -58 4 -82 9 -40 7 -51 -15 -98 -24 -51 -25
-56 -22 -272 2 -121 5 -220 7 -220 3 0 15 9 27 21 19 18 30 20 75 14 35 -5 60
-15 76 -31 27 -28 55 -31 73 -9 12 14 15 14 34 -4 21 -20 71 -47 231 -124 108
-53 161 -88 239 -161 32 -31 62 -53 66 -51 4 3 10 -8 14 -23 18 -83 46 -63 46
32 0 95 5 100 123 100 l92 1 6 55 c3 30 11 67 18 81 10 21 10 31 1 49 -6 12
-10 22 -8 23 2 1 13 7 24 14 12 6 32 9 44 6 32 -8 42 15 22 49 -17 30 -27 34
-37 18 -3 -5 -13 -10 -21 -10 -10 0 -14 13 -14 48 -1 127 -1 134 -17 128 -8
-3 -23 -6 -33 -6 -10 0 -23 -12 -30 -30 -7 -16 -17 -30 -22 -30 -5 0 -23 14
-40 30 -18 18 -40 30 -56 30 -18 0 -31 7 -37 22 -7 15 -28 26 -70 38 -76 20
-88 28 -82 51 7 24 -19 47 -35 31 -15 -15 -65 -16 -73 -2 -4 6 3 26 15 45 25
40 14 45 -34 15 l-32 -19 -38 25 c-21 14 -46 24 -56 21 -10 -3 -28 2 -39 10
-13 8 -21 10 -21 3 0 -6 -11 -15 -25 -22 -29 -13 -55 3 -55 33 0 16 -8 19 -44
19 -26 0 -48 6 -56 15 -7 8 -18 15 -25 15 -7 0 -29 13 -50 30 -20 16 -52 32
-71 36 -23 4 -33 11 -31 23 2 21 -24 101 -34 101 -4 0 -10 -17 -14 -38z"/>
<path d="M3555 7860 c-10 -17 12 -37 25 -24 8 8 6 15 -4 23 -10 9 -16 9 -21 1z"/>
<path d="M3180 7835 c0 -8 7 -15 15 -15 8 0 15 7 15 15 0 8 -7 15 -15 15 -8 0
-15 -7 -15 -15z"/>
<path d="M3431 7822 c-40 -20 -38 -38 3 -35 37 2 63 25 44 40 -9 8 -22 6 -47
-5z"/>
<path d="M3883 7794 c-28 -21 -33 -32 -34 -67 0 -23 -4 -51 -9 -62 -7 -17 -9
-15 -9 12 -1 49 -18 83 -40 83 -11 0 -23 -4 -26 -10 -3 -5 -20 -9 -38 -7 -31
2 -32 1 -38 -48 -3 -27 -2 -106 3 -175 12 -178 27 -203 85 -135 64 75 125 136
131 131 11 -12 -17 -49 -110 -145 -54 -55 -98 -106 -98 -113 1 -54 26 -71 66
-44 15 11 31 12 64 5 79 -15 145 -11 171 10 23 19 24 23 24 184 0 91 -3 169
-8 173 -4 4 -22 -7 -40 -24 -33 -32 -57 -41 -57 -22 0 6 8 17 19 26 75 65 71
55 71 159 l0 95 -47 0 c-36 0 -56 -7 -80 -26z"/>
<path d="M3060 7764 c-14 -31 -18 -50 -11 -57 15 -15 34 -3 66 43 24 34 26 43
14 51 -29 18 -47 9 -69 -37z"/>
<path d="M2923 7735 c-3 -9 -3 -18 0 -21 9 -9 27 6 27 22 0 19 -19 18 -27 -1z"/>
<path d="M3628 7703 c-2 -22 -11 -31 -41 -40 -20 -7 -51 -22 -67 -35 -29 -21
-31 -21 -65 -5 -41 19 -100 22 -111 6 -4 -7 1 -16 10 -21 25 -14 19 -26 -15
-33 -24 -6 -34 -3 -41 9 -13 24 -25 20 -37 -14 -7 -22 -16 -30 -33 -30 -13 0
-33 -6 -44 -14 -28 -20 -83 -27 -124 -17 -23 6 -28 9 -13 10 33 2 37 18 8 37
-29 19 -39 14 -40 -23 0 -23 -4 -26 -47 -29 -51 -5 -61 6 -33 36 13 14 14 26
4 71 -6 30 -15 58 -20 63 -5 6 -23 -5 -44 -27 -31 -31 -35 -42 -35 -86 0 -27
5 -53 10 -56 16 -10 12 -35 -5 -35 -9 0 -18 7 -21 15 -4 8 -13 15 -21 15 -10
0 -13 -6 -9 -16 3 -8 2 -12 -4 -9 -5 3 -20 0 -32 -7 -13 -7 -45 -13 -73 -13
l-50 0 -6 -40 c-8 -54 -43 -131 -63 -138 -9 -4 -35 -4 -59 -1 -37 4 -49 0 -96
-33 -30 -21 -56 -43 -58 -50 -5 -15 60 -87 100 -112 18 -10 77 -28 131 -40 55
-11 104 -25 110 -31 20 -20 -6 -23 -77 -11 -39 7 -88 15 -107 17 -31 5 -33 4
-17 -9 9 -8 17 -20 17 -28 0 -7 42 -57 93 -110 50 -54 106 -115 123 -135 38
-46 59 -41 74 18 15 54 25 66 75 90 22 10 63 33 91 51 28 17 65 41 83 52 18
11 53 35 79 52 26 18 63 40 82 48 19 9 44 20 55 25 11 5 38 14 61 20 22 5 49
19 59 30 13 15 30 19 69 19 75 -1 167 23 180 46 6 11 16 23 21 27 11 7 11 407
0 476 -8 48 -22 56 -27 15z"/>
<path d="M3240 7690 c-23 -43 22 -55 58 -17 26 27 20 37 -19 37 -18 0 -32 -7
-39 -20z"/>
<path d="M3090 7635 c-10 -12 -10 -18 0 -30 7 -8 18 -15 25 -15 19 0 36 25 29
44 -8 20 -38 21 -54 1z"/>
<path d="M2277 7152 c-10 -10 -17 -24 -17 -30 0 -6 -13 -20 -29 -31 -25 -18
-30 -30 -36 -84 l-7 -64 -54 -18 c-52 -17 -54 -20 -49 -46 3 -15 1 -30 -4 -34
-6 -3 -11 -19 -11 -34 0 -15 -9 -36 -20 -46 -26 -23 -17 -35 28 -35 35 -1 36
-1 17 -16 -12 -9 -35 -14 -55 -12 -30 3 -35 0 -38 -19 -2 -13 -14 -31 -28 -42
-25 -20 -31 -45 -14 -56 17 -11 11 -30 -12 -40 -17 -8 -24 -20 -26 -50 -2 -22
-9 -43 -15 -47 -6 -4 -8 -11 -3 -15 5 -4 11 -2 13 5 9 25 33 12 33 -18 0 -34
3 -33 -58 -19 -70 17 -127 79 -72 79 11 0 20 5 20 10 0 6 -4 10 -10 10 -14 0
-12 28 3 33 8 3 7 10 -7 26 -17 19 -17 21 -3 21 20 0 22 11 6 27 -8 8 -6 18 6
36 23 36 9 55 -20 27 -26 -24 -45 -20 -45 11 0 10 -4 19 -10 19 -16 0 -12 -60
5 -66 9 -4 13 -13 10 -24 -3 -9 -1 -29 4 -44 9 -22 8 -26 -7 -27 -23 0 -66
-55 -51 -65 7 -4 17 0 24 9 16 22 25 11 19 -23 -4 -19 -1 -29 10 -33 28 -11
17 -27 -19 -27 -45 0 -55 -23 -25 -54 20 -23 21 -26 6 -53 -12 -24 -12 -33 -3
-43 7 -7 -3 -3 -22 10 l-33 23 7 -34 c4 -19 15 -53 25 -76 16 -37 17 -43 3
-63 -21 -30 -12 -109 15 -130 11 -8 41 -31 67 -50 79 -60 110 -88 103 -95 -4
-4 -60 30 -125 76 -112 80 -121 84 -170 84 -43 0 -53 -3 -53 -17 0 -13 14 -18
66 -23 61 -7 65 -9 60 -29 -3 -11 -6 -27 -6 -34 0 -9 -5 -10 -19 -2 -12 6 -22
6 -25 1 -4 -5 -1 -11 5 -13 15 -5 47 -110 54 -178 3 -30 2 -80 -4 -110 -5 -30
-7 -57 -5 -59 5 -6 72 43 123 90 24 22 72 60 107 85 35 25 64 50 64 54 0 5
-12 18 -27 29 -36 29 -22 38 27 16 l39 -18 43 38 c24 21 51 51 61 67 11 15 25
28 31 28 7 0 21 9 31 20 10 11 24 20 31 20 7 0 29 9 48 21 36 21 48 46 61 124
8 46 29 89 84 172 22 34 48 79 57 100 30 69 47 98 81 136 19 21 39 49 45 62
15 33 96 75 131 68 38 -8 35 15 -9 58 -20 18 -42 46 -50 61 -16 30 -57 54
-156 92 -89 33 -156 68 -140 74 7 2 51 -8 98 -23 47 -15 88 -24 92 -21 3 4 2
10 -4 14 -13 9 -128 141 -174 202 -62 80 -66 82 -93 52z"/>
<path d="M5216 7089 c-3 -24 -9 -80 -12 -124 l-6 -81 -100 4 c-119 5 -138 -5
-138 -74 0 -59 18 -93 57 -109 24 -10 33 -20 33 -38 0 -13 8 -35 18 -48 32
-41 89 -152 112 -216 12 -33 35 -73 50 -88 27 -26 28 -30 23 -103 -6 -73 -5
-76 22 -97 l27 -22 -17 -37 c-11 -24 -15 -45 -10 -63 14 -54 5 -155 -17 -191
-17 -28 -19 -36 -7 -43 8 -5 76 -9 151 -9 127 0 164 -7 143 -28 -3 -4 -51 -5
-106 -4 -54 2 -99 0 -99 -5 0 -5 21 -37 46 -72 25 -34 43 -65 40 -68 -3 -3
-35 22 -71 56 -65 60 -92 73 -99 49 -12 -37 -16 -99 -6 -93 13 8 13 2 -2 -30
-9 -19 -9 -28 -1 -33 25 -16 18 -37 -12 -37 -26 0 -31 -6 -46 -44 -12 -34 -14
-52 -6 -78 9 -29 8 -35 -16 -57 -15 -14 -27 -33 -27 -43 0 -10 -11 -42 -25
-71 -14 -30 -25 -62 -25 -71 0 -9 -9 -24 -20 -34 -11 -9 -20 -28 -20 -42 0
-14 -7 -28 -15 -32 -9 -3 -25 -22 -35 -42 -24 -43 -99 -154 -134 -197 -14 -18
-26 -39 -26 -47 0 -19 11 -22 114 -37 89 -13 152 -33 178 -56 18 -17 42 -90
53 -164 12 -79 13 -82 48 -75 42 9 51 19 32 35 -25 21 -17 32 23 28 34 -3 38
-1 46 29 6 20 20 36 37 43 28 12 62 52 73 87 4 13 18 31 32 42 13 10 24 28 24
38 0 11 13 32 30 48 23 22 27 32 19 42 -9 10 -5 13 18 13 42 0 67 31 69 88 3
103 15 144 45 161 22 12 29 24 30 51 3 52 4 58 10 65 4 3 4 25 2 48 -3 35 0
47 21 71 14 16 26 39 26 51 0 31 24 49 55 41 31 -8 34 13 5 32 -48 30 -10 79
65 84 46 3 50 5 53 30 2 14 -6 47 -17 72 -12 25 -21 53 -21 63 0 38 -14 42
-140 49 -69 3 -128 8 -132 11 -25 15 2 23 75 23 49 0 88 5 94 11 17 17 -6 57
-51 92 -20 15 -36 33 -36 38 0 14 62 -24 121 -73 25 -21 53 -38 62 -38 15 0
15 4 1 43 -9 25 -13 57 -9 80 4 29 1 45 -14 66 -24 33 -40 99 -41 159 0 23 -6
53 -14 65 -8 12 -19 53 -25 90 -5 38 -15 74 -21 82 -6 7 -17 35 -25 63 -8 27
-22 55 -30 62 -8 7 -15 18 -15 24 0 6 -14 23 -32 37 -30 25 -31 29 -21 63 14
46 3 88 -25 101 -13 6 -22 19 -22 32 0 13 -11 30 -26 40 -24 16 -45 41 -95
121 -12 17 -26 32 -33 32 -9 0 -11 17 -8 60 5 66 -6 89 -42 91 -17 1 -17 2 -3
6 9 2 17 8 17 13 0 14 -33 22 -116 27 l-82 6 -6 -44z"/>
<path d="M5582 6828 c-7 -7 -12 -16 -12 -20 0 -12 28 -10 36 3 10 17 -10 31
-24 17z"/>
<path d="M1790 6795 c0 -18 24 -30 39 -21 16 10 1 36 -20 36 -10 0 -19 -7 -19
-15z"/>
<path d="M1730 6741 c0 -28 27 -38 48 -18 19 19 16 23 -21 32 -23 6 -27 4 -27
-14z"/>
<path d="M1886 6604 c-3 -9 -6 -27 -6 -40 0 -14 -7 -27 -15 -30 -21 -8 -19
-27 5 -49 18 -16 20 -16 26 -1 3 9 4 27 0 39 -3 14 1 32 9 43 8 10 15 27 15
37 0 21 -26 23 -34 1z"/>
<path d="M1720 6581 c0 -6 5 -13 10 -16 6 -3 10 1 10 9 0 9 -4 16 -10 16 -5 0
-10 -4 -10 -9z"/>
<path d="M5756 6522 c-9 -14 12 -35 28 -29 23 9 20 37 -3 37 -11 0 -22 -4 -25
-8z"/>
<path d="M2500 6440 c0 -5 5 -10 10 -10 6 0 10 5 10 10 0 6 -4 10 -10 10 -5 0
-10 -4 -10 -10z"/>
<path d="M1680 6324 c0 -31 23 -28 28 4 2 15 -2 22 -12 22 -11 0 -16 -9 -16
-26z"/>
<path d="M2150 5845 c-49 -42 -90 -80 -90 -85 0 -15 69 -68 169 -131 112 -70
131 -67 88 14 -29 56 -59 203 -50 250 9 45 -18 34 -117 -48z"/>
<path d="M1900 5659 c-115 -88 -135 -106 -107 -96 34 12 17 -19 -26 -46 -16
-10 -26 -24 -24 -31 3 -6 -1 -23 -9 -37 -18 -32 -17 -49 1 -49 8 0 15 -9 15
-20 0 -25 38 -121 54 -138 9 -10 11 -24 6 -48 -6 -26 -4 -40 9 -56 10 -13 24
-45 31 -73 7 -27 18 -57 25 -65 7 -8 15 -31 19 -50 3 -19 16 -44 27 -57 18
-18 21 -29 15 -64 -5 -34 -4 -40 8 -36 17 7 30 -8 41 -43 4 -14 14 -33 22 -42
8 -9 12 -22 8 -28 -5 -8 -14 -4 -29 13 -31 38 -65 42 -101 13 -25 -20 -28 -26
-16 -40 7 -9 19 -16 26 -16 7 0 18 -6 24 -13 11 -15 83 -9 110 8 11 6 13 2 8
-23 -5 -27 -3 -32 12 -32 22 0 33 -21 20 -41 -17 -27 -10 -77 15 -104 14 -15
22 -33 19 -41 -6 -15 3 -25 79 -90 28 -24 59 -44 68 -44 10 0 35 13 57 29 22
16 53 36 69 44 39 21 114 96 114 113 0 15 -5 18 -54 29 -48 10 -11 25 66 25
l68 0 -12 -25 c-6 -14 -15 -25 -19 -25 -4 0 -22 -17 -41 -37 -61 -69 -113
-118 -160 -156 -27 -21 -48 -42 -48 -47 0 -4 31 -8 69 -7 75 1 95 -8 105 -49
6 -23 10 -25 41 -20 29 6 44 0 115 -49 44 -30 87 -55 94 -55 7 0 35 -17 62
-39 27 -21 64 -46 82 -55 18 -10 32 -23 29 -29 -6 -19 -93 -20 -129 -3 -40 21
-48 20 -48 -3 0 -18 -7 -18 -129 -13 -90 3 -130 1 -135 -7 -4 -6 -1 -11 7 -11
8 0 17 -7 21 -15 3 -10 -1 -15 -13 -15 -34 0 -51 12 -51 35 0 21 -3 23 -42 18
-71 -8 -71 -8 -63 -63 6 -43 5 -49 -8 -44 -9 3 -17 15 -19 27 -4 28 -51 46
-78 29 -12 -7 -21 -8 -25 -2 -3 6 -13 10 -21 10 -11 0 -13 -6 -9 -21 5 -15 1
-25 -14 -36 -14 -10 -20 -21 -16 -33 3 -10 2 -21 -3 -24 -12 -7 -22 27 -22 72
0 22 5 32 15 32 8 0 15 3 15 8 0 4 -37 8 -83 10 -73 2 -85 0 -102 -18 -24 -27
-35 -25 -35 4 0 32 -17 42 -25 17 -5 -16 -12 -19 -36 -14 -22 4 -36 0 -52 -15
-25 -24 -106 -27 -114 -5 -7 18 -48 16 -67 -2 -14 -14 -18 -14 -42 2 -25 16
-27 16 -40 -2 -12 -16 -16 -16 -30 -4 -10 8 -41 14 -73 15 -31 0 -69 4 -85 9
-27 7 -29 6 -23 -14 4 -18 2 -21 -11 -16 -84 34 -106 24 -74 -33 l21 -39 -22
1 c-38 2 -25 -28 23 -51 24 -13 62 -23 85 -23 23 0 53 -8 70 -20 39 -26 45
-25 74 11 l23 30 -23 25 c-12 13 -30 24 -40 24 -10 0 -21 5 -25 12 -5 8 -2 9
9 5 10 -4 46 -9 82 -13 63 -7 84 -21 46 -31 -24 -6 -35 -33 -20 -47 9 -8 10
-7 6 7 -9 24 2 21 25 -8 11 -14 28 -25 38 -25 10 0 22 -4 25 -10 4 -6 -10 -10
-34 -10 -30 0 -41 -4 -41 -15 0 -11 11 -15 35 -15 27 0 44 8 70 33 31 30 74
42 91 24 3 -3 12 -3 20 0 19 7 18 42 -2 64 -16 17 -15 19 8 28 14 5 28 17 31
25 10 26 27 18 27 -13 0 -16 -6 -31 -15 -35 -20 -7 -19 -30 1 -47 14 -11 18
-11 29 4 17 24 55 22 55 -2 0 -15 10 -20 46 -26 33 -5 49 -3 54 6 10 15 30
-19 23 -38 -7 -21 9 -15 37 12 24 23 30 25 54 14 33 -16 44 -5 21 21 -20 22
-14 50 10 50 9 0 24 -13 33 -30 22 -39 37 -43 74 -24 38 20 51 9 19 -17 -24
-19 -20 -24 24 -31 15 -2 20 2 19 20 -1 19 4 22 25 20 21 -2 26 -8 26 -33 0
-21 5 -31 19 -33 11 -3 16 0 12 7 -4 6 0 11 9 11 9 0 25 -16 36 -35 17 -28 27
-35 51 -35 17 0 46 -9 65 -21 33 -21 68 -22 153 -6 14 2 17 2 8 0 -9 -2 -22
-10 -28 -18 -13 -16 -4 -39 11 -29 6 3 19 -2 30 -12 15 -14 22 -15 32 -5 9 10
8 15 -7 26 -18 14 -18 15 -1 21 11 5 21 1 27 -9 11 -21 28 -22 28 -2 0 8 5 15
11 15 6 0 30 14 55 31 45 31 64 31 64 1 0 -19 -25 -44 -54 -55 -11 -4 -16 -10
-13 -13 3 -4 25 1 48 10 31 13 44 14 55 5 17 -14 19 2 5 30 -15 27 2 46 29 31
12 -6 33 -9 46 -6 18 5 24 2 24 -9 0 -18 24 -30 40 -20 8 5 5 11 -7 21 -24 18
-11 18 34 -1 48 -20 53 -19 53 10 0 28 20 32 77 16 61 -18 93 10 58 49 -28 31
-9 50 49 50 29 0 57 5 63 11 8 8 19 7 40 -5 45 -25 104 -46 128 -46 l22 0 5
278 c3 152 2 286 -2 297 -9 25 -113 58 -148 49 -18 -5 -32 1 -60 29 -20 20
-73 52 -117 72 -44 20 -101 47 -126 61 -60 31 -93 32 -84 3 5 -16 3 -20 -6
-17 -8 3 -14 19 -14 36 0 25 -7 37 -34 54 -19 13 -46 31 -59 40 -14 9 -30 14
-35 11 -6 -3 -7 -1 -3 5 4 6 -4 16 -16 23 -13 7 -40 27 -61 46 -28 25 -44 32
-60 28 -36 -11 -149 -91 -197 -140 -37 -38 -42 -47 -30 -55 8 -5 25 -10 37
-10 29 0 38 -17 13 -25 -25 -8 -130 4 -130 15 0 5 41 46 90 92 82 75 160 166
160 186 0 4 -23 30 -51 57 -28 28 -65 70 -81 95 -17 25 -43 59 -59 75 -29 31
-139 222 -194 337 -23 47 -36 95 -45 163 l-14 96 -50 43 c-84 71 -240 186
-251 185 -5 0 -57 -37 -115 -80z m-30 -53 c0 -2 -12 -11 -27 -20 l-28 -17 24
20 c23 21 31 25 31 17z m352 -1798 c-9 -9 -15 -9 -24 0 -9 9 -7 12 12 12 19 0
21 -3 12 -12z m-853 -44 c13 -36 10 -51 -7 -40 -11 6 -22 76 -12 76 3 0 12
-16 19 -36z m701 6 c0 -14 -43 -80 -52 -80 -4 0 -12 9 -18 20 -7 14 -7 20 0
20 5 0 10 6 10 13 0 7 5 18 12 25 15 15 48 16 48 2z m-760 -40 c0 -5 -4 -10
-10 -10 -5 0 -10 5 -10 10 0 6 5 10 10 10 6 0 10 -4 10 -10z"/>
<path d="M1842 4893 c4 -21 33 -25 33 -3 0 8 -8 16 -18 18 -14 3 -18 -1 -15
-15z"/>
<path d="M4659 4597 c-58 -56 -127 -111 -177 -140 -75 -44 -122 -89 -122 -116
0 -12 -10 -14 -52 -11 -18 1 -30 -5 -38 -19 -7 -15 -21 -21 -43 -21 -33 0 -87
-19 -87 -31 0 -4 7 -9 15 -13 14 -5 22 -46 9 -46 -3 0 -17 9 -31 20 -29 22
-78 27 -89 8 -17 -27 -20 -598 -4 -628 16 -29 72 -49 152 -53 42 -3 80 -7 86
-11 5 -3 54 -6 108 -7 83 -1 100 2 111 16 12 17 18 17 79 4 75 -16 97 -36 76
-69 -11 -18 -10 -20 10 -22 80 -5 685 6 692 13 6 5 17 2 28 -8 20 -18 54 -14
193 26 39 11 88 20 111 20 22 1 45 6 52 13 7 7 61 13 149 15 95 2 139 7 145
16 13 21 9 47 -11 64 -19 16 -20 33 -2 33 4 0 18 -9 31 -20 24 -21 80 -28 80
-10 0 6 -12 16 -27 22 -16 7 -41 23 -56 35 -33 26 -46 28 -71 10 -18 -13 -18
-14 0 -31 16 -17 16 -21 3 -45 -13 -22 -22 -26 -66 -28 -34 -1 -56 3 -64 13
-9 12 -6 14 24 14 36 0 63 21 54 42 -3 9 -29 13 -91 12 -81 -2 -88 -4 -121
-33 -40 -35 -48 -37 -64 -18 -10 13 -68 11 -164 -8 -35 -7 -39 -5 -35 11 4 25
44 44 93 44 49 0 115 23 163 55 20 14 49 25 64 25 18 0 31 8 39 21 9 18 17 20
49 15 28 -4 39 -2 44 9 4 10 20 15 50 15 25 0 77 7 117 15 64 14 74 14 95 0
28 -18 34 -19 34 -2 0 7 14 26 31 43 17 16 36 38 42 49 12 22 11 94 -2 128 -9
22 -9 22 -19 -4 -6 -15 -18 -29 -26 -32 -9 -4 -16 -14 -16 -23 0 -12 -7 -15
-25 -12 -14 3 -25 1 -25 -3 0 -11 -240 -3 -305 10 -52 10 -245 62 -303 81 -23
8 -47 8 -86 0 -59 -12 -134 -1 -266 40 l-65 20 43 -41 c24 -23 41 -46 39 -53
-5 -15 -132 -31 -249 -31 l-98 0 -31 38 c-23 27 -36 36 -50 32 -22 -7 -26 14
-9 46 11 19 40 27 40 9 0 -5 10 -18 21 -29 l22 -20 28 29 c32 31 37 45 14 36
-23 -8 -18 18 8 41 12 12 43 24 71 29 38 5 59 16 93 47 24 22 43 46 43 53 0
24 -43 42 -149 63 -58 12 -107 23 -109 26 -2 2 -10 35 -17 72 -15 77 -49 205
-59 222 -14 21 -32 10 -127 -82z"/>
<path d="M4861 4623 c12 -27 23 -77 26 -113 6 -73 17 -94 41 -81 11 6 26 5 42
-4 14 -7 50 -18 79 -23 31 -6 58 -17 63 -26 5 -9 18 -16 30 -16 18 0 19 4 13
38 -3 20 -15 66 -26 101 -10 35 -19 72 -19 82 0 26 -58 53 -156 73 -120 24
-117 25 -93 -31z"/>
<path d="M3763 4223 c-23 -9 -14 -51 18 -88 17 -19 35 -35 39 -35 9 0 110 95
110 103 0 3 -28 7 -62 9 -35 3 -70 8 -78 11 -8 3 -21 3 -27 0z"/>
<path d="M3685 4053 c4 -54 8 -99 10 -101 4 -4 89 87 94 100 5 13 -79 98 -97
98 -12 0 -13 -17 -7 -97z"/>
<path d="M3922 4087 c-18 -18 -32 -39 -32 -47 1 -8 23 -39 50 -68 l50 -53 0
100 c0 91 -2 101 -18 101 -10 0 -32 -15 -50 -33z"/>
<path d="M3787 3966 c-54 -33 -95 -75 -106 -110 -6 -18 -7 -88 -3 -166 l7
-135 30 -3 c24 -2 33 3 46 25 13 23 28 31 90 46 58 14 82 15 104 7 15 -6 31
-8 34 -4 3 3 6 49 6 102 0 107 -2 112 -90 214 -45 54 -61 57 -118 24z"/>
<path d="M1844 3599 c-3 -6 3 -20 14 -32 19 -19 24 -19 49 -7 30 15 54 19 118
21 31 1 34 2 13 6 -16 2 -28 9 -28 14 0 13 -157 11 -166 -2z"/>
</g>
</svg>
