<?xml version="1.0" standalone="no"?>
<!DOCTYPE svg PUBLIC "-//W3C//DTD SVG 20010904//EN"
 "http://www.w3.org/TR/2001/REC-SVG-20010904/DTD/svg10.dtd">
<svg version="1.0" xmlns="http://www.w3.org/2000/svg"
 width="488.000000pt" height="958.000000pt" viewBox="0 0 488.000000 958.000000"
 preserveAspectRatio="xMidYMid meet">

<g transform="translate(0.000000,958.000000) scale(0.100000,-0.100000)"
fill="#000000" stroke="none">
<path d="M2365 8876 c0 -125 1 -135 19 -140 11 -3 22 -3 26 -1 3 2 3 33 0 70
-3 37 -2 69 2 71 4 3 24 -7 43 -22 34 -26 36 -26 49 -8 10 13 11 22 3 36 -9
13 -8 21 1 30 13 13 -1 38 -22 38 -7 0 -27 13 -46 30 -19 16 -44 29 -55 30
-19 0 -20 -7 -20 -134z m80 58 c23 -15 35 -44 18 -44 -13 1 -53 38 -53 49 0
15 6 14 35 -5z"/>
<path d="M2691 8973 c4 -47 -1 -65 -17 -59 -16 6 -44 -9 -44 -24 0 -4 11 -12
25 -18 23 -11 25 -16 19 -49 -3 -21 -12 -51 -20 -67 -16 -33 -16 -35 15 -38
20 -3 23 2 27 46 4 55 9 65 26 48 9 -9 16 -8 30 5 18 16 17 17 -12 29 -34 15
-36 29 -15 88 16 45 13 56 -16 56 -13 0 -20 -6 -18 -17z"/>
<path d="M2065 8971 c-4 -7 -2 -17 4 -24 15 -19 43 -164 39 -206 -2 -24 1 -36
10 -35 42 3 44 4 37 22 -4 9 -12 37 -17 60 -10 42 -9 46 23 78 18 19 39 34 46
34 17 0 17 26 1 37 -46 29 -133 50 -143 34z m91 -52 c3 -6 -1 -18 -10 -27 -15
-15 -18 -15 -26 -2 -5 8 -10 21 -10 28 0 15 36 16 46 1z"/>
<path d="M2912 8873 c-7 -32 -27 -88 -46 -125 -22 -46 -29 -71 -22 -78 17 -17
30 -11 60 30 17 22 33 40 37 40 9 0 21 -79 13 -92 -7 -11 13 -28 32 -28 6 0
16 22 22 50 6 27 28 84 48 126 19 41 34 77 32 79 -1 1 -12 5 -23 8 -15 5 -27
-3 -48 -34 -15 -22 -32 -37 -37 -34 -6 3 -10 28 -10 55 0 34 -4 50 -16 54 -27
10 -30 7 -42 -51z m32 -72 c8 -12 -30 -58 -40 -49 -9 10 12 58 25 58 5 0 12
-4 15 -9z m62 -47 c-17 -25 -36 -25 -36 1 0 18 44 49 48 35 2 -6 -3 -22 -12
-36z"/>
<path d="M3223 8803 c-15 -40 -87 -160 -111 -186 -21 -22 -24 -31 -16 -45 22
-34 39 -24 69 38 30 63 65 106 51 63 -10 -31 20 -46 51 -26 35 23 28 1 -21
-71 -32 -46 -41 -67 -33 -75 20 -20 32 -12 51 36 11 25 41 75 68 110 49 64 56
93 21 93 -10 0 -29 -9 -43 -20 -14 -11 -31 -20 -37 -20 -16 0 -17 44 -2 71 8
17 7 23 -8 35 -24 18 -32 17 -40 -3z"/>
<path d="M1419 8708 c-1 -2 -3 -27 -4 -56 -2 -30 -10 -61 -18 -70 -13 -15 -14
-20 -2 -36 11 -14 18 -16 28 -8 9 8 24 8 50 1 29 -8 37 -15 37 -32 0 -13 -6
-29 -12 -35 -10 -10 -10 -15 2 -22 33 -21 50 -12 47 27 -2 44 22 56 54 27 23
-20 26 -18 31 20 3 28 1 29 -37 30 l-40 1 4 40 c10 89 9 90 -27 87 -18 -2 -46
4 -64 12 -29 15 -46 20 -49 14z m98 -70 c7 -5 8 -19 4 -36 -13 -48 -81 -38
-81 12 0 41 39 53 77 24z"/>
<path d="M3450 8559 c-25 -34 -65 -79 -89 -100 l-45 -40 21 -20 20 -21 20 38
c32 62 46 56 41 -17 -3 -58 -1 -64 17 -64 18 0 20 6 17 67 -4 79 10 94 61 64
28 -16 31 -16 48 0 16 15 17 20 5 33 -7 9 -16 31 -20 50 -6 32 -31 72 -45 71
-3 -1 -26 -28 -51 -61z m68 -32 c3 -27 -4 -32 -32 -21 -19 7 -21 25 -4 42 18
18 33 9 36 -21z"/>
<path d="M2240 8560 c-110 -16 -292 -71 -380 -116 -136 -68 -185 -96 -223
-125 -52 -40 -267 -259 -267 -272 0 -5 -15 -30 -34 -56 -63 -87 -123 -222
-157 -357 -32 -123 -33 -138 -33 -309 0 -181 2 -195 49 -375 20 -80 95 -231
167 -337 30 -45 96 -120 153 -174 96 -91 272 -219 300 -219 8 0 45 -16 82 -35
69 -36 209 -75 343 -96 98 -15 364 -6 445 15 33 9 84 20 113 26 28 5 76 21
105 35 28 15 78 37 109 50 70 29 186 105 251 165 98 92 172 169 189 197 10 15
31 46 47 67 31 43 102 181 121 236 77 222 98 406 71 620 -18 137 -123 420
-180 485 -10 11 -33 43 -51 70 -39 57 -225 244 -285 284 -129 88 -390 190
-550 216 -94 16 -291 18 -385 5z m-13 -92 c26 -44 138 -174 218 -255 61 -60
180 -133 218 -133 7 0 41 -29 75 -64 41 -42 69 -62 80 -60 12 4 22 -7 35 -39
25 -61 69 -127 85 -127 7 0 41 -19 75 -42 34 -24 94 -59 132 -78 110 -55 99
-96 -37 -139 -40 -13 -94 -34 -120 -47 -26 -13 -55 -24 -63 -24 -14 0 -13 4 4
26 21 27 21 27 1 41 -17 12 -24 12 -49 -2 -40 -20 -61 -19 -61 4 0 15 -10 20
-45 25 -25 4 -50 4 -57 0 -24 -15 -108 -15 -114 0 -4 11 -15 9 -49 -12 -49
-30 -57 -45 -22 -40 16 2 21 -1 19 -15 -2 -9 4 -20 12 -23 11 -4 15 -19 14
-51 -2 -28 2 -47 11 -52 11 -7 11 -15 2 -41 -15 -46 -14 -53 9 -47 24 6 26 -5
5 -23 -8 -7 -15 -16 -15 -21 0 -15 44 -10 68 7 20 14 22 14 22 -2 0 -29 -50
-74 -82 -74 -39 0 -88 22 -115 51 -11 13 -40 61 -63 107 -22 45 -58 101 -80
123 -35 37 -41 40 -86 37 -42 -3 -51 -7 -71 -37 -23 -34 -23 -55 -1 -33 15 15
68 16 68 2 0 -5 -4 -10 -10 -10 -5 0 -10 -4 -10 -10 0 -5 7 -10 16 -10 10 0
14 -6 10 -17 -15 -51 -17 -73 -8 -73 16 0 24 -50 10 -67 -11 -14 -10 -15 12
-9 l25 7 -25 -15 -24 -14 24 -4 c17 -2 25 -9 24 -21 -1 -12 5 -17 22 -17 13 0
24 -3 24 -7 0 -7 -94 -73 -104 -73 -2 0 -6 9 -9 20 -4 17 -9 19 -31 10 -17 -6
-27 -6 -32 1 -4 6 -14 5 -29 -5 -31 -20 -129 -11 -120 11 10 27 -5 32 -49 16
-24 -9 -51 -13 -60 -10 -21 8 -21 43 1 56 10 5 15 12 11 16 -3 4 -32 -7 -65
-24 -32 -16 -88 -39 -124 -51 -79 -25 -96 -37 -101 -69 -3 -20 7 -29 72 -63
41 -21 82 -46 91 -53 8 -8 20 -15 26 -15 5 0 39 -22 74 -48 51 -39 70 -62 93
-111 18 -37 35 -60 42 -57 7 3 24 -10 38 -29 41 -53 190 -145 235 -145 18 0
91 -73 91 -92 0 -4 6 -8 14 -8 19 0 123 -114 185 -204 l51 -74 -31 -6 c-18 -3
-104 -6 -193 -6 -177 0 -285 17 -405 65 -36 14 -71 25 -78 25 -38 0 -334 196
-386 254 -10 12 -46 51 -80 89 -106 116 -223 352 -257 517 -16 82 -14 425 4
502 27 115 130 347 188 423 68 88 174 194 276 273 51 40 55 41 117 38 40 -3
65 0 65 6 0 6 11 8 24 6 19 -4 22 -1 18 15 -5 21 4 21 51 2 13 -6 16 -3 11 9
-8 20 -1 20 37 0 29 -15 31 -14 36 5 3 12 8 21 11 21 2 0 33 -18 68 -40 l62
-39 -9 32 c-10 36 -12 111 -3 145 9 32 39 27 61 -10z m70 -1170 c22 -24 37
-111 18 -105 -5 2 -10 13 -10 23 -1 11 -11 37 -23 58 -12 20 -22 39 -22 42 0
11 18 2 37 -18z m880 -79 c23 -11 54 -34 68 -51 22 -26 25 -39 25 -110 0 -102
-16 -130 -90 -166 -180 -85 -344 65 -271 248 36 89 167 128 268 79z m-1107
-346 c30 -13 70 -45 70 -56 0 -8 -3 -8 -11 0 -8 8 -17 8 -28 2 -26 -17 -70 6
-86 43 -17 41 -10 54 18 33 12 -8 29 -18 37 -22z m627 -541 c35 -24 65 -47 68
-53 11 -17 35 -9 35 11 0 24 11 25 52 4 28 -15 30 -15 25 0 -7 19 6 21 35 5
17 -9 19 -8 14 8 -5 17 -2 19 24 15 20 -3 30 0 30 8 0 9 13 11 49 6 36 -5 50
-3 54 6 3 10 8 10 17 2 9 -9 -2 -20 -47 -47 -32 -19 -76 -44 -98 -55 -37 -18
-255 -92 -272 -92 -5 0 -8 38 -8 85 0 82 -1 85 -35 121 -39 42 -32 38 57 -24z"/>
<path d="M2190 8286 c0 -2 7 -7 16 -10 8 -3 12 -2 9 4 -6 10 -25 14 -25 6z"/>
<path d="M1742 7900 c-7 -34 -15 -67 -19 -75 -4 -12 4 -15 37 -15 33 0 41 3
37 15 -4 8 -12 41 -19 75 -6 33 -15 60 -18 60 -3 0 -12 -27 -18 -60z"/>
<path d="M1575 7865 c8 -27 18 -60 21 -72 7 -24 19 -30 29 -13 3 6 15 10 26
10 29 0 24 10 -36 70 l-55 55 15 -50z"/>
<path d="M1896 7856 c-25 -29 -46 -56 -46 -60 0 -3 9 -6 20 -6 11 0 20 -4 20
-10 0 -19 18 -10 24 13 3 12 12 43 20 70 8 26 13 47 11 47 -2 0 -24 -24 -49
-54z"/>
<path d="M2731 7811 c-10 -7 -1 -16 37 -35 59 -30 62 -31 62 -13 0 31 -71 65
-99 48z"/>
<path d="M1479 7728 l53 -52 19 25 c10 13 19 26 19 29 0 4 -33 16 -72 27 l-73
22 54 -51z"/>
<path d="M1670 7756 c-82 -44 -118 -108 -105 -192 18 -121 166 -200 275 -146
19 9 48 36 66 59 122 160 -57 372 -236 279z"/>
<path d="M2060 7770 c-8 -5 -39 -15 -67 -21 -29 -7 -53 -15 -53 -18 0 -3 9
-17 20 -31 l19 -25 27 20 c24 19 82 85 73 85 -2 0 -11 -5 -19 -10z"/>
<path d="M1503 7622 c-31 -5 -32 -47 -1 -55 28 -8 30 -5 26 30 -2 23 -7 27
-25 25z"/>
<path d="M1990 7594 c0 -29 3 -35 16 -30 9 3 21 6 27 6 7 0 6 4 -3 9 -8 6 -19
7 -25 4 -5 -3 -4 0 3 8 16 17 15 26 -3 33 -12 4 -15 -3 -15 -30z"/>
<path d="M1480 7455 l-53 -54 69 21 c38 11 70 21 72 23 2 1 -5 17 -16 34 l-18
30 -54 -54z"/>
<path d="M1959 7483 c-7 -16 -15 -31 -17 -34 -1 -4 21 -12 50 -19 29 -7 59
-17 66 -23 7 -5 15 -8 18 -5 5 6 -84 108 -95 108 -4 0 -14 -12 -22 -27z"/>
<path d="M2520 7431 c0 -34 34 -101 51 -101 14 0 11 9 -13 43 -13 18 -22 38
-20 45 2 6 -2 20 -7 30 -9 14 -10 11 -11 -17z"/>
<path d="M1586 7353 c-10 -32 -21 -64 -24 -72 -3 -7 20 10 52 39 31 29 56 56
56 60 0 6 -52 30 -65 30 -1 0 -9 -26 -19 -57z"/>
<path d="M1873 7398 c-13 -6 -23 -14 -23 -17 0 -8 85 -101 92 -101 3 0 -3 29
-15 65 -12 36 -24 65 -27 64 -3 0 -15 -5 -27 -11z"/>
<path d="M1723 7356 c3 -7 11 -39 18 -70 8 -31 16 -56 19 -56 3 0 11 25 19 56
7 31 15 63 18 70 4 11 -5 14 -37 14 -32 0 -41 -3 -37 -14z"/>
<path d="M1219 8520 c-1 -5 -2 -14 -3 -19 -1 -5 17 -24 39 -41 47 -38 50 -51
12 -61 -24 -6 -35 -2 -66 27 -37 33 -39 33 -55 15 -16 -17 -15 -20 21 -46 21
-15 66 -57 100 -94 59 -64 62 -65 80 -48 17 18 17 19 -2 33 -89 66 -94 78 -40
88 30 6 39 3 60 -21 13 -15 25 -31 25 -35 0 -16 20 -7 30 12 9 17 6 24 -22 47
-18 15 -61 55 -96 90 -61 61 -80 73 -83 53z"/>
<path d="M1031 8254 c-46 -24 -81 -52 -81 -64 0 -4 15 -14 33 -21 31 -12 143
-86 179 -117 14 -12 20 -12 33 -2 25 21 17 34 -38 60 -45 23 -52 30 -55 59 -2
18 2 46 9 63 6 16 10 30 8 32 -15 14 -51 10 -88 -10z m35 -49 c10 -24 -5 -36
-27 -24 -16 8 -18 13 -8 25 15 18 28 18 35 -1z"/>
<path d="M3916 8023 c-43 -28 -170 -83 -192 -83 -17 0 -17 -5 -4 -30 10 -18
13 -18 74 16 35 19 67 31 70 26 2 -4 1 -26 -4 -48 -5 -21 -10 -42 -10 -46 0
-14 37 -8 50 7 7 8 23 15 36 15 20 0 23 4 18 28 -3 16 1 45 10 66 11 28 13 43
6 57 -6 10 -12 19 -13 18 -1 0 -20 -12 -41 -26z m14 -64 c0 -25 -17 -59 -30
-59 -13 0 -13 22 0 54 11 31 30 34 30 5z"/>
<path d="M4030 7760 c-19 -12 -193 -52 -210 -48 -16 4 -23 -22 -12 -40 7 -10
14 -10 38 3 63 33 72 10 18 -46 -35 -36 -38 -59 -8 -59 8 0 14 4 14 8 0 11 71
102 79 102 3 0 17 -16 31 -35 28 -39 64 -44 66 -10 1 11 9 36 17 56 25 57 7
95 -33 69z m3 -46 c8 -8 -11 -44 -23 -44 -5 0 -16 7 -25 16 -13 14 -14 19 -3
25 16 10 42 12 51 3z"/>
<path d="M787 7597 c-14 -24 -38 -52 -52 -61 -47 -31 -32 -41 87 -55 62 -7
122 -17 135 -22 17 -6 25 -4 32 10 14 25 5 31 -45 31 -48 0 -145 18 -157 30
-4 4 9 22 29 39 37 33 37 33 17 53 -20 20 -20 20 -46 -25z"/>
<path d="M4106 7478 c-10 -6 -71 -12 -135 -13 -101 -2 -116 -4 -119 -20 -6
-27 11 -36 44 -26 79 25 178 17 110 -9 -18 -7 -23 -14 -19 -29 3 -12 14 -21
24 -21 11 0 19 -7 19 -16 0 -14 -11 -16 -85 -12 l-86 4 3 -25 c2 -17 8 -25 18
-22 62 16 126 22 188 19 63 -3 72 -1 72 14 0 11 -17 24 -45 37 -25 11 -45 24
-45 28 0 10 57 43 76 43 8 0 14 10 14 24 0 31 -10 37 -34 24z"/>
<path d="M762 7316 c-7 -18 -21 -41 -32 -51 -11 -10 -20 -25 -20 -34 0 -15 16
-17 135 -16 120 0 135 2 135 17 0 15 -12 16 -105 13 -64 -3 -107 -1 -110 6 -4
5 5 25 20 44 26 34 26 55 1 55 -6 0 -17 -15 -24 -34z"/>
<path d="M844 7079 c-3 -6 -16 -8 -29 -5 -20 5 -24 1 -29 -28 -4 -19 -15 -45
-26 -59 -21 -26 -26 -52 -12 -61 4 -2 43 4 86 14 44 11 102 21 130 24 46 3 51
6 48 27 -1 12 -4 24 -5 26 -2 1 -32 -6 -67 -17 -36 -11 -68 -16 -73 -11 -4 4
2 25 14 45 18 32 20 39 8 47 -19 12 -36 11 -45 -2z m-4 -48 c0 -21 -35 -69
-44 -60 -9 8 22 79 34 79 6 0 10 -9 10 -19z"/>
<path d="M3772 6808 c-20 -20 -15 -25 41 -43 86 -28 148 -57 144 -68 -2 -6
-20 -19 -40 -30 -41 -21 -44 -28 -22 -47 13 -10 21 -7 48 19 17 17 43 37 56
44 40 20 34 32 -21 52 -41 14 -152 63 -188 82 -3 2 -11 -2 -18 -9z"/>
<path d="M3660 6556 c0 -8 5 -18 10 -21 6 -3 10 -15 10 -26 0 -22 -39 -42 -54
-28 -19 17 -28 9 -21 -18 9 -36 7 -36 43 -17 18 8 36 13 41 9 6 -3 13 -27 17
-53 9 -64 19 -76 50 -56 13 9 41 17 63 18 49 2 56 8 42 35 -7 11 -13 41 -15
65 -5 60 -12 69 -39 52 -12 -7 -36 -16 -53 -19 -26 -5 -33 -2 -42 18 -6 14 -9
32 -6 40 5 11 -1 15 -20 15 -16 0 -26 -6 -26 -14z m158 -115 c11 -32 4 -43
-33 -55 -30 -8 -47 7 -48 45 -2 30 1 34 28 39 38 8 41 6 53 -29z"/>
<path d="M1170 6414 c-82 -68 -115 -72 -74 -9 16 24 15 25 -5 25 -11 0 -24 0
-28 0 -5 0 -9 -19 -10 -42 -2 -23 -10 -52 -19 -65 -23 -36 -5 -52 51 -45 31 3
52 0 69 -11 23 -15 24 -15 30 6 9 35 8 37 -34 37 -22 0 -40 4 -40 10 0 12 130
100 147 100 16 0 17 22 1 38 -16 16 -15 17 -88 -44z"/>
<path d="M4087 6365 c-56 -182 -175 -371 -340 -542 l-60 -62 68 -73 c74 -80
146 -194 171 -273 9 -27 20 -54 24 -58 7 -8 52 125 63 183 2 14 12 59 20 100
42 195 82 577 75 715 l-3 70 -18 -60z"/>
<path d="M740 6343 c0 -180 118 -733 200 -934 16 -41 30 -75 30 -76 0 -2 4 -3
8 -3 5 0 14 25 21 56 18 81 94 222 162 303 l58 69 -27 18 c-44 28 -179 163
-243 242 -70 87 -129 184 -175 289 l-34 78 0 -42z"/>
<path d="M3454 6304 c-8 -3 -6 -18 8 -45 11 -23 20 -54 20 -70 1 -16 9 -36 19
-45 18 -16 21 -14 58 27 l39 44 16 -37 c9 -21 16 -47 16 -58 0 -15 7 -20 25
-20 31 0 31 12 4 50 -14 18 -22 43 -22 69 0 26 -6 46 -18 57 -17 16 -19 15
-28 -7 -5 -13 -21 -35 -35 -48 -33 -31 -46 -20 -53 43 -6 45 -16 54 -49 40z"/>
<path d="M1392 6273 c-19 -4 -22 -10 -20 -46 l3 -42 -53 -1 c-29 -1 -57 -5
-62 -10 -5 -5 -5 -29 0 -54 4 -25 4 -52 0 -60 -11 -21 4 -45 21 -34 7 4 40 8
74 8 l60 1 0 60 0 60 38 -1 c33 -1 37 1 37 22 0 23 -3 24 -42 18 l-41 -7 6 46
c4 26 6 46 4 46 -1 -1 -12 -4 -25 -6z m-17 -162 c0 -29 -5 -36 -28 -44 -40
-13 -57 -3 -57 36 0 43 6 49 50 45 33 -3 35 -5 35 -37z"/>
<path d="M3240 6125 c-11 -13 -9 -20 12 -43 32 -36 88 -114 88 -124 0 -13 -35
-9 -48 4 -10 10 -15 10 -22 -2 -19 -30 -11 -40 31 -40 22 0 54 -8 70 -17 27
-16 30 -16 46 -1 13 13 14 20 5 31 -13 15 -6 73 9 83 20 12 8 34 -19 34 -26 0
-28 -3 -24 -34 2 -18 -1 -36 -6 -40 -11 -6 -102 128 -102 151 0 18 -25 16 -40
-2z"/>
<path d="M1633 6073 c-28 -80 -33 -86 -51 -71 -17 14 -52 14 -52 -1 0 -4 9
-16 20 -26 11 -10 20 -21 20 -25 0 -4 -15 -27 -34 -52 -26 -34 -32 -48 -23
-57 17 -17 37 -13 37 7 0 10 7 27 15 38 12 15 16 16 24 5 7 -10 13 -11 31 -1
21 11 21 12 4 31 -16 18 -16 21 1 59 10 22 26 47 36 56 24 22 24 31 -1 44 -16
9 -21 7 -27 -7z"/>
<path d="M2292 5913 c-22 -37 -71 -123 -111 -191 -39 -68 -71 -125 -71 -127 0
-3 25 -5 55 -5 52 0 57 2 75 33 11 17 19 40 16 50 -5 19 63 138 78 138 4 0 23
-24 40 -53 31 -51 34 -53 79 -56 l46 -3 -76 133 c-42 73 -79 137 -83 141 -5 5
-26 -22 -48 -60z"/>
<path d="M2449 5932 l-27 -48 22 -35 c11 -20 26 -34 31 -33 10 4 85 -116 85
-135 0 -7 -27 -11 -69 -11 -68 0 -70 -1 -90 -34 -12 -18 -21 -36 -21 -40 0 -3
72 -6 161 -6 100 0 159 4 157 10 -7 20 -213 380 -218 380 -3 0 -17 -22 -31
-48z"/>
<path d="M3170 5803 c0 -3 12 -21 26 -40 27 -35 26 -56 -1 -33 -32 27 -12 -6
55 -91 39 -49 70 -94 70 -99 0 -6 14 -29 30 -52 17 -22 30 -48 30 -56 0 -9 6
-23 14 -31 7 -9 16 -44 19 -77 l5 -62 -62 -36 c-87 -52 -264 -106 -346 -106
-82 0 -125 12 -225 62 -76 38 -208 136 -219 161 -10 25 -5 -96 5 -139 8 -32
23 -55 55 -83 48 -42 49 -59 2 -35 -17 9 -32 14 -34 12 -2 -3 5 -29 16 -59 23
-65 63 -101 134 -124 87 -27 82 -25 66 -36 -8 -5 -28 -6 -45 -3 -28 6 -29 5
-15 -12 44 -59 65 -74 118 -85 30 -6 65 -9 78 -6 30 5 39 -6 18 -24 -14 -12
-14 -14 3 -20 30 -12 140 -10 169 3 22 10 28 10 39 -5 8 -12 26 -17 59 -17 39
0 52 6 88 38 24 21 39 30 35 20 -3 -10 -2 -18 4 -18 18 0 67 29 72 42 2 7 8
10 12 6 10 -9 -22 -83 -43 -100 -8 -7 -18 -22 -22 -34 -5 -12 -34 -37 -64 -55
-59 -36 -66 -52 -23 -57 15 -2 27 -7 27 -11 0 -10 -83 -51 -104 -51 -25 0 -19
-16 13 -39 35 -25 59 -26 108 -6 19 8 38 15 40 15 11 0 -23 -34 -50 -50 -28
-18 -28 -18 -5 -23 13 -3 48 -8 78 -12 49 -6 59 -4 94 20 21 14 41 24 44 21 2
-3 -8 -22 -23 -41 -15 -20 -25 -39 -22 -42 8 -7 117 44 117 55 0 5 11 20 25
34 17 17 27 43 35 91 11 69 19 99 30 107 4 3 19 46 34 95 15 50 42 117 59 149
20 38 32 74 32 100 0 23 3 46 7 52 4 6 1 35 -7 65 -21 83 -27 150 -14 165 9
11 8 18 -4 32 -8 9 -32 49 -52 87 -46 85 -60 102 -107 126 -21 11 -38 26 -38
35 0 23 -10 34 -135 146 -33 30 -53 39 -105 47 -42 7 -72 18 -89 34 -39 36
-73 57 -93 57 -10 0 -18 -3 -18 -7z m354 -248 c27 -31 37 -49 29 -52 -7 -3
-13 -9 -13 -14 0 -5 6 -9 13 -9 6 0 23 -9 37 -20 14 -11 34 -20 45 -20 32 0
62 -26 102 -88 37 -59 39 -65 49 -166 3 -33 10 -70 15 -83 12 -33 11 -36 -6
-29 -12 4 -13 2 -7 -12 19 -36 24 -112 9 -135 -8 -12 -16 -33 -20 -47 -7 -34
-69 -183 -83 -201 -6 -8 -19 -52 -28 -99 -11 -54 -27 -97 -42 -117 -28 -36
-49 -44 -41 -14 10 38 -7 40 -71 9 -34 -17 -65 -28 -69 -24 -4 4 1 20 10 35
16 27 23 71 12 71 -3 0 -24 -12 -46 -26 -49 -30 -72 -20 -34 16 33 31 32 37
-10 44 -19 4 -35 10 -35 13 0 3 17 21 38 39 51 44 83 109 91 189 7 62 0 93
-12 60 -9 -22 -68 -49 -77 -35 -5 9 -11 6 -21 -8 -34 -47 -139 -84 -139 -48 0
13 -4 13 -35 0 -35 -14 -135 -20 -135 -7 0 3 7 14 15 23 14 16 10 17 -57 14
-70 -4 -138 9 -138 25 0 5 19 12 43 15 l42 7 -25 20 c-14 11 -44 29 -67 40
-24 11 -43 24 -43 29 0 5 -14 17 -31 25 -24 13 -29 20 -23 38 4 12 11 24 17
26 5 2 -4 10 -22 17 -38 16 -43 39 -6 30 18 -5 27 -2 31 8 3 9 13 12 22 9 9
-3 0 9 -20 26 -42 36 -52 62 -14 37 14 -9 59 -27 100 -41 107 -36 178 -34 312
10 121 40 194 78 242 128 34 35 34 35 17 67 -18 35 -14 50 10 30 8 -7 0 15
-17 49 -17 34 -29 63 -27 66 3 2 20 -1 38 -8 27 -10 33 -9 41 3 15 24 11 63
-10 98 -39 63 -13 56 44 -13z"/>
<path d="M3544 5412 c0 -20 -2 -44 -4 -52 -3 -10 1 -14 11 -12 9 1 22 -4 29
-13 14 -17 6 -50 -11 -40 -6 4 -8 13 -5 21 3 8 1 14 -4 14 -34 0 19 -88 102
-169 39 -39 73 -71 75 -71 7 0 2 91 -7 115 -14 36 -37 42 -66 14 -18 -17 -27
-20 -36 -11 -27 27 49 103 88 88 8 -3 14 -2 14 3 0 5 -12 12 -27 16 -14 3 -56
35 -93 70 l-66 64 0 -37z"/>
<path d="M3483 5263 c-9 -22 -15 -66 -15 -103 0 -36 -5 -71 -12 -79 -17 -22
75 28 106 56 39 37 58 25 58 -35 0 -79 10 -109 52 -157 28 -32 38 -51 33 -63
-6 -14 -12 -11 -41 23 -18 22 -38 54 -45 70 -6 17 -14 37 -19 46 -5 9 -12 33
-15 53 -7 36 -18 45 -30 26 -4 -6 -25 -20 -48 -31 -53 -27 -52 -26 -40 -41 16
-20 36 -118 35 -163 l-2 -40 35 68 c28 56 32 72 23 87 -16 25 7 56 28 39 19
-16 17 -30 -3 -22 -11 4 -14 3 -9 -5 4 -7 13 -12 21 -12 23 0 27 -32 5 -55
-11 -12 -20 -28 -19 -36 1 -8 25 -36 54 -62 l54 -49 20 67 c23 72 28 150 11
160 -6 4 -22 -1 -37 -10 -19 -13 -28 -14 -37 -5 -13 14 17 40 46 40 10 0 18 6
18 14 0 14 -81 111 -113 135 -10 7 -34 38 -53 67 -19 30 -37 54 -40 54 -3 0
-12 -17 -21 -37z"/>
<path d="M3400 5190 c-19 -20 -46 -43 -60 -53 -19 -14 -20 -16 -5 -11 11 4 33
9 49 12 21 3 32 14 43 39 20 50 13 53 -27 13z"/>
<path d="M3173 5099 c-10 -4 -31 -8 -46 -8 l-28 -1 34 -35 c18 -19 42 -50 53
-70 10 -19 24 -35 30 -35 6 0 39 -18 74 -41 l63 -40 27 26 c44 42 44 62 3 70
-25 4 -40 2 -52 -9 -18 -17 -51 -5 -51 19 0 18 12 19 28 3 9 -9 12 -9 12 0 0
7 -4 12 -9 12 -4 0 -25 12 -46 26 -33 22 -42 24 -63 14 -18 -8 -28 -8 -36 0
-14 14 14 36 66 52 21 6 38 14 38 17 0 9 -75 8 -97 0z"/>
<path d="M3336 5101 c-18 -7 -16 -9 14 -19 18 -7 44 -12 58 -12 24 0 25 1 7
20 -19 21 -45 24 -79 11z"/>
<path d="M2850 5090 c0 -6 9 -29 20 -51 18 -34 25 -39 43 -33 12 3 30 13 40
22 9 8 20 12 24 8 4 -4 2 -11 -6 -15 -7 -5 7 -8 36 -9 92 -1 123 -6 123 -19 0
-7 5 -13 10 -13 6 0 10 -7 10 -15 0 -12 -4 -13 -19 -5 -27 14 -26 15 -46 -30
-17 -39 -17 -41 0 -60 21 -24 67 -26 85 -5 21 25 4 95 -38 149 l-37 49 -90 1
c-66 1 -99 6 -122 19 -19 10 -33 13 -33 7z"/>
<path d="M3290 5076 c-16 -20 -3 -42 35 -60 43 -21 58 -20 86 3 l23 18 -48 7
c-26 4 -56 16 -66 26 -15 15 -21 16 -30 6z"/>
<path d="M2938 4983 c-25 -6 -22 -20 8 -39 14 -9 23 -22 20 -29 -3 -10 31 -35
49 -35 1 0 15 20 29 45 15 25 32 45 39 46 7 0 3 4 -8 9 -21 9 -107 11 -137 3z"/>
<path d="M3216 4895 c4 -22 2 -41 -5 -49 -19 -23 5 -30 55 -16 25 7 43 18 41
24 -2 6 -25 25 -51 44 l-47 33 7 -36z"/>
<path d="M3573 4798 c5 -56 39 -138 57 -138 5 0 14 9 20 20 9 17 7 24 -12 40
-19 15 -21 22 -12 37 12 19 30 16 28 -4 -1 -7 2 -13 7 -13 22 0 5 29 -43 69
l-51 45 6 -56z"/>
<path d="M3522 4804 c-6 -12 -20 -62 -31 -111 -11 -49 -23 -96 -26 -105 -5
-12 1 -15 32 -13 42 2 103 29 103 46 0 5 -7 21 -17 35 -9 14 -24 58 -33 97
-14 64 -17 70 -28 51z"/>
<path d="M1755 5751 c-25 -11 -62 -46 -99 -90 -60 -73 -83 -88 -71 -48 14 44
46 112 63 130 16 18 15 18 -13 12 -103 -22 -130 -45 -170 -143 -13 -31 -27
-58 -33 -60 -13 -4 -24 44 -17 71 10 34 -59 -49 -89 -108 -14 -28 -26 -62 -26
-76 0 -32 -9 -42 -25 -29 -29 24 -148 -155 -161 -242 -5 -30 -10 -37 -27 -35
-31 3 -50 -74 -44 -175 3 -50 1 -78 -5 -78 -7 0 -7 -4 0 -13 14 -17 16 -75 8
-217 -5 -80 -3 -133 6 -175 12 -56 15 -60 40 -57 18 2 28 -3 32 -15 10 -30
146 -160 146 -139 0 14 8 11 42 -18 39 -34 45 -36 97 -32 31 2 71 10 89 16 29
11 31 14 20 29 -7 9 -19 27 -26 40 -13 23 -13 23 10 17 64 -19 93 -18 125 7
l32 24 -35 16 c-25 13 -34 22 -30 35 4 12 -5 22 -32 34 -20 10 -57 38 -82 63
l-45 46 30 25 c37 29 38 29 50 2 6 -12 16 -24 23 -26 11 -3 12 0 3 16 -10 19
-6 32 10 32 5 0 15 -13 24 -30 19 -37 33 -38 41 -3 6 23 1 32 -35 63 -39 34
-46 36 -96 32 -51 -4 -54 -3 -60 21 -10 38 1 48 47 42 35 -4 47 0 88 30 27 20
51 32 54 27 3 -5 19 -8 36 -6 17 2 30 -1 30 -7 0 -6 7 -9 15 -5 25 9 62 -11
115 -60 38 -36 50 -42 50 -28 0 15 4 14 28 -9 49 -47 58 0 16 73 -19 32 -26
57 -25 88 2 45 -19 91 -59 127 -11 10 -20 22 -20 27 0 22 129 142 185 173 112
61 264 102 422 114 57 4 106 11 110 15 14 13 -26 38 -83 52 -51 12 -78 11
-194 -1 -74 -9 -143 -18 -152 -21 -21 -6 -26 22 -5 29 27 10 -8 22 -63 22 -46
0 -65 -5 -91 -24 -21 -16 -34 -20 -37 -13 -5 17 -96 15 -139 -3 -19 -8 -48
-15 -64 -15 -20 0 -36 -10 -56 -35 l-28 -35 -5 32 c-8 50 16 161 49 225 20 41
62 91 144 171 l115 112 -56 0 c-34 0 -73 -8 -97 -19z m15 -89 c0 -4 -27 -34
-61 -67 -34 -33 -69 -76 -79 -95 -40 -79 -61 -229 -42 -298 9 -30 26 -33 30
-6 2 12 12 30 23 40 20 18 22 18 33 2 9 -13 16 -14 24 -6 6 6 21 12 35 13 13
2 38 10 55 19 29 15 36 14 34 -5 0 -3 29 5 66 17 99 33 118 34 115 7 -3 -27 2
-27 82 -9 34 9 64 11 70 6 6 -5 17 -5 25 0 19 12 140 13 140 2 0 -5 -48 -20
-107 -35 -187 -46 -347 -142 -418 -250 -18 -27 -17 -29 5 -77 24 -51 22 -72
-4 -51 -19 16 -26 3 -28 -48 -1 -44 -15 -52 -42 -26 -8 8 -25 15 -38 15 -13 0
-29 5 -35 11 -8 8 -20 6 -43 -6 -17 -9 -34 -14 -37 -11 -3 3 -20 -5 -37 -18
-38 -29 -72 -40 -107 -37 -26 2 -27 1 -22 -46 7 -77 6 -76 73 -71 33 2 60 1
60 -3 0 -4 -21 -15 -47 -25 -27 -9 -52 -21 -57 -26 -6 -4 -18 -8 -27 -8 -15 0
-14 -6 8 -47 14 -27 44 -67 66 -90 23 -24 38 -46 34 -49 -4 -4 -13 -2 -21 5
-11 9 -15 9 -18 -1 -4 -11 -8 -11 -20 0 -14 11 -16 8 -20 -23 -2 -19 -1 -41 3
-47 5 -7 3 -18 -2 -24 -5 -7 -8 -18 -7 -25 2 -9 -12 -15 -41 -19 -41 -6 -48
-4 -82 27 -21 19 -52 62 -70 96 l-31 62 5 -52 c4 -29 3 -53 -1 -53 -13 0 -61
67 -77 107 -9 22 -17 67 -18 101 -3 86 -17 78 -17 -9 0 -51 -3 -70 -12 -67
-22 8 -30 80 -23 203 9 151 9 149 1 275 -8 121 0 165 32 164 17 0 22 7 28 40
14 89 117 243 154 231 14 -4 21 6 38 53 25 67 75 123 94 104 21 -21 34 -13 58
37 12 27 35 59 51 70 31 23 54 28 43 9 -11 -17 -16 -138 -6 -138 4 0 15 12 25
28 28 46 65 82 79 77 7 -2 31 9 53 25 41 30 55 36 55 22z"/>
<path d="M1488 5515 c-25 -24 -35 -40 -31 -54 7 -28 -22 -121 -53 -166 -23
-34 -25 -45 -19 -89 3 -27 13 -65 21 -84 18 -43 18 -62 0 -62 -14 0 -46 98
-46 143 l0 27 -55 -37 c-30 -21 -55 -40 -55 -43 0 -11 73 -66 117 -89 l42 -21
39 52 c47 63 75 115 68 127 -3 5 -23 12 -43 15 -60 11 -73 16 -73 32 0 8 8 14
18 14 9 0 23 9 30 21 11 16 16 18 28 9 16 -14 19 -40 5 -40 -5 0 -12 6 -14 13
-4 9 -6 9 -6 0 -1 -18 17 -25 38 -14 13 7 21 26 25 65 4 31 16 66 27 80 11 14
17 31 14 37 -4 5 1 17 11 24 17 13 16 14 -12 9 -26 -5 -33 -2 -38 14 -4 10 -4
27 0 36 9 22 4 20 -38 -19z"/>
<path d="M1376 5413 c-20 -20 -36 -41 -36 -46 0 -13 33 -67 41 -67 4 0 14 21
22 48 34 107 28 120 -27 65z"/>
<path d="M1277 5288 c-31 -41 -60 -98 -54 -105 7 -6 108 59 131 86 16 17 16
21 4 21 -9 0 -21 7 -28 15 -18 22 -26 19 -53 -17z"/>
<path d="M1877 5227 c-27 -7 -39 -15 -43 -33 -3 -13 -13 -24 -21 -24 -10 0
-12 6 -8 20 8 25 -6 26 -48 3 l-32 -18 30 -3 c17 -2 45 -10 64 -19 34 -16 35
-15 133 35 l99 50 -68 -1 c-37 -1 -85 -5 -106 -10z"/>
<path d="M1656 5150 c-26 -22 -52 -40 -56 -40 -9 0 -46 44 -53 63 -7 21 -20
-2 -19 -34 0 -18 -6 -38 -14 -47 -19 -18 -31 -8 -14 13 7 8 8 15 3 15 -5 0
-16 -12 -25 -27 -41 -68 -187 -186 -247 -199 -60 -13 -62 -17 -29 -59 49 -62
184 -88 225 -42 28 30 37 65 23 82 -20 24 -38 17 -64 -23 -30 -48 -55 -74 -68
-70 -7 3 -45 94 -48 116 0 1 6 2 13 2 15 0 37 -40 37 -68 1 -29 38 24 51 71 7
27 26 56 53 81 76 72 126 92 144 60 11 -20 82 -9 82 13 0 15 30 74 56 111 25
34 4 26 -50 -18z m-206 -130 c0 -5 -5 -10 -11 -10 -5 0 -7 5 -4 10 3 6 8 10
11 10 2 0 4 -4 4 -10z"/>
<path d="M1719 5138 c-18 -15 -61 -88 -52 -88 3 0 31 18 60 41 60 45 82 45 40
1 -24 -24 -127 -80 -179 -96 -10 -3 -18 -15 -18 -26 0 -12 -7 -20 -16 -20 -12
0 -14 7 -9 30 4 17 4 30 0 30 -16 0 -83 -41 -104 -64 l-24 -25 25 -12 c19 -8
31 -8 48 1 29 16 54 -4 29 -23 -17 -13 -54 -77 -44 -77 3 0 17 7 30 16 31 20
120 43 144 37 10 -3 22 0 25 6 4 6 17 12 29 13 12 0 -14 4 -58 7 -68 5 -87 11
-120 36 -22 16 -42 31 -44 32 -3 2 1 9 7 15 9 9 18 6 40 -15 34 -33 78 -36 87
-7 3 11 12 20 18 20 8 0 8 3 -1 9 -10 6 -10 10 2 20 11 9 20 10 36 1 25 -14
22 -31 -8 -45 -27 -12 -29 -35 -3 -35 18 0 92 73 146 144 l29 38 -27 24 c-31
26 -65 31 -88 12z"/>
<path d="M1192 5106 c-12 -18 -22 -36 -22 -40 0 -4 24 -29 53 -56 40 -37 49
-51 40 -60 -9 -10 -20 -6 -50 19 l-38 32 -18 -22 c-30 -38 -18 -54 39 -53 53
2 98 20 151 63 39 31 40 37 9 45 -13 3 -37 19 -53 36 -28 30 -56 43 -33 15 19
-23 3 -31 -20 -10 -12 11 -18 26 -15 35 10 32 -21 29 -43 -4z"/>
<path d="M1148 4777 c-2 -55 0 -101 3 -103 8 -5 119 68 119 78 0 4 -6 8 -14 8
-22 0 -77 51 -92 85 -11 28 -13 22 -16 -68z"/>
<path d="M1285 4740 c4 -7 -3 -18 -14 -27 -17 -12 -20 -18 -10 -29 9 -11 9
-17 0 -28 -10 -12 -8 -17 11 -27 13 -6 33 -21 46 -32 30 -28 37 -16 40 67 3
70 5 68 -51 81 -20 4 -27 2 -22 -5z"/>
<path d="M1217 4673 c-11 -10 -8 -20 6 -26 8 -3 13 3 13 14 0 19 -8 24 -19 12z"/>
<path d="M1170 4640 c0 -49 94 -245 113 -233 4 3 24 -13 43 -36 29 -33 38 -38
49 -28 8 8 10 18 4 29 -5 9 -9 27 -9 40 0 75 -62 165 -146 212 -53 29 -54 30
-54 16z"/>
<path d="M2321 5713 c-10 -21 -46 -84 -79 -140 l-61 -103 225 0 c177 0 224 3
218 13 -50 84 -53 87 -93 87 -22 0 -41 -5 -43 -10 -2 -7 -35 -10 -86 -8 l-82
3 35 58 35 58 -20 39 c-11 22 -22 40 -25 40 -3 0 -13 -17 -24 -37z"/>
<path d="M2431 5168 c-12 -12 -24 -30 -27 -41 -8 -27 26 -87 54 -94 30 -7 52
12 25 21 -33 11 -48 51 -36 96 5 22 9 40 7 40 -2 0 -12 -10 -23 -22z"/>
<path d="M2104 4808 c1 -30 6 -60 11 -67 6 -11 1 -13 -28 -8 -32 5 -37 3 -37
-14 0 -14 7 -19 28 -19 34 0 52 16 52 47 0 13 4 23 9 23 10 0 -14 67 -29 83
-4 5 -6 -16 -6 -45z"/>
<path d="M2356 4785 c-16 -15 -26 -35 -26 -53 0 -37 49 -111 106 -157 l45 -37
-31 -34 c-37 -43 -41 -98 -9 -138 18 -22 28 -26 72 -25 l52 1 -32 14 c-18 7
-40 25 -49 38 -23 37 -1 80 43 84 66 6 111 -82 120 -235 5 -75 3 -88 -21 -138
-47 -95 -144 -175 -213 -175 -44 0 -75 21 -100 69 -41 79 -26 184 47 317 37
68 41 82 35 120 -9 63 -43 108 -84 112 -19 2 -44 1 -56 -2 -30 -8 -50 -56 -38
-93 l10 -28 7 30 c11 42 24 55 58 55 24 0 32 -6 44 -37 24 -56 11 -111 -42
-179 -24 -32 -49 -74 -55 -93 -30 -104 -19 -218 28 -287 28 -42 25 -61 -12
-70 -33 -8 -80 24 -190 128 -85 80 -179 205 -201 267 -16 43 -18 142 -4 191
12 44 66 98 105 105 70 13 143 -81 132 -172 -2 -24 -12 -52 -21 -62 -22 -24
-20 -38 3 -17 10 9 26 35 37 57 15 36 16 48 6 96 -20 95 -60 132 -146 135
-117 5 -210 -167 -171 -317 19 -70 56 -140 103 -196 38 -45 38 -55 -2 -39 -70
26 -148 0 -186 -62 -23 -38 -27 -125 -9 -177 6 -18 9 -35 6 -38 -7 -6 -73 43
-130 96 -57 53 -67 79 -67 169 0 69 3 83 29 123 15 25 40 55 55 66 43 34 30
35 -25 2 -83 -51 -121 -131 -122 -254 0 -43 6 -72 22 -104 29 -56 103 -129
163 -161 26 -13 52 -36 59 -50 8 -15 13 -67 14 -130 0 -133 21 -181 91 -212
53 -23 68 -17 31 12 -45 36 -67 82 -67 144 0 50 4 60 35 95 41 45 104 67 162
56 124 -23 267 -161 288 -277 4 -21 6 -38 4 -38 -2 0 -29 7 -59 15 -129 35
-206 16 -295 -72 -97 -93 -172 -125 -209 -87 -20 19 -21 70 -2 106 21 41 -8
25 -35 -19 -25 -40 -22 -102 6 -133 47 -52 157 -29 251 51 72 62 126 88 180
89 55 0 122 -25 156 -57 l28 -27 -1 -230 c-1 -320 -7 -381 -50 -452 -67 -110
-207 -243 -280 -264 -22 -7 -41 -5 -67 5 -44 19 -48 15 -21 -18 16 -21 29 -27
60 -27 21 0 39 -1 39 -2 0 -2 -6 -37 -13 -78 -14 -75 -11 -210 3 -210 4 0 10
35 12 78 8 121 78 270 78 165 0 -116 82 -272 171 -329 21 -13 41 -24 45 -24 3
0 -15 23 -40 51 -71 79 -107 161 -113 260 l-6 82 24 -16 c13 -10 34 -17 46
-17 30 0 88 60 103 107 7 21 19 49 27 61 14 23 14 24 -8 17 -17 -6 -27 -1 -41
16 l-20 24 8 -30 c14 -55 8 -87 -20 -112 -34 -29 -62 -29 -76 -2 -17 30 -5 65
45 140 51 75 87 101 109 78 20 -21 66 -162 66 -202 0 -26 -12 -49 -45 -93 -61
-78 -73 -120 -49 -165 l19 -34 5 55 c3 30 11 64 17 76 16 27 81 77 92 70 15
-10 22 -109 11 -166 -6 -30 -21 -75 -34 -100 -13 -26 -29 -64 -35 -87 -16 -58
-44 -89 -97 -107 -81 -27 -128 -74 -148 -146 -7 -23 -5 -22 20 9 29 35 78 61
116 61 13 0 40 11 60 25 l37 25 16 -29 c44 -86 57 -226 29 -321 -9 -30 -20
-86 -25 -125 -23 -172 -30 -208 -45 -237 -8 -16 -14 -32 -11 -34 2 -2 20 7 40
20 l35 24 7 -67 c4 -44 1 -109 -10 -187 -11 -76 -14 -144 -10 -189 8 -83 34
-248 41 -255 3 -2 2 40 -1 95 -5 69 -2 147 10 250 19 167 22 412 5 465 -5 19
-10 54 -10 78 0 45 40 192 52 192 12 0 20 -82 14 -153 -6 -60 -5 -69 6 -52 8
14 12 72 12 185 l1 165 -34 83 c-19 45 -32 85 -29 87 3 3 22 -11 43 -31 21
-19 62 -49 91 -66 30 -16 70 -49 89 -71 l36 -42 -28 53 c-20 38 -46 68 -90
100 -82 62 -108 112 -108 207 0 51 6 84 23 122 14 33 22 72 22 107 0 62 9 69
39 30 27 -34 27 -70 1 -86 -31 -20 -23 -30 10 -13 62 32 48 114 -31 190 -29
28 -58 64 -66 82 -16 39 -18 189 -2 199 18 11 138 -78 170 -125 33 -51 37 -81
11 -104 -26 -24 -55 -21 -81 7 -30 32 -26 78 9 86 18 4 21 8 11 14 -19 12 -59
-13 -69 -44 -23 -64 27 -130 98 -130 21 0 42 5 45 10 11 18 25 0 25 -35 0 -53
-37 -159 -71 -201 -16 -21 -53 -55 -81 -76 -59 -44 -53 -49 13 -10 103 60 157
131 186 243 9 38 20 69 23 69 11 0 48 -84 61 -140 7 -30 13 -94 13 -142 1 -49
4 -88 8 -88 11 0 21 169 14 241 -3 37 -15 88 -26 114 -11 26 -20 48 -20 49 0
2 22 6 49 9 42 5 131 40 131 51 0 2 -17 0 -37 -5 -112 -26 -184 0 -282 98
-168 170 -201 279 -182 606 16 276 49 370 144 416 50 24 92 26 162 7 87 -23
117 -45 250 -182 124 -128 132 -134 170 -134 51 0 97 28 118 73 23 48 21 69
-2 31 -26 -42 -59 -64 -97 -64 -35 0 -43 8 -147 143 -93 120 -176 175 -291
192 -25 4 -46 10 -46 14 0 12 84 69 132 91 54 24 183 27 212 5 31 -24 56 -68
56 -100 0 -34 -18 -64 -64 -107 l-31 -29 35 17 c19 9 43 24 54 33 72 63 75
222 5 251 -16 7 -29 16 -29 21 0 4 35 26 79 49 90 47 180 131 213 200 27 54
35 153 18 207 -38 116 -144 174 -227 123 -31 -19 -47 -48 -20 -36 63 26 85 28
120 11 87 -41 110 -226 38 -315 -38 -48 -115 -105 -174 -129 l-49 -21 6 23 c4
12 11 47 16 77 7 46 5 62 -12 97 -21 46 -58 78 -101 88 -15 4 -34 17 -42 28
-17 25 -20 83 -5 92 20 12 59 -24 66 -61 9 -49 24 -24 24 42 0 40 -5 55 -23
72 -31 30 -60 28 -99 -7 -28 -25 -32 -36 -36 -90 -4 -53 -8 -64 -27 -71 -47
-18 -95 -101 -95 -168 0 -58 50 -124 105 -138 l30 -7 -32 36 c-61 69 -62 148
-4 206 39 39 123 21 166 -35 23 -30 19 -105 -8 -145 -30 -44 -71 -71 -170
-111 -142 -57 -290 -135 -355 -187 -34 -28 -66 -51 -71 -51 -16 0 -110 125
-136 181 -15 33 -25 72 -25 100 0 57 20 77 180 182 207 134 265 219 280 409 5
60 16 123 25 141 29 62 91 75 128 26 23 -32 27 -131 7 -169 -12 -23 -12 -24 4
-11 65 54 68 180 6 243 -50 50 -139 34 -194 -34 -22 -27 -28 -30 -35 -18 -34
58 -95 118 -147 145 -60 32 -127 106 -139 157 -8 32 22 68 58 68 18 0 19 2 7
10 -26 17 -66 11 -94 -15z m-451 -819 c18 -8 39 -25 46 -38 17 -32 12 -86 -12
-120 -30 -41 1 -38 36 4 25 29 27 38 22 90 l-5 57 51 -42 c28 -23 70 -61 94
-83 l43 -41 0 -79 c0 -112 -2 -113 -97 -82 -43 15 -111 36 -150 47 -122 36
-184 118 -170 226 10 69 65 93 142 61z"/>
<path d="M2641 4711 c25 -45 93 -111 115 -111 6 0 16 6 22 13 9 10 2 18 -26
32 -20 11 -59 40 -86 65 l-49 45 24 -44z"/>
<path d="M3171 4315 c-33 -17 -39 -23 -27 -28 17 -7 76 29 76 45 0 4 -1 7 -2
7 -2 -1 -23 -12 -47 -24z"/>
<path d="M3070 4315 c-11 -13 -10 -19 5 -35 10 -11 30 -20 44 -20 26 1 26 1 5
18 -11 9 -25 25 -30 35 -10 17 -12 17 -24 2z"/>
<path d="M1990 4247 c-12 -25 -11 -29 11 -53 27 -30 107 -70 117 -58 4 3 1 9
-7 12 -8 2 -31 20 -52 39 -22 20 -40 31 -40 27 -1 -5 -5 7 -8 26 l-7 35 -14
-28z"/>
<path d="M2460 4234 c0 -3 9 -17 20 -31 24 -30 26 -76 5 -97 -18 -18 -19 -26
-2 -26 25 0 46 25 52 61 6 32 3 40 -27 68 -31 29 -48 38 -48 25z"/>
<path d="M1744 4137 c-3 -9 -28 -33 -54 -52 -38 -28 -55 -34 -77 -30 l-28 6
24 -20 c30 -27 47 -26 86 3 32 25 72 92 61 103 -3 3 -8 -1 -12 -10z"/>
<path d="M2611 3770 c-1 -20 -7 -42 -13 -49 -10 -11 -10 -13 0 -7 19 11 14 -8
-8 -27 -23 -19 -26 -37 -7 -37 40 0 65 71 43 121 l-14 34 -1 -35z"/>
<path d="M3278 3588 c-21 -17 -32 -54 -18 -63 5 -3 10 -14 10 -24 0 -20 40
-61 59 -61 9 0 4 13 -13 34 -14 19 -26 39 -26 45 0 6 -4 11 -10 11 -23 0 -8
21 20 26 25 6 28 9 19 25 -11 22 -19 23 -41 7z"/>
<path d="M1444 3534 c-6 -21 -2 -31 15 -45 39 -32 133 -50 146 -29 3 6 -4 10
-17 10 -13 0 -36 9 -53 20 -16 11 -38 20 -47 20 -11 0 -18 8 -18 19 0 31 -19
34 -26 5z"/>
<path d="M1862 2887 c-9 -10 0 -25 38 -62 28 -27 50 -54 50 -59 0 -6 -14 -25
-32 -43 -24 -24 -29 -36 -21 -44 9 -9 25 0 62 31 28 24 51 48 51 54 0 12 -121
136 -132 136 -3 0 -10 -6 -16 -13z"/>
<path d="M2748 2722 c-2 -94 -2 -172 -1 -172 2 0 33 32 70 71 l68 70 60 -70
c33 -38 63 -70 68 -70 4 -1 7 74 7 167 l0 167 -68 -73 -67 -74 -55 63 c-30 34
-60 70 -67 78 -9 13 -12 -21 -15 -157z m80 30 l31 -38 -35 -37 c-20 -20 -37
-37 -38 -37 -2 0 -3 34 -3 75 0 41 4 75 8 75 4 0 21 -17 37 -38z m155 -24 c-1
-29 -2 -62 -3 -72 0 -18 -2 -18 -26 5 -48 44 -49 57 -13 95 18 18 35 32 38 29
4 -2 5 -27 4 -57z"/>
<path d="M1823 2747 l-52 -52 65 -68 c41 -42 71 -66 80 -63 23 9 17 22 -35 78
l-50 53 37 38 c32 33 34 39 21 52 -13 13 -21 9 -66 -38z"/>
</g>
</svg>
