<?xml version="1.0" standalone="no"?>
<!DOCTYPE svg PUBLIC "-//W3C//DTD SVG 20010904//EN"
 "http://www.w3.org/TR/2001/REC-SVG-20010904/DTD/svg10.dtd">
<svg version="1.0" xmlns="http://www.w3.org/2000/svg"
 width="736.000000pt" height="737.000000pt" viewBox="0 0 736.000000 737.000000"
 preserveAspectRatio="xMidYMid meet">

<g transform="translate(0.000000,737.000000) scale(0.100000,-0.100000)"
fill="#000000" stroke="none">
<path d="M3645 7127 c-3 -7 -4 -127 -3 -267 l3 -255 37 -3 37 -3 3 103 3 103
108 52 c111 54 123 68 94 107 -12 17 -19 15 -105 -28 -50 -25 -94 -46 -97 -46
-4 0 -5 19 -3 42 l3 42 105 46 c107 48 121 61 100 99 -15 29 -29 27 -120 -19
-44 -22 -82 -40 -85 -40 -3 0 -5 18 -5 40 0 39 -1 40 -35 40 -20 0 -38 -6 -40
-13z"/>
<path d="M3128 7085 c-9 -12 -45 -68 -78 -124 -34 -55 -65 -103 -70 -106 -4
-3 -64 33 -131 81 -74 51 -125 80 -128 73 -2 -6 4 -46 12 -88 9 -42 24 -119
33 -171 24 -134 59 -273 70 -277 5 -1 42 54 83 122 40 69 77 127 80 130 4 2
61 -34 127 -80 104 -74 156 -102 141 -77 -3 4 -29 124 -57 267 -29 143 -56
263 -59 267 -3 3 -14 -4 -23 -17z m0 -227 c6 -24 14 -65 18 -92 l7 -49 -57 43
c-63 47 -62 35 -10 115 23 35 30 32 42 -17z m-244 -40 c22 -18 44 -37 48 -42
6 -9 -51 -105 -64 -106 -4 0 -12 26 -18 58 -6 31 -15 72 -20 90 -11 41 0 41
54 0z"/>
<path d="M4496 7033 c-10 -35 -106 -467 -106 -479 0 -13 57 -40 67 -30 3 3 25
92 49 197 23 105 45 193 48 196 5 6 116 -87 116 -98 0 -3 -16 -73 -35 -155
-19 -82 -35 -154 -35 -161 0 -13 49 -32 68 -26 6 3 12 21 12 41 1 21 7 48 15
62 8 14 14 39 15 57 0 17 4 34 9 37 5 4 12 30 16 59 4 28 12 63 16 76 5 13 7
31 4 41 -6 17 -228 200 -244 200 -5 0 -12 -8 -15 -17z"/>
<path d="M2082 6612 c-24 -64 -45 -124 -48 -132 -4 -12 19 -23 100 -48 79 -25
106 -38 106 -50 0 -10 -11 -59 -24 -110 l-24 -93 25 -10 c45 -17 50 -12 79 92
32 116 17 109 157 65 l78 -25 14 32 c7 17 12 34 10 37 -2 3 -49 21 -104 40
-115 40 -112 33 -81 150 11 41 20 82 20 90 0 11 -35 24 -128 48 -70 18 -129
32 -132 32 -3 0 -24 -53 -48 -118z m174 7 c24 -6 44 -14 44 -17 0 -6 -32 -125
-35 -129 -4 -6 -125 40 -125 47 0 6 16 54 35 109 3 7 12 10 21 7 9 -4 36 -11
60 -17z"/>
<path d="M5302 6718 c-25 -32 -302 -491 -302 -502 0 -10 49 -46 63 -46 3 0 23
28 45 63 53 84 62 91 114 83 24 -4 87 -9 142 -12 l98 -6 -73 139 -72 139 36
54 c20 30 37 58 37 63 0 7 -60 37 -73 37 -3 0 -9 -6 -15 -12z m-17 -279 c19
-36 16 -41 -27 -44 -46 -4 -50 1 -27 40 26 43 34 44 54 4z"/>
<path d="M1440 6256 c0 -67 -2 -74 -21 -79 -12 -3 -32 -1 -46 4 -13 5 -40 9
-59 9 -35 0 -35 0 -32 -42 l3 -43 64 -1 c78 -1 79 -3 75 -126 -5 -116 -2 -118
127 -118 l99 0 0 -65 0 -65 40 0 40 0 0 70 0 70 70 0 70 0 0 40 0 39 -62 3
-63 3 -2 95 c-4 151 4 140 -118 140 l-105 0 0 70 0 70 -40 0 -40 0 0 -74z
m210 -231 l0 -66 -62 3 -63 3 -3 63 -3 62 66 0 65 0 0 -65z"/>
<path d="M3196 6257 c-10 -41 12 -135 46 -200 70 -132 205 -235 341 -260 l57
-11 -2 -165 -3 -166 -108 -2 c-59 0 -114 -4 -121 -6 -22 -9 -29 -56 -11 -83
15 -23 20 -24 130 -24 l115 0 0 -70 0 -70 -109 0 c-60 0 -116 -3 -125 -6 -12
-5 -16 -20 -16 -61 l0 -54 123 2 122 1 3 -66 3 -66 -114 0 c-74 0 -117 -4
-125 -12 -7 -7 -12 -34 -12 -60 l0 -48 125 0 125 0 0 -160 c0 -184 12 -164
-115 -194 -86 -21 -181 -64 -247 -113 l-50 -36 -121 121 -121 121 84 85 84 86
-29 30 c-16 17 -35 30 -42 30 -7 0 -45 -34 -84 -75 -39 -41 -77 -75 -84 -75
-15 0 -105 97 -105 113 0 7 35 47 77 89 l78 78 -33 32 -32 33 -83 -83 -83 -82
-54 55 -54 55 72 73 c40 40 72 77 72 82 0 5 -12 22 -27 37 l-27 28 -76 -75
-75 -75 -120 120 c-105 105 -118 122 -107 138 126 179 120 442 -16 602 l-29
34 -38 -28 -37 -28 30 -32 c86 -90 114 -255 68 -401 -9 -27 -25 -61 -36 -75
l-19 -25 -152 150 c-106 106 -153 146 -157 135 -3 -8 -21 -30 -39 -49 l-34
-34 140 -141 c78 -78 141 -147 141 -153 0 -19 -74 -53 -148 -68 -49 -10 -85
-12 -138 -5 -85 11 -122 26 -186 75 l-47 36 -33 -30 -33 -29 25 -27 c14 -14
62 -45 109 -68 77 -38 90 -42 180 -45 117 -5 197 13 290 64 l64 35 120 -119
119 -119 -82 -79 -82 -79 22 -28 c12 -15 27 -27 33 -27 7 0 48 36 92 80 l79
80 53 -52 c29 -29 53 -57 53 -62 0 -5 -34 -44 -75 -87 l-75 -77 42 -42 43 -41
73 75 c41 42 77 76 81 76 10 0 91 -84 91 -95 0 -5 -35 -44 -77 -87 l-77 -77
24 -26 c44 -47 56 -44 136 36 l74 74 119 -119 119 -119 -34 -47 c-60 -84 -95
-170 -128 -322 l-6 -28 -165 0 -165 0 0 109 0 108 -47 7 c-25 3 -49 3 -52 0
-3 -3 -6 -47 -7 -97 0 -51 -2 -100 -2 -109 -2 -15 -13 -18 -72 -18 l-69 0 -3
107 -3 107 -35 8 c-46 9 -60 -9 -60 -78 0 -28 -3 -72 -6 -98 l-7 -46 -73 0
-74 0 0 109 0 109 -46 7 c-34 5 -49 3 -55 -7 -5 -7 -9 -59 -9 -115 l0 -103
-165 0 c-124 0 -166 3 -169 13 -2 6 -9 35 -15 62 -44 189 -226 353 -403 363
-45 3 -68 1 -69 -7 -5 -60 -3 -66 26 -69 61 -7 135 -34 192 -71 88 -57 172
-183 173 -258 0 -38 30 -33 -240 -36 l-155 -2 -1 -47 -1 -48 198 0 199 0 0
-38 c0 -131 -182 -305 -341 -327 -27 -4 -49 -11 -50 -16 -1 -5 -1 -21 -2 -36
l-1 -28 68 2 c183 4 371 178 417 386 l12 57 163 0 163 0 3 -127 3 -127 35 -2
c66 -4 69 3 72 134 l3 117 63 3 c38 2 69 -2 78 -9 11 -9 14 -39 14 -125 l0
-114 50 0 50 0 0 125 0 126 68 -3 67 -3 6 -110 c3 -60 9 -118 14 -127 9 -22
67 -25 84 -5 6 8 12 62 14 123 l3 109 164 0 164 0 21 -90 c23 -98 77 -214 124
-268 l30 -33 -123 -123 -124 -123 -72 76 c-40 42 -80 76 -88 76 -9 0 -31 -14
-49 -32 l-33 -32 77 -78 78 -78 -53 -52 -52 -53 -78 78 -77 77 -38 -37 -37
-38 82 -82 83 -83 -55 -55 -55 -54 -82 81 c-81 81 -82 81 -107 65 -14 -10 -30
-27 -37 -38 -10 -19 -3 -29 65 -98 42 -42 76 -81 76 -87 0 -13 -206 -214 -220
-214 -6 0 -27 11 -48 23 -106 67 -253 92 -376 63 -80 -19 -172 -65 -211 -106
-27 -28 -27 -30 -11 -55 26 -39 44 -41 79 -7 94 89 280 117 406 61 107 -47
111 -33 -43 -189 -75 -76 -136 -145 -136 -153 0 -22 39 -67 58 -67 10 0 78 61
152 135 74 74 140 135 146 135 6 0 26 -30 44 -66 32 -62 34 -70 33 -172 -1
-120 -14 -162 -77 -249 -20 -28 -36 -55 -36 -60 0 -5 14 -20 32 -33 l31 -23
28 34 c137 165 156 411 45 587 l-35 57 114 115 115 115 80 -80 80 -80 37 37
37 38 -72 66 c-40 37 -72 72 -72 78 0 6 21 32 47 58 l47 48 78 -77 77 -76 39
34 c22 19 42 39 45 45 3 7 -28 44 -69 84 -41 40 -74 75 -74 78 0 4 23 30 52
59 l52 53 78 -77 77 -77 26 24 c14 13 25 29 25 35 0 6 -34 44 -75 84 -41 40
-75 75 -75 77 0 2 54 58 121 124 l120 121 75 -50 c72 -48 156 -81 282 -111
l52 -12 0 -164 0 -164 -120 0 -121 0 3 -56 3 -56 115 -1 115 -2 3 -77 3 -78
-121 0 -121 0 3 -47 3 -48 117 -3 117 -3 -2 -77 -2 -77 -112 -3 -113 -3 0 -50
c0 -49 1 -50 28 -48 15 1 66 1 115 1 l87 -2 0 -158 0 -158 -79 -23 c-139 -40
-230 -109 -300 -224 -45 -76 -63 -131 -65 -197 l-1 -55 40 0 40 0 6 57 c9 79
52 163 119 228 64 63 127 97 194 106 l46 7 0 -202 0 -202 48 3 47 3 3 199 2
199 44 -5 c141 -16 295 -184 315 -341 6 -52 6 -52 41 -52 l35 0 -1 70 c-1 176
-160 352 -372 411 l-62 17 0 163 0 163 117 3 c128 3 129 4 116 70 l-5 28 -114
0 -114 0 0 75 0 74 113 3 112 3 3 47 3 48 -115 0 -116 0 0 80 0 80 115 0 115
0 0 58 0 58 -115 -1 -115 0 0 162 0 163 28 6 c151 34 238 68 325 130 26 19 50
34 53 34 9 0 234 -226 234 -235 0 -5 -34 -43 -75 -85 l-74 -75 40 -42 40 -42
79 82 79 82 26 -25 c15 -14 36 -38 47 -53 l21 -29 -79 -79 -79 -79 43 -42 42
-43 78 78 c42 42 82 77 88 77 12 0 84 -72 84 -85 0 -5 -34 -44 -76 -86 l-76
-76 44 -41 43 -41 70 74 c39 41 75 75 80 75 6 0 58 -48 117 -108 l107 -107
-46 -92 c-44 -88 -46 -97 -51 -196 -6 -147 29 -260 112 -352 l36 -40 30 33 31
33 -35 43 c-62 74 -87 143 -87 238 -1 47 5 105 14 134 16 56 56 124 72 124 5
0 72 -62 148 -137 l138 -138 34 37 34 36 -140 138 c-76 76 -139 142 -139 146
0 19 106 66 174 78 112 19 202 2 288 -55 37 -25 74 -45 81 -45 7 0 24 12 38
26 l24 26 -43 38 c-149 133 -403 146 -587 29 l-48 -31 -104 104 c-57 57 -109
111 -115 122 -8 16 1 30 66 95 l76 77 -39 38 -39 38 -29 -20 c-15 -11 -52 -45
-82 -75 -60 -61 -62 -61 -117 10 l-24 32 81 82 81 82 -36 36 -36 36 -81 -84
-80 -85 -54 54 -55 54 38 40 c20 21 54 55 75 74 20 19 37 42 37 52 0 17 -52
70 -69 70 -4 0 -41 -34 -82 -75 -40 -41 -78 -75 -84 -75 -6 0 -61 51 -124 114
l-113 113 38 49 c49 64 99 174 113 249 23 120 -2 106 189 103 l167 -3 5 -100
5 -100 52 -3 52 -3 3 108 3 108 70 -3 c39 -2 72 -5 74 -7 3 -3 2 -51 -3 -165
l-1 -35 53 -3 c37 -2 52 1 53 10 0 7 1 56 2 108 l2 95 68 3 c65 3 67 2 67 -21
0 -13 5 -38 11 -55 8 -23 8 -41 -1 -67 -19 -59 -7 -75 56 -75 l54 0 0 105 0
105 163 0 163 0 18 -67 c26 -98 61 -160 130 -229 81 -80 192 -137 282 -142
l64 -4 0 40 0 40 -47 7 c-164 24 -343 195 -343 327 l0 38 193 0 c107 0 196 2
198 4 2 3 3 25 1 50 l-4 46 -195 0 -196 0 5 44 c16 138 160 277 321 310 l62
13 3 38 3 38 -68 -5 c-102 -8 -256 -91 -318 -172 -41 -53 -84 -147 -96 -208
l-12 -58 -162 0 -163 0 -4 125 c-3 137 -7 147 -61 140 -56 -7 -60 -19 -54
-132 4 -56 4 -109 1 -118 -5 -11 -22 -15 -75 -15 l-69 0 0 116 c0 136 -6 153
-53 150 -19 -2 -39 -6 -46 -10 -7 -5 -11 -49 -11 -132 l0 -124 -70 0 -70 0 0
118 c0 130 -9 152 -62 152 -48 0 -58 -25 -58 -153 l0 -117 -162 0 -163 0 -22
89 c-25 106 -65 200 -111 260 l-34 44 118 118 c65 66 122 119 126 119 4 0 33
-27 65 -61 82 -85 88 -88 129 -48 19 18 34 37 34 42 0 5 -34 43 -76 84 l-76
76 59 59 60 59 68 -70 c38 -39 76 -71 85 -71 17 0 50 30 50 46 0 4 -32 41 -72
81 l-72 73 54 55 c30 30 59 55 64 55 6 0 45 -35 88 -77 43 -42 79 -75 80 -72
2 2 14 16 27 32 l25 27 -85 80 -84 79 115 116 c63 63 118 115 122 115 4 0 28
-13 54 -30 171 -108 431 -92 572 35 l47 43 -24 26 c-14 14 -29 26 -34 26 -5 0
-31 -16 -58 -36 -90 -66 -187 -88 -314 -70 -45 6 -175 63 -175 76 0 3 64 70
143 148 l142 143 -35 29 c-19 16 -40 30 -45 30 -6 0 -71 -61 -145 -135 -73
-74 -136 -135 -140 -135 -4 0 -22 30 -41 67 -33 65 -34 71 -34 183 0 106 2
120 28 172 15 31 41 71 56 87 l29 31 -20 25 c-27 35 -51 31 -88 -14 -59 -75
-92 -166 -98 -266 -6 -127 20 -227 85 -328 l18 -27 -115 -115 -115 -115 -74
75 c-40 41 -79 75 -85 75 -7 0 -25 -14 -41 -30 l-29 -30 79 -80 80 -80 -53
-53 -53 -52 -75 78 c-41 42 -78 77 -82 77 -10 0 -62 -56 -62 -67 0 -5 29 -38
65 -73 36 -35 65 -69 65 -75 0 -5 -22 -34 -48 -63 l-48 -54 -72 76 c-39 42
-76 76 -80 76 -4 0 -26 -18 -47 -41 l-40 -40 79 -76 78 -75 -118 -119 c-65
-66 -122 -119 -126 -119 -4 0 -32 18 -63 39 -68 47 -154 83 -257 106 l-78 17
0 164 0 163 107 3 c107 3 108 3 121 31 11 22 11 32 0 55 -13 27 -14 27 -121
30 l-107 3 0 69 0 70 110 0 c107 0 111 1 121 24 8 16 8 34 2 53 l-10 28 -111
3 -112 3 0 69 0 70 103 0 c116 0 127 5 127 60 0 55 -11 60 -127 60 l-103 0 2
161 3 162 60 16 c202 56 360 231 373 413 l5 69 -39 -3 -39 -3 -8 -55 c-22
-158 -172 -316 -314 -333 l-43 -5 -2 196 -3 197 -47 3 -48 3 0 -195 0 -196
-45 0 c-61 0 -131 37 -199 104 -63 63 -102 137 -118 224 -11 61 -12 62 -44 62
-25 0 -33 -5 -38 -23z m444 -2093 l0 -236 -37 30 c-21 16 -99 92 -172 168
l-135 137 38 33 c51 44 198 103 259 104 l47 0 0 -236z m221 220 c68 -20 160
-69 190 -100 l23 -25 -167 -167 -167 -167 0 238 0 237 33 0 c18 0 58 -7 88
-16z m-464 -366 c90 -90 163 -165 163 -168 0 -3 -107 -4 -237 -2 l-238 2 3 52
c5 87 98 278 134 278 7 0 86 -73 175 -162z m816 94 c42 -77 77 -178 77 -222
l0 -39 -230 -3 c-127 -2 -230 0 -230 3 0 3 73 78 162 166 126 126 166 160 178
153 9 -5 28 -31 43 -58z m-672 -379 c-6 -10 -80 -87 -165 -172 l-154 -154 -27
27 c-52 52 -128 258 -111 302 4 12 45 14 236 14 217 0 230 -1 221 -17z m749
-25 c0 -63 -58 -212 -102 -262 l-37 -41 -165 165 c-91 91 -166 168 -166 172 0
5 106 8 235 8 l235 0 0 -42z m-650 -284 l0 -236 -42 5 c-24 3 -59 9 -78 14
-55 16 -167 73 -192 100 l-22 24 164 164 c91 91 166 165 167 165 2 0 3 -106 3
-236z m427 -109 c-5 -14 -104 -71 -165 -95 -29 -11 -77 -23 -107 -26 l-55 -7
0 234 0 234 165 -165 c91 -91 164 -169 162 -175z"/>
<path d="M5802 6007 l-192 -182 31 -29 32 -28 91 91 c50 50 97 91 103 91 6 0
23 -35 38 -77 36 -107 46 -119 85 -103 22 9 29 17 25 29 -4 9 -23 62 -43 119
l-36 102 21 22 22 22 26 -60 c53 -122 58 -129 90 -127 15 1 31 7 35 13 7 12
-114 293 -127 297 -5 1 -95 -80 -201 -180z"/>
<path d="M960 5554 c-25 -14 -73 -41 -108 -59 l-64 -32 209 -128 c114 -70 219
-134 232 -143 23 -14 26 -13 43 8 10 12 18 28 18 35 0 8 -38 38 -85 67 -47 29
-122 76 -167 104 l-81 52 51 26 c56 28 57 31 42 70 -12 33 -33 33 -90 0z"/>
<path d="M6525 5482 c-6 -5 -110 -60 -232 -123 l-221 -113 19 -38 20 -38 47
26 c26 15 58 33 70 41 13 8 26 13 28 10 3 -2 -8 -54 -23 -115 -15 -61 -25
-114 -22 -116 3 -3 21 -7 39 -8 l35 -3 32 123 c17 68 33 126 35 128 2 2 41
-21 86 -51 45 -30 86 -55 91 -55 16 0 33 131 29 234 -3 95 -11 118 -33 98z
m-49 -199 c-3 -3 -20 4 -37 15 l-32 20 34 21 34 21 3 -36 c2 -20 1 -38 -2 -41z"/>
<path d="M539 4916 c-3 -3 10 -51 28 -106 l34 -100 -71 -68 c-38 -37 -70 -74
-70 -82 0 -11 64 -31 253 -77 138 -34 255 -59 258 -55 4 4 10 21 14 39 6 31 5
32 -37 44 -24 6 -72 18 -107 25 -85 18 -106 34 -126 95 l-17 51 43 44 c24 24
50 44 59 44 8 0 66 -14 129 -31 123 -35 131 -33 131 23 0 31 10 27 -290 106
-172 46 -223 56 -231 48z m151 -126 c0 -5 -7 -10 -16 -10 -8 0 -12 5 -9 10 3
6 10 10 16 10 5 0 9 -4 9 -10z m-50 -190 c0 -5 -2 -10 -4 -10 -3 0 -8 5 -11
10 -3 6 -1 10 4 10 6 0 11 -4 11 -10z"/>
<path d="M6506 4529 c-105 -175 -107 -181 -90 -200 33 -37 52 -20 137 120 45
74 87 136 92 137 6 2 62 -42 125 -96 63 -55 120 -100 125 -100 6 0 18 13 27
28 l17 28 -137 121 c-118 103 -169 143 -184 143 -2 0 -52 -81 -112 -181z"/>
<path d="M358 4053 c9 -16 85 -123 114 -159 6 -8 -5 -25 -33 -50 -22 -22 -54
-58 -70 -80 l-28 -42 34 -6 c19 -4 88 -7 153 -7 64 0 170 -3 235 -6 l117 -5 0
41 0 41 -97 0 c-94 1 -241 15 -251 25 -2 2 7 18 22 35 35 42 33 64 -9 97 l-35
28 192 5 193 5 3 37 3 37 -213 5 c-117 2 -242 8 -276 11 -60 6 -63 6 -54 -12z"/>
<path d="M6890 3820 c-63 -32 -122 -59 -130 -59 -8 -1 -64 24 -125 54 -60 30
-114 55 -120 55 -11 0 -35 -41 -35 -60 0 -5 26 -22 58 -38 31 -15 73 -36 92
-46 l34 -19 -96 -48 -97 -49 11 -31 c6 -17 16 -33 23 -35 16 -6 120 37 184 76
60 37 97 38 147 3 45 -30 153 -83 171 -83 11 0 34 58 27 70 -1 3 -41 25 -88
49 -47 24 -86 47 -86 50 0 4 41 27 90 51 62 31 89 49 85 58 -3 8 -8 25 -11 38
-3 13 -9 24 -13 23 -3 0 -58 -27 -121 -59z"/>
<path d="M756 3238 c-3 -7 -12 -46 -21 -85 l-17 -73 -66 55 c-65 54 -85 64
-96 47 -13 -22 -73 -276 -69 -293 4 -13 11 -17 27 -13 11 2 126 29 255 58 138
31 237 58 239 65 4 11 -229 251 -243 251 -3 0 -7 -6 -9 -12z m104 -199 c0 -7
-36 -19 -57 -19 -16 0 -16 20 -2 57 l11 28 24 -30 c13 -16 24 -33 24 -36z
m-195 -13 l29 -25 -29 -11 c-17 -6 -42 -14 -56 -17 l-27 -5 11 51 c11 55 13
56 72 7z"/>
<path d="M6382 3121 c-18 -11 -25 -56 -10 -68 7 -6 51 -21 98 -33 47 -13 92
-26 101 -31 10 -5 25 -51 44 -129 15 -66 32 -119 36 -118 21 7 250 221 247
230 -3 9 -176 62 -474 147 -17 5 -36 6 -42 2z m348 -184 c0 -16 -38 -53 -46
-45 -3 3 -2 17 2 32 6 27 44 38 44 13z"/>
<path d="M811 2428 c-56 -213 -59 -227 -46 -238 7 -6 66 -30 131 -54 107 -40
120 -43 132 -28 27 36 15 57 -49 85 -36 16 -58 31 -54 37 4 6 68 41 143 79
169 85 187 98 178 134 -5 22 -12 27 -36 27 -16 0 -31 -4 -35 -10 -8 -12 -298
-161 -303 -155 -3 3 3 34 13 71 19 71 17 78 -31 88 -30 7 -32 5 -43 -36z"/>
<path d="M6097 2441 c-9 -16 -17 -32 -17 -35 0 -3 53 -40 117 -82 84 -54 113
-78 103 -84 -8 -4 -45 -15 -82 -24 -59 -15 -70 -15 -90 -2 -13 7 -45 25 -72
40 -46 24 -51 24 -68 9 -35 -32 -22 -55 60 -104 42 -25 141 -87 219 -137 79
-51 146 -92 151 -92 7 0 42 52 42 63 0 5 -158 106 -199 127 -32 17 -19 24 81
44 l88 17 44 -30 c25 -17 49 -31 55 -31 12 0 41 39 41 55 0 9 -437 295 -451
295 -3 0 -12 -13 -22 -29z"/>
<path d="M1590 1840 c-25 -4 -90 -13 -146 -20 -55 -6 -107 -16 -114 -20 -10
-6 -2 -22 36 -65 93 -108 122 -155 92 -152 -20 2 -158 -14 -174 -20 -9 -3 -14
-20 -14 -44 l0 -39 48 6 c109 12 270 38 310 50 8 2 -19 41 -69 99 -45 53 -79
98 -76 101 3 3 56 12 119 20 62 9 117 19 122 24 4 5 4 21 -1 37 -8 24 -15 28
-49 30 -21 0 -59 -2 -84 -7z"/>
<path d="M5599 1764 l-26 -26 53 -56 c30 -31 54 -60 54 -65 0 -5 -24 -7 -52
-5 l-53 3 0 -40 0 -40 90 -5 c107 -6 127 -16 215 -105 35 -36 71 -64 79 -63 9
2 22 15 31 30 14 27 14 28 -35 78 l-49 50 62 0 62 0 0 40 0 40 -106 0 -106 0
-52 57 c-93 102 -124 133 -133 133 -4 0 -20 -12 -34 -26z"/>
<path d="M2147 1311 c-37 -59 -72 -113 -79 -118 -7 -6 -60 -18 -118 -28 -58
-9 -109 -21 -114 -26 -6 -6 -6 -19 0 -36 11 -33 39 -40 100 -23 61 17 68 7 34
-47 -36 -57 -37 -63 -6 -92 l25 -23 33 47 c62 88 55 83 67 52 6 -16 11 -36 11
-46 0 -41 22 -81 43 -81 42 0 50 14 43 69 -4 27 -12 67 -20 88 -31 90 -31 93
44 209 39 59 70 113 70 119 0 13 -42 45 -58 45 -5 0 -39 -49 -75 -109z"/>
<path d="M5009 1354 l-23 -25 33 -67 c18 -37 57 -107 85 -157 29 -49 72 -123
95 -162 23 -40 44 -73 47 -73 14 0 54 34 54 47 0 12 -57 121 -126 243 -8 14
-38 66 -67 117 -28 51 -57 94 -63 97 -7 2 -22 -6 -35 -20z"/>
<path d="M2743 1128 l-22 -21 47 -53 47 -54 68 7 c49 4 67 3 67 -6 0 -31 -84
-321 -93 -321 -5 0 -32 14 -59 30 -26 17 -52 30 -55 30 -4 0 -38 -11 -74 -26
-67 -25 -67 -25 -58 -56 4 -17 11 -33 14 -36 3 -3 30 2 60 12 l55 17 76 -50
c42 -28 82 -51 89 -51 16 0 28 32 56 150 19 83 50 196 80 295 5 16 9 45 9 62
l0 33 -103 0 c-102 0 -104 0 -132 30 -34 36 -44 37 -72 8z"/>
<path d="M4290 1071 c-21 -41 -11 -55 68 -93 125 -60 121 -54 88 -129 l-29
-63 23 -18 c13 -10 28 -17 34 -15 6 2 34 47 62 100 36 68 48 99 40 106 -21 17
-248 131 -262 131 -7 0 -18 -9 -24 -19z"/>
<path d="M3564 1018 c-4 -6 -6 -102 -5 -214 l2 -204 -44 30 c-25 16 -49 30
-54 30 -14 0 -57 -49 -50 -56 4 -4 55 -42 114 -84 l108 -78 5 220 5 219 43
-32 c47 -35 64 -33 85 8 l15 28 -109 72 c-69 47 -111 69 -115 61z"/>
<path d="M4315 846 c-25 -51 -45 -100 -45 -107 0 -13 236 -139 258 -139 9 0
32 44 32 60 0 6 -42 31 -92 56 -51 25 -94 46 -95 48 -2 1 10 33 26 71 l29 69
-29 18 c-16 10 -31 18 -34 18 -2 0 -25 -42 -50 -94z"/>
</g>
</svg>
