<?xml version="1.0" standalone="no"?>
<!DOCTYPE svg PUBLIC "-//W3C//DTD SVG 20010904//EN"
 "http://www.w3.org/TR/2001/REC-SVG-20010904/DTD/svg10.dtd">
<svg version="1.0" xmlns="http://www.w3.org/2000/svg"
 width="460.000000pt" height="903.000000pt" viewBox="0 0 460.000000 903.000000"
 preserveAspectRatio="xMidYMid meet">

<g transform="translate(0.000000,903.000000) scale(0.100000,-0.100000)"
fill="#000000" stroke="none">
<path d="M2230 8464 c12 -30 12 -123 1 -181 -7 -37 -6 -43 11 -49 28 -9 32 -1
29 71 -1 38 2 65 8 65 5 0 23 -11 39 -25 27 -22 31 -23 43 -9 9 12 10 20 2 33
-7 11 -8 23 -2 32 13 21 11 26 -13 33 -13 3 -35 17 -50 31 -15 14 -38 25 -52
25 -23 0 -25 -2 -16 -26z m78 -43 c21 -19 30 -41 15 -41 -13 1 -53 38 -53 49
0 16 12 13 38 -8z"/>
<path d="M2539 8473 c-1 -5 0 -23 1 -40 1 -29 -2 -33 -24 -33 -36 0 -42 -18
-13 -40 23 -18 24 -23 14 -62 -5 -24 -14 -49 -20 -56 -12 -15 -9 -19 18 -24
17 -3 20 3 23 45 3 46 5 48 26 43 14 -3 28 0 35 8 8 10 5 15 -14 24 -27 13
-31 35 -15 92 7 25 7 36 -3 42 -15 10 -27 10 -28 1z"/>
<path d="M1957 8459 c-13 -8 -15 -14 -8 -23 13 -16 41 -146 41 -192 0 -26 4
-34 18 -34 28 0 32 9 16 38 -23 44 -17 76 18 111 17 17 38 31 45 31 28 0 -2
31 -54 55 -31 14 -56 25 -57 25 0 0 -9 -5 -19 -11z m79 -50 c3 -6 -1 -18 -10
-27 -15 -15 -18 -15 -26 -2 -5 8 -10 21 -10 28 0 15 36 16 46 1z"/>
<path d="M2756 8408 c-3 -7 -7 -26 -11 -43 -9 -44 -46 -138 -63 -157 -7 -9
-11 -22 -7 -27 12 -20 35 -11 68 25 l32 37 7 -34 c4 -19 5 -42 2 -51 -3 -10 3
-21 16 -28 15 -8 21 -8 24 2 2 7 9 33 16 57 6 24 25 72 42 108 26 54 29 66 17
74 -21 13 -25 12 -50 -26 -33 -48 -49 -45 -49 8 0 40 -13 67 -32 67 -5 0 -10
-6 -12 -12z m12 -137 c-12 -20 -38 -29 -38 -13 0 4 7 18 16 31 21 29 42 13 22
-18z m82 11 c0 -4 -7 -18 -16 -31 -21 -29 -41 -14 -25 18 11 20 41 30 41 13z"/>
<path d="M3010 8243 c-19 -37 -50 -87 -68 -111 -26 -35 -31 -47 -21 -58 21
-25 34 -15 67 51 30 62 56 88 45 45 -6 -23 22 -39 40 -21 13 13 27 14 27 2 0
-9 -13 -29 -75 -117 -7 -10 -6 -17 5 -24 20 -13 30 -12 30 3 0 13 43 84 98
163 26 36 30 49 20 55 -19 13 -30 11 -58 -11 -26 -20 -50 -26 -50 -12 0 4 4
23 10 41 10 35 0 61 -24 61 -6 0 -27 -30 -46 -67z"/>
<path d="M1339 8208 c-1 -2 -3 -25 -5 -52 -2 -27 -10 -56 -19 -66 -21 -23 -6
-33 50 -37 53 -4 70 -21 54 -56 -14 -30 -13 -32 19 -42 22 -6 23 -4 20 31 -2
30 1 39 15 42 10 2 26 -3 36 -12 21 -19 31 -12 31 23 0 23 -4 26 -37 26 -37 0
-38 0 -34 35 10 80 8 85 -21 82 -15 -1 -44 4 -64 13 -37 15 -43 17 -45 13z
m93 -67 c3 -3 4 -19 1 -34 -5 -24 -10 -28 -37 -25 -24 2 -32 8 -34 26 -6 40 4
53 35 46 16 -4 31 -9 35 -13z"/>
<path d="M3285 8112 c-3 -11 -39 -54 -80 -98 -74 -79 -74 -79 -55 -99 15 -15
20 -16 20 -5 1 17 34 60 47 60 5 0 8 -26 8 -57 0 -45 3 -58 15 -58 11 0 14 15
15 65 0 55 3 65 19 68 10 2 29 -2 43 -9 20 -11 26 -10 39 2 13 14 13 19 -1 45
-8 16 -15 36 -15 44 0 19 -28 60 -40 60 -5 0 -11 -8 -15 -18z m30 -63 c8 -26
-6 -42 -28 -33 -20 7 -22 25 -5 42 17 17 26 15 33 -9z"/>
<path d="M1143 8025 c-3 -9 -4 -17 -2 -18 44 -29 79 -61 79 -71 0 -8 -12 -16
-27 -19 -22 -4 -35 1 -61 26 -30 29 -33 30 -49 14 -15 -15 -15 -18 13 -38 16
-12 56 -51 90 -87 56 -59 63 -63 84 -52 12 6 18 15 14 19 -5 4 -26 19 -46 35
-46 33 -48 52 -7 61 27 6 35 3 59 -26 27 -32 29 -33 46 -17 17 16 16 18 -12
39 -16 12 -57 51 -92 86 -66 66 -79 73 -89 48z"/>
<path d="M2100 7945 l0 -94 83 -3 c74 -3 82 -5 82 -23 0 -15 -8 -21 -35 -25
-23 -3 -36 -11 -38 -22 -3 -15 4 -18 33 -18 23 0 38 -5 42 -16 8 -21 -13 -39
-45 -39 -20 0 -27 -5 -27 -20 0 -15 8 -21 35 -25 27 -4 35 -10 35 -25 0 -16
-8 -21 -37 -23 -30 -3 -38 -7 -38 -23 0 -15 7 -19 35 -19 19 0 35 -3 35 -7 0
-5 2 -100 3 -212 2 -173 0 -205 -13 -211 -8 -4 -38 -18 -66 -30 l-51 -22 -146
148 c-80 82 -144 152 -141 156 3 4 23 12 45 18 35 10 46 8 85 -10 36 -18 47
-20 59 -10 21 17 5 35 -51 56 -48 18 -105 14 -154 -11 -25 -13 -29 -13 -46 6
-18 20 -17 22 73 108 l92 87 -131 137 c-123 130 -132 137 -149 121 -17 -15
-12 -22 97 -132 63 -65 113 -121 113 -127 -1 -5 -35 -41 -75 -79 -57 -54 -77
-67 -86 -58 -9 9 -6 18 15 40 25 26 26 30 12 42 -13 11 -19 9 -38 -9 -41 -38
-58 -23 -37 34 22 59 -41 135 -113 135 -33 0 -46 -6 -73 -36 -48 -51 -48 -102
1 -151 35 -35 37 -36 95 -30 67 7 75 -1 39 -40 -18 -19 -20 -25 -9 -38 12 -14
16 -13 42 12 22 21 31 24 40 15 10 -10 -4 -29 -65 -90 l-77 -77 -118 118 c-92
92 -120 115 -130 105 -7 -7 -12 -15 -12 -19 0 -12 254 -259 265 -259 6 0 46
38 89 85 42 47 83 85 91 85 7 0 18 -7 26 -16 10 -13 10 -20 -3 -42 -35 -61
-30 -152 10 -202 16 -20 19 -21 32 -5 12 14 11 20 -2 43 -25 44 -29 79 -14
117 8 19 18 35 21 35 3 0 47 -42 96 -92 50 -51 116 -118 146 -150 l56 -56 -22
-49 c-13 -26 -26 -55 -30 -63 -7 -13 -57 -15 -357 -15 l-349 0 -5 165 -5 165
-92 3 -93 3 0 -26 c0 -21 4 -26 23 -25 12 1 46 2 75 1 l53 -1 -3 -57 -3 -58
-42 -3 c-34 -3 -43 -7 -43 -22 0 -15 9 -19 43 -22 l42 -3 0 -60 0 -60 -72 1
c-72 0 -73 0 -73 -25 0 -26 1 -26 72 -26 l73 0 0 -55 0 -55 -72 -3 c-68 -3
-73 -4 -73 -25 0 -22 3 -23 63 -19 77 5 89 -6 85 -75 l-3 -48 -73 0 c-68 0
-72 -1 -72 -22 0 -22 3 -23 95 -23 l95 0 0 165 0 165 355 0 355 0 11 -45 c6
-24 17 -50 25 -56 8 -6 14 -17 14 -23 0 -6 -52 -63 -115 -126 -125 -124 -134
-127 -142 -48 -3 31 1 54 16 82 15 30 18 43 10 53 -17 20 -23 16 -47 -26 -27
-47 -29 -114 -6 -172 16 -38 16 -42 0 -57 -16 -16 -19 -15 -40 11 -22 27 -23
27 -39 9 -16 -18 -16 -20 3 -37 24 -22 26 -43 3 -52 -12 -5 -31 9 -69 52 l-52
58 -136 -135 c-130 -128 -135 -135 -118 -151 18 -16 24 -11 131 98 62 63 115
115 120 115 4 0 25 -18 46 -40 l39 -40 -27 -27 -26 -27 -25 23 c-21 20 -28 22
-41 11 -14 -12 -14 -15 5 -35 26 -27 25 -37 -3 -63 l-23 -22 -24 25 c-18 19
-26 22 -37 14 -19 -16 -16 -28 10 -49 l22 -19 -33 -34 c-29 -30 -31 -35 -17
-47 14 -11 21 -8 49 19 l33 32 22 -27 c20 -26 23 -26 38 -11 16 15 15 18 -7
42 l-24 26 27 26 26 27 26 -24 c24 -22 27 -23 42 -7 15 15 15 18 -11 38 l-27
22 27 28 28 29 43 -42 43 -42 -117 -118 c-105 -106 -116 -119 -102 -133 13
-14 29 -2 148 116 l133 131 -58 59 c-55 55 -57 60 -41 76 16 16 18 15 42 -7
24 -23 26 -23 43 -6 16 17 16 19 -5 33 -26 18 -29 35 -9 52 12 10 20 9 39 -4
43 -28 119 -31 171 -5 45 21 59 46 33 55 -7 3 -30 -4 -51 -15 -22 -11 -50 -17
-63 -15 -13 3 -34 7 -48 10 -14 3 -25 11 -25 18 0 7 51 63 113 125 l113 113
39 -20 c22 -11 51 -24 65 -29 l25 -9 -2 -254 c-1 -140 -2 -257 -2 -261 -1 -5
-75 -8 -166 -8 l-164 0 1 -117 c1 -82 -2 -118 -10 -121 -17 -5 -15 -33 5 -55
17 -18 17 -19 0 -32 -9 -6 -17 -22 -17 -34 0 -18 6 -21 45 -21 41 0 45 2 45
25 0 14 -4 25 -9 25 -17 0 -20 29 -6 44 17 17 19 38 6 52 -11 10 -17 181 -8
191 12 11 37 -7 37 -27 0 -29 38 -27 42 3 3 21 8 22 101 25 61 2 98 -1 99 -8
4 -34 2 -35 -77 -40 l-80 -5 -3 -92 c-3 -88 -2 -93 18 -93 18 0 20 6 20 69 0
39 3 72 8 74 4 2 31 2 60 -1 l52 -4 0 -94 c0 -56 -4 -94 -10 -94 -5 0 -10 -11
-10 -25 0 -23 4 -25 45 -25 39 0 45 3 45 21 0 11 -7 27 -16 36 -8 9 -13 22
-10 30 3 8 6 46 6 84 l0 69 60 0 60 0 0 -70 c0 -62 2 -70 19 -70 25 0 27 5 23
105 l-4 86 -76 -2 c-77 -2 -77 -2 -80 24 l-3 27 100 0 101 0 0 -26 c0 -21 4
-25 23 -22 14 2 23 11 25 26 2 15 9 22 20 20 14 -3 17 -18 19 -96 1 -73 -1
-94 -13 -99 -15 -6 -20 -43 -5 -43 17 0 21 -33 6 -50 -29 -33 -19 -50 30 -50
41 0 45 2 45 24 0 14 -4 28 -10 31 -15 9 -12 34 5 52 14 14 14 17 1 32 -11 12
-16 46 -18 130 l-3 112 -160 2 -160 2 -3 261 -2 261 42 12 c24 7 51 20 61 29
9 8 19 13 22 11 62 -57 295 -296 295 -302 0 -5 -10 -18 -22 -29 -20 -17 -21
-20 -5 -35 15 -16 18 -15 42 7 24 22 27 23 42 7 16 -15 15 -18 -6 -41 -14 -15
-21 -32 -18 -40 8 -21 20 -20 42 4 21 24 38 25 55 5 10 -12 7 -19 -14 -38 -25
-23 -25 -25 -8 -41 17 -15 20 -14 42 9 22 24 24 24 42 8 18 -16 16 -19 -42
-78 l-60 -61 65 -64 c62 -59 67 -62 83 -47 15 16 13 20 -33 67 l-49 50 42 42
42 42 49 -48 c43 -43 52 -47 66 -36 14 12 11 18 -29 59 -26 26 -46 51 -46 56
1 10 66 85 75 85 2 0 25 -23 51 -50 44 -47 48 -49 65 -34 17 15 14 19 -44 80
-34 35 -66 64 -72 64 -5 0 -33 -25 -61 -57 -45 -50 -54 -55 -68 -44 -22 19
-20 36 7 54 21 15 21 16 4 34 -18 17 -19 17 -37 -4 -21 -27 -33 -29 -50 -8
-11 13 -9 20 10 40 19 20 21 27 10 40 -12 14 -15 13 -36 -6 -24 -22 -54 -20
-54 4 0 8 9 22 20 32 19 17 19 19 3 37 -17 19 -18 19 -39 -8 l-22 -27 -153
153 -152 152 18 31 c10 17 21 44 25 61 l6 31 142 3 c135 2 142 2 142 -17 0
-29 -62 -90 -100 -97 -33 -7 -49 -29 -34 -44 5 -5 26 -5 49 0 48 10 122 85
127 128 2 21 8 27 28 27 21 0 26 -5 28 -33 3 -28 7 -33 25 -30 17 2 22 10 22
33 0 25 4 30 24 30 18 0 27 -9 40 -42 21 -53 44 -78 95 -103 56 -27 78 -26 74
2 -2 15 -13 24 -34 30 -34 9 -104 78 -104 103 0 12 17 15 95 15 l94 0 3 -82 3
-82 93 -3 c77 -3 93 -1 98 12 10 24 -2 30 -79 35 l-72 5 0 55 0 55 78 3 c68 3
77 5 77 22 0 17 -9 19 -77 22 l-78 3 0 50 c-1 75 1 77 51 69 42 -6 44 -5 44
20 0 26 -1 26 -70 26 l-69 0 -3 -82 -3 -83 -92 -3 c-106 -3 -111 2 -65 61 29
38 60 57 92 57 15 0 20 7 20 26 0 24 -2 25 -32 19 -60 -12 -108 -52 -135 -111
-20 -45 -29 -55 -46 -52 -18 2 -22 10 -22 38 0 28 -4 35 -20 35 -15 0 -21 -8
-25 -35 -4 -29 -9 -35 -29 -35 -20 0 -27 7 -34 35 -5 19 -23 50 -40 67 -37 39
-113 71 -129 55 -17 -17 -1 -42 26 -42 32 0 106 -69 106 -98 0 -21 -4 -22
-140 -21 l-140 0 -5 27 c-3 15 -15 45 -26 67 l-20 39 155 155 c168 168 174
171 183 87 4 -34 1 -53 -14 -79 -18 -29 -18 -36 -7 -52 14 -18 14 -18 29 1 39
49 47 138 18 199 -16 33 -16 37 -1 52 15 15 19 15 53 -1 41 -20 132 -23 149
-6 17 17 -11 30 -65 30 -25 0 -54 7 -65 14 -18 14 -17 17 23 58 l43 43 58 -58
58 -57 63 64 c43 44 62 69 58 80 -9 24 -19 20 -67 -29 -24 -25 -49 -45 -55
-44 -5 0 -25 19 -44 40 l-34 40 49 50 c46 47 48 50 30 67 -17 16 -20 15 -65
-36 l-47 -53 -42 40 c-23 22 -42 44 -42 49 0 5 21 28 46 52 27 25 43 47 40 56
-10 26 -31 15 -94 -49 l-63 -63 56 -53 c30 -29 55 -58 55 -65 0 -15 -62 -76
-77 -76 -17 0 -35 56 -28 88 6 29 -17 63 -33 48 -14 -15 -7 -122 11 -149 17
-26 16 -28 -2 -46 -19 -19 -22 -19 -52 -4 -55 27 -111 28 -163 2 -25 -12 -46
-28 -46 -35 0 -22 28 -23 66 -3 21 10 46 19 55 19 27 0 79 -21 79 -32 0 -14
-291 -308 -305 -308 -5 0 -28 9 -50 19 -22 11 -48 22 -57 25 -16 5 -18 24 -18
221 l0 215 35 0 c28 0 35 4 35 20 0 16 -7 20 -35 20 -30 0 -35 3 -35 24 0 21
6 25 33 28 24 2 32 8 32 23 0 16 -7 20 -30 20 -25 0 -30 4 -30 25 0 21 5 26
33 28 28 3 33 7 30 25 -2 16 -10 21 -33 22 -23 0 -31 5 -33 22 -3 21 1 22 79
25 l82 3 0 90 c0 84 -2 90 -22 93 -20 3 -21 -1 -21 -67 l0 -71 -60 0 -60 0 0
70 c0 67 -1 70 -24 70 -23 0 -24 -2 -23 -67 l2 -68 -58 -5 c-32 -3 -60 -3 -63
-1 -2 2 -4 35 -4 73 0 61 -2 68 -20 68 -19 0 -20 -7 -20 -95z m-495 -270 c24
-23 34 -65 16 -65 -12 0 -81 69 -81 81 0 18 42 8 65 -16z m-58 -57 c37 -36 42
-58 14 -58 -27 0 -59 30 -67 63 -9 37 11 35 53 -5z m789 -533 c50 -14 99 -56
124 -103 20 -41 15 -125 -10 -171 -28 -49 -84 -90 -134 -98 -90 -14 -190 50
-215 140 -26 90 33 200 125 232 50 18 51 18 110 0z"/>
<path d="M2194 7039 c-7 -11 0 -18 51 -55 19 -14 19 -14 0 -28 -11 -7 -31 -23
-45 -35 l-25 -21 40 -35 40 -36 -35 -29 c-23 -20 -31 -33 -24 -40 7 -7 21 0
44 20 19 16 40 29 45 29 6 0 26 -13 45 -29 24 -21 37 -27 45 -19 10 10 7 13
-50 55 -18 13 -18 16 -4 27 8 7 28 22 43 34 l28 22 -29 25 c-15 14 -31 26 -35
26 -19 0 -5 31 22 50 17 12 30 28 30 36 0 20 -6 18 -51 -18 -29 -23 -44 -29
-54 -23 -7 6 -27 20 -43 33 -22 16 -33 19 -38 11z m143 -142 c-2 -6 -15 -19
-29 -30 -26 -19 -26 -19 -57 4 -17 12 -31 26 -31 30 0 4 14 16 32 27 l32 21
28 -21 c16 -11 27 -25 25 -31z"/>
<path d="M961 7775 c-38 -19 -70 -51 -59 -59 1 -1 26 -15 53 -31 28 -15 74
-45 103 -67 43 -32 56 -37 68 -28 19 17 18 40 -2 40 -9 0 -31 9 -49 20 -38 23
-48 63 -29 109 11 27 10 30 -9 35 -27 7 -23 8 -76 -19z m47 -48 c2 -12 -3 -17
-17 -17 -12 0 -21 6 -21 13 0 31 32 34 38 4z"/>
<path d="M3680 7556 c-30 -19 -103 -51 -162 -70 -20 -6 -22 -14 -10 -34 6 -9
22 -5 65 19 31 17 61 28 66 25 5 -4 5 -21 0 -43 -5 -21 -9 -41 -9 -45 0 -14
28 -9 44 7 8 8 24 15 36 15 16 0 20 4 15 19 -3 10 1 38 9 61 24 71 7 86 -54
46z m30 -45 c0 -25 -21 -61 -36 -61 -11 0 -14 5 -9 18 4 9 10 25 12 35 5 18
33 24 33 8z"/>
<path d="M3750 7300 c-30 -10 -81 -22 -112 -26 -56 -6 -67 -15 -50 -42 7 -10
14 -10 38 3 30 16 54 19 54 9 0 -4 -16 -27 -36 -50 -19 -24 -32 -48 -29 -54
11 -17 24 -11 40 18 8 15 26 41 40 57 l26 30 28 -32 c28 -33 76 -47 65 -19 -3
8 2 28 10 45 9 16 16 41 16 56 0 30 -12 31 -90 5z m48 -48 c4 -26 -28 -31 -47
-8 -10 11 -8 17 6 25 24 14 37 9 41 -17z"/>
<path d="M745 7164 c-10 -20 -32 -44 -47 -55 -48 -35 -36 -44 80 -58 145 -19
157 -19 157 -1 0 11 -13 16 -45 18 -71 4 -150 22 -150 34 0 7 14 23 31 37 30
25 30 27 12 43 -18 17 -20 16 -38 -18z"/>
<path d="M3858 7045 c-2 -3 -54 -6 -114 -7 -106 -3 -109 -4 -112 -27 -3 -21
-1 -23 35 -18 116 17 133 18 133 7 0 -7 -9 -14 -20 -17 -11 -3 -20 -14 -20
-24 0 -12 7 -19 20 -19 12 0 20 -7 20 -16 0 -14 -12 -16 -80 -12 -78 3 -80 2
-80 -20 0 -21 3 -22 43 -15 23 5 81 8 130 8 76 0 87 2 87 18 0 11 -15 23 -40
33 -22 9 -40 20 -40 25 0 12 42 39 62 39 13 0 18 8 18 25 0 18 -5 25 -18 25
-10 0 -21 -2 -24 -5z"/>
<path d="M712 6886 c-11 -24 -25 -47 -31 -50 -18 -12 -14 -49 5 -42 9 3 65 6
125 6 104 0 109 1 109 21 0 15 -5 19 -17 15 -20 -5 -113 -10 -155 -8 -34 2
-36 21 -4 55 17 18 21 28 13 36 -18 18 -25 13 -45 -33z"/>
<path d="M795 6670 c-3 -6 -17 -7 -29 -4 -20 5 -24 1 -30 -30 -4 -19 -15 -45
-25 -57 -22 -27 -16 -63 8 -54 9 4 67 17 129 28 61 12 112 24 112 27 0 3 -4
11 -9 19 -8 12 -18 12 -67 -2 -70 -20 -85 -11 -55 32 12 17 19 35 16 41 -8 13
-42 13 -50 0z m-2 -36 c8 -8 -24 -64 -35 -64 -11 0 -10 13 2 44 9 26 21 32 33
20z"/>
<path d="M3554 6416 c-7 -19 3 -36 22 -36 21 0 154 -53 154 -61 0 -4 -15 -18
-32 -30 -18 -12 -35 -24 -37 -26 -2 -1 2 -10 9 -18 12 -14 17 -13 44 14 17 16
43 34 59 40 40 15 33 35 -17 49 -37 9 -80 28 -188 80 -5 2 -11 -3 -14 -12z"/>
<path d="M3467 6192 c-13 -2 -16 -9 -12 -20 17 -41 16 -51 -5 -62 -15 -8 -25
-8 -34 -1 -17 15 -24 6 -18 -24 5 -30 1 -29 40 -9 18 8 36 13 41 10 5 -3 12
-29 16 -56 4 -27 10 -52 15 -55 4 -3 21 2 36 10 16 8 43 15 61 15 32 0 51 14
34 25 -6 3 -13 32 -17 65 -6 58 -17 72 -39 51 -6 -5 -24 -12 -41 -15 -36 -8
-59 12 -51 44 6 23 0 28 -26 22z m132 -118 c15 -34 0 -54 -40 -54 -22 0 -30 6
-35 25 -9 37 2 55 34 55 21 0 32 -7 41 -26z"/>
<path d="M1100 6044 c-36 -29 -68 -54 -72 -54 -12 0 -9 35 4 48 14 14 11 17
-19 26 -21 7 -23 4 -23 -36 0 -24 -7 -54 -16 -66 -24 -35 -5 -50 55 -44 30 2
51 0 55 -7 13 -21 36 -12 36 14 0 22 -4 25 -35 25 -19 0 -35 5 -35 10 0 9 59
50 136 96 16 10 17 13 5 28 -7 9 -16 16 -20 15 -3 0 -35 -25 -71 -55z"/>
<path d="M3846 5981 c-46 -153 -161 -334 -310 -488 l-60 -62 56 -59 c71 -75
129 -164 164 -253 27 -69 28 -70 41 -45 57 109 138 645 131 871 l-3 100 -19
-64z"/>
<path d="M704 5930 c13 -226 115 -675 198 -870 l20 -45 27 86 c34 104 77 183
148 266 l52 62 -33 20 c-49 31 -205 195 -265 281 -51 73 -109 178 -138 250
-13 33 -13 30 -9 -50z"/>
<path d="M3262 5942 c-10 -7 -9 -16 3 -45 8 -20 15 -47 15 -59 1 -23 21 -58
34 -58 4 0 20 16 37 35 17 19 34 35 38 35 12 0 31 -48 31 -75 0 -20 5 -25 25
-25 31 0 31 12 3 51 -13 18 -22 43 -21 64 1 19 -5 40 -13 46 -12 10 -21 4 -51
-30 -41 -48 -53 -44 -62 20 -6 44 -17 55 -39 41z"/>
<path d="M1299 5903 c-1 -5 -2 -24 -3 -43 l-1 -35 -55 0 -55 0 1 -70 1 -69 74
1 c66 0 74 2 71 19 -13 82 -3 109 38 101 22 -5 29 -2 33 13 7 26 0 30 -35 18
-32 -11 -53 3 -43 30 3 6 8 19 11 27 4 11 0 15 -15 15 -12 0 -22 -3 -22 -7z
m1 -148 c0 -29 -4 -34 -30 -40 -39 -9 -50 0 -50 40 0 29 4 34 28 37 42 6 52
-1 52 -37z"/>
<path d="M3058 5773 c-16 -15 -14 -19 25 -63 70 -78 89 -133 33 -96 -24 15
-26 15 -35 -3 -13 -24 -5 -31 38 -31 20 0 47 -7 59 -16 33 -23 52 -4 45 42 -3
21 0 45 7 60 15 27 13 31 -15 36 -17 2 -20 -3 -20 -31 0 -19 -5 -36 -10 -38
-11 -3 -95 126 -95 146 0 16 -13 14 -32 -6z"/>
<path d="M1530 5695 c-17 -41 -40 -60 -40 -35 0 12 -37 13 -44 1 -3 -4 3 -16
14 -26 26 -24 25 -30 -11 -76 -25 -32 -29 -42 -19 -54 16 -19 30 -19 30 1 0 8
5 24 11 35 8 15 14 18 23 9 28 -23 60 12 35 37 -14 14 3 62 37 102 22 27 22
27 3 39 -18 11 -21 8 -39 -33z"/>
<path d="M2177 5600 c-57 -96 -187 -323 -187 -326 0 -2 23 -4 50 -4 46 0 52 3
70 33 11 17 18 38 15 44 -5 15 61 133 75 133 4 0 22 -24 38 -54 30 -52 32 -53
68 -49 21 2 39 5 40 6 4 4 -140 247 -146 247 -3 0 -14 -14 -23 -30z"/>
<path d="M2311 5594 c-12 -19 -21 -40 -21 -45 0 -20 31 -69 43 -69 13 0 77
-99 77 -119 0 -7 -24 -11 -63 -11 l-63 0 -23 -40 -22 -40 156 0 156 0 -25 43
c-15 23 -61 104 -104 179 -42 76 -80 138 -84 138 -3 0 -15 -16 -27 -36z"/>
<path d="M2990 5472 c0 -5 9 -21 20 -35 27 -34 27 -51 -1 -37 -11 6 11 -29 50
-79 39 -50 71 -98 71 -106 0 -8 4 -15 8 -15 11 0 52 -74 52 -93 0 -8 4 -17 9
-19 6 -1 12 -31 16 -65 l5 -63 -39 -24 c-64 -41 -176 -83 -282 -106 -115 -25
-286 36 -419 151 l-70 60 0 -35 c0 -77 21 -137 61 -176 47 -45 49 -56 8 -35
-17 9 -33 15 -35 13 -2 -3 4 -24 13 -49 23 -63 67 -106 127 -125 28 -8 58 -18
66 -20 27 -9 -11 -23 -44 -17 l-30 6 33 -40 c36 -44 83 -63 162 -63 41 0 41
-1 25 -19 -16 -17 -16 -19 6 -25 37 -9 112 -7 148 5 28 10 34 9 42 -5 15 -28
90 -21 129 11 21 18 34 23 37 15 4 -14 34 -1 70 31 20 18 22 19 22 3 0 -46
-74 -145 -137 -182 -46 -26 -49 -44 -7 -44 13 0 24 -4 24 -10 0 -10 -71 -45
-105 -52 -17 -3 -15 -7 16 -31 39 -29 44 -29 133 8 16 7 17 5 8 -11 -6 -11
-22 -26 -37 -34 -32 -17 -20 -26 55 -35 49 -6 59 -4 94 20 21 14 41 24 44 21
2 -3 -8 -22 -23 -41 -15 -20 -25 -38 -22 -41 12 -13 90 32 121 70 27 34 37 58
47 112 6 38 17 76 24 84 7 8 21 43 30 78 18 73 61 173 77 183 6 4 12 29 13 56
1 27 4 54 8 59 3 6 0 35 -8 65 -17 71 -25 148 -14 154 10 7 -75 161 -109 197
-13 14 -37 32 -53 38 -18 8 -29 20 -29 32 0 21 -114 134 -163 161 -17 9 -44
17 -60 17 -32 0 -57 12 -107 51 -38 29 -80 46 -80 31z m326 -228 c47 -55 50
-61 29 -66 -9 -2 4 -12 32 -26 26 -13 64 -31 83 -40 55 -27 97 -108 109 -212
5 -47 13 -93 16 -103 6 -13 3 -16 -9 -11 -14 6 -14 3 -1 -22 19 -38 19 -108 0
-124 -8 -7 -15 -20 -15 -29 0 -18 -65 -187 -79 -205 -4 -6 -16 -47 -26 -91
-16 -75 -52 -145 -75 -145 -5 0 -7 14 -3 30 7 36 2 37 -61 5 -71 -36 -93 -33
-61 9 8 11 15 30 15 43 l0 24 -43 -26 c-53 -30 -65 -23 -30 19 l26 31 -32 6
c-47 10 -49 17 -13 45 48 38 83 105 92 177 4 34 4 66 -1 71 -6 6 -9 6 -9 -1 0
-7 -14 -22 -31 -34 -26 -18 -33 -19 -40 -8 -7 11 -12 9 -25 -10 -16 -22 -85
-60 -111 -61 -7 0 -13 7 -13 16 0 12 -5 14 -17 9 -41 -18 -134 -28 -145 -17
-9 9 -7 16 8 27 18 15 18 15 -7 9 -15 -3 -30 -1 -33 4 -4 7 -17 7 -36 2 -31
-9 -100 4 -100 19 0 5 16 12 35 15 53 10 49 17 -42 60 -18 9 -43 27 -57 41
-14 14 -30 25 -36 25 -14 0 -2 43 13 49 5 2 -5 10 -22 17 -31 13 -36 39 -6 27
9 -3 22 0 30 7 8 6 19 9 25 5 5 -3 10 -3 10 2 0 4 -16 18 -35 31 -19 12 -35
27 -35 32 0 13 13 13 26 0 16 -16 146 -58 200 -65 91 -12 325 73 409 148 l40
36 -18 32 c-19 35 -16 49 8 29 20 -17 19 -4 -3 28 -10 15 -23 39 -30 55 l-12
27 40 -6 c36 -6 40 -4 45 18 5 21 -5 57 -33 111 -2 4 1 7 6 7 6 0 27 -21 48
-46z"/>
<path d="M3344 5106 c0 -17 -4 -40 -9 -50 -7 -16 -5 -18 7 -13 19 7 53 -27 43
-42 -9 -16 -25 -13 -25 5 0 8 -4 12 -10 9 -17 -10 31 -81 102 -152 37 -37 71
-64 74 -60 4 4 3 32 -2 63 -11 72 -32 88 -68 55 -24 -23 -46 -22 -46 2 0 26
51 67 83 68 l32 1 -30 13 c-16 7 -57 40 -91 73 l-60 59 0 -31z"/>
<path d="M3292 4978 c-15 -20 -26 -78 -24 -135 2 -35 -2 -53 -10 -53 -6 0 -9
-3 -5 -6 7 -8 89 40 112 66 25 28 45 9 45 -44 0 -62 17 -107 55 -150 37 -40
41 -51 25 -61 -5 -3 -29 21 -52 54 -24 33 -49 60 -57 60 -7 1 -4 -7 10 -18
l22 -18 -23 -33 -24 -33 54 -50 54 -50 14 34 c8 19 19 62 25 96 13 72 4 93
-31 74 -28 -15 -42 -14 -42 3 0 8 14 19 31 25 27 9 29 13 18 32 -6 12 -44 57
-84 100 -40 43 -76 87 -80 99 -7 23 -18 26 -33 8z"/>
<path d="M3219 4903 c-8 -9 -32 -30 -54 -46 -22 -17 -32 -27 -22 -23 10 3 29
6 43 6 18 0 29 10 44 40 21 40 14 54 -11 23z"/>
<path d="M3155 4811 c-19 -8 -19 -8 2 -19 12 -7 34 -12 49 -12 26 0 27 0 9 20
-19 21 -29 23 -60 11z"/>
<path d="M3351 4807 c-6 -8 -28 -22 -49 -31 l-39 -18 19 -55 c10 -31 18 -77
19 -102 l1 -46 15 34 c8 19 23 46 34 60 13 17 16 28 9 35 -12 12 -13 26 -1 45
8 12 12 12 25 2 10 -8 16 -9 16 -3 0 6 -4 14 -10 17 -5 3 -10 22 -10 41 0 36
-10 43 -29 21z"/>
<path d="M2963 4803 c-38 -5 -39 -7 -14 -32 18 -18 20 -18 77 10 l59 29 -45
-2 c-25 -1 -60 -3 -77 -5z"/>
<path d="M2690 4791 c0 -7 7 -25 15 -41 17 -33 61 -42 71 -15 4 8 13 15 21 15
8 0 13 -6 10 -13 -4 -10 3 -12 24 -9 15 2 43 -1 60 -7 24 -8 36 -8 46 1 11 9
10 15 -7 33 -17 18 -28 21 -78 17 -52 -4 -96 3 -144 23 -11 4 -18 3 -18 -4z"/>
<path d="M3099 4784 c-24 -29 53 -80 98 -63 37 14 34 27 -8 34 -23 4 -49 15
-59 25 -16 16 -20 17 -31 4z"/>
<path d="M3006 4737 c-16 -11 -16 -15 -2 -42 8 -16 21 -30 29 -31 8 -1 41 -19
73 -39 l58 -37 28 31 c15 17 28 37 28 45 0 19 -57 26 -71 9 -15 -18 -34 -16
-50 4 -11 12 -11 17 -2 20 15 5 -38 53 -59 53 -8 0 -22 -6 -32 -13z"/>
<path d="M2950 4713 c0 -6 5 -15 10 -18 19 -12 10 -25 -13 -20 -19 5 -26 0
-41 -32 -18 -37 -18 -38 4 -55 26 -21 50 -23 74 -5 15 11 17 21 11 55 -6 39
-44 102 -45 75z"/>
<path d="M2803 4700 c-55 -8 -59 -14 -29 -38 15 -11 26 -25 26 -31 0 -5 9 -15
19 -21 17 -9 24 -4 50 34 17 25 31 47 31 49 0 9 -55 12 -97 7z"/>
<path d="M3034 4615 c5 -20 2 -33 -11 -48 -18 -20 -18 -20 36 -14 29 4 56 9
59 12 8 7 -22 37 -59 59 l-32 19 7 -28z"/>
<path d="M3365 4538 c3 -18 8 -46 11 -63 12 -61 53 -97 68 -59 4 9 -2 22 -15
32 -22 19 -18 52 8 52 10 0 12 -6 8 -21 -5 -15 -4 -19 4 -15 18 12 13 34 -11
47 -13 7 -27 18 -31 25 -4 8 -17 19 -28 24 -18 10 -19 8 -14 -22z"/>
<path d="M3322 4523 c-7 -12 -21 -57 -31 -100 -10 -43 -22 -85 -25 -93 -9 -21
48 -24 91 -4 38 18 39 23 18 65 -9 16 -21 57 -28 92 -12 56 -14 60 -25 40z"/>
<path d="M1654 5420 c-24 -12 -63 -48 -93 -85 -46 -56 -71 -78 -71 -60 0 18
44 115 60 133 24 26 20 27 -46 7 -61 -18 -94 -52 -124 -127 -12 -32 -26 -58
-31 -58 -12 0 -23 46 -15 65 11 30 -11 14 -43 -30 -39 -54 -70 -122 -71 -153
0 -18 -4 -22 -18 -18 -12 4 -28 -5 -49 -26 -36 -37 -103 -160 -103 -188 0 -33
-11 -48 -30 -43 -15 4 -20 -4 -30 -53 -7 -32 -10 -87 -7 -121 3 -39 1 -63 -5
-63 -7 0 -6 -5 0 -13 15 -18 17 -72 7 -188 -5 -64 -3 -119 5 -168 11 -68 13
-72 35 -67 18 5 28 -2 48 -32 33 -47 132 -143 124 -119 -9 24 3 21 43 -13 38
-33 83 -39 154 -18 52 15 53 16 34 31 -9 6 -18 24 -22 39 l-6 27 36 -15 c42
-17 71 -13 105 15 l24 20 -38 16 c-30 12 -36 19 -28 29 9 10 5 16 -17 25 -38
16 -122 94 -122 113 0 8 11 20 25 26 28 13 52 16 42 5 -8 -7 11 -33 23 -33 5
0 6 9 3 20 -8 30 21 25 36 -6 9 -21 14 -24 26 -14 23 20 18 39 -21 73 -31 28
-43 32 -92 32 l-57 0 -3 33 -3 34 40 -7 c34 -6 47 -2 83 22 41 28 89 35 128
20 8 -3 28 -8 43 -12 16 -3 48 -26 73 -50 48 -48 57 -54 48 -30 -8 21 2 19 25
-6 21 -23 41 -18 41 9 0 9 -11 37 -25 61 -15 26 -25 59 -25 83 0 44 -17 83
-49 112 -12 11 -21 25 -21 32 0 25 110 131 169 163 116 62 292 105 456 114 58
3 62 14 14 42 -41 24 -168 27 -297 6 -85 -14 -103 -11 -84 12 7 8 9 17 5 20
-14 14 -96 6 -134 -13 -22 -12 -45 -17 -51 -13 -16 9 -95 4 -127 -9 -14 -6
-42 -12 -61 -15 -19 -2 -38 -9 -42 -16 -4 -7 -13 -21 -22 -32 -14 -19 -15 -19
-22 -2 -10 27 23 181 50 236 15 29 67 88 136 154 l111 107 -53 0 c-33 0 -68
-8 -94 -20z m-46 -147 c-87 -91 -111 -152 -112 -285 -1 -65 3 -101 12 -109 10
-11 12 -10 12 3 0 9 11 30 25 45 19 22 27 25 34 14 6 -10 13 -11 29 -2 12 6
25 10 29 9 4 -2 23 4 42 12 24 9 36 11 38 3 3 -7 20 -5 51 7 26 9 64 20 85 24
33 6 37 5 37 -14 0 -18 4 -20 43 -14 23 4 52 10 63 15 12 4 26 3 31 -2 5 -5
22 -5 43 1 44 13 120 13 120 1 0 -11 -17 -17 -75 -27 -53 -9 -167 -50 -235
-84 -64 -32 -141 -97 -182 -154 -25 -34 -26 -41 -14 -55 19 -21 36 -67 29 -75
-3 -3 -12 -1 -20 6 -19 15 -23 8 -25 -45 -3 -52 -8 -56 -36 -27 -12 13 -25 18
-36 14 -9 -3 -23 -1 -31 6 -17 14 -68 -1 -135 -42 -34 -22 -52 -27 -76 -22
l-32 6 5 -49 c7 -67 21 -79 78 -66 60 14 62 -8 3 -27 -24 -7 -47 -17 -52 -22
-6 -4 -18 -8 -27 -8 -15 0 -13 -8 11 -53 16 -29 43 -65 59 -81 17 -17 31 -33
31 -37 0 -10 -42 -8 -56 3 -14 10 -23 -30 -19 -89 l3 -42 -46 -7 c-46 -7 -47
-6 -93 44 -26 28 -54 71 -63 94 l-16 43 4 -52 c3 -29 3 -53 0 -53 -10 0 -44
44 -65 84 -12 23 -24 70 -28 110 l-7 71 -8 -45 c-4 -25 -6 -55 -4 -67 5 -34
-16 -32 -23 2 -9 42 -9 180 0 243 4 30 3 96 -3 147 -6 59 -6 111 0 142 8 42
12 48 32 46 17 -2 22 2 22 22 0 41 36 123 76 173 47 57 54 63 76 58 13 -3 19
7 28 44 7 28 26 65 45 87 32 37 33 38 53 20 20 -19 21 -18 45 30 14 26 38 58
55 70 29 21 48 21 35 -1 -10 -15 -11 -126 -1 -126 4 0 8 4 8 9 0 16 72 96 85
93 6 -1 32 11 56 27 24 17 46 28 48 25 2 -2 -25 -34 -61 -71z"/>
<path d="M1399 5191 c-16 -16 -26 -39 -27 -61 -3 -51 -30 -125 -53 -146 -18
-16 -20 -26 -14 -77 4 -32 13 -71 21 -85 18 -34 18 -52 1 -52 -15 0 -32 47
-43 117 l-6 41 -40 -28 c-22 -16 -45 -31 -51 -33 -18 -7 37 -61 93 -91 l49
-27 41 55 c59 81 72 126 37 126 -32 0 -87 22 -87 35 0 8 7 15 16 15 9 0 22 7
28 16 13 18 46 9 46 -12 0 -8 4 -14 9 -14 9 0 21 48 21 85 0 12 9 34 20 47 10
14 17 28 13 32 -3 3 2 15 12 26 19 22 7 28 -14 8 -10 -11 -15 -9 -26 5 -7 11
-11 25 -8 33 8 21 -9 15 -38 -15z"/>
<path d="M1297 5102 c-27 -28 -35 -66 -17 -77 15 -9 12 -35 -4 -35 -7 0 -19 7
-26 15 -10 12 -16 13 -26 4 -14 -11 -74 -111 -74 -123 0 -12 77 38 117 77 40
38 73 106 73 149 0 25 -12 23 -43 -10z"/>
<path d="M1380 4970 c0 -5 5 -10 11 -10 5 0 7 5 4 10 -3 6 -8 10 -11 10 -2 0
-4 -4 -4 -10z"/>
<path d="M1772 4928 c-21 -6 -36 -18 -42 -33 -11 -30 -30 -33 -30 -5 0 23 -1
24 -35 8 -26 -12 -36 -32 -11 -22 8 3 33 -4 56 -16 27 -14 45 -18 53 -12 7 6
47 28 90 50 l77 39 -62 0 c-35 0 -78 -5 -96 -9z"/>
<path d="M1446 4874 c-3 -8 -6 -26 -6 -39 0 -21 -25 -53 -35 -43 -2 2 -36 -27
-75 -64 -70 -68 -151 -118 -189 -118 -29 0 -35 -17 -16 -46 38 -58 183 -86
225 -44 25 25 27 78 3 87 -10 4 -22 -2 -34 -18 -51 -68 -63 -80 -77 -77 -9 2
-19 17 -23 33 -4 17 -11 40 -14 53 -5 16 -3 22 7 22 8 0 19 -14 24 -31 13 -45
27 -40 50 21 17 42 36 67 83 108 64 54 93 64 109 35 13 -23 74 -6 78 21 1 10
16 40 33 67 17 27 27 49 22 49 -4 0 -26 -16 -49 -36 -49 -42 -71 -41 -93 4
-13 25 -18 29 -23 16z m-76 -138 c0 -3 -4 -8 -10 -11 -5 -3 -10 -1 -10 4 0 6
5 11 10 11 6 0 10 -2 10 -4z"/>
<path d="M1612 4838 c-5 -7 -17 -28 -27 -47 -19 -38 -13 -36 52 16 23 19 44
30 47 24 10 -16 -70 -77 -136 -102 -36 -14 -63 -31 -66 -41 -2 -10 -11 -18
-18 -18 -10 0 -13 7 -8 26 6 24 5 26 -17 19 -28 -8 -91 -56 -97 -73 -5 -17 46
-27 64 -12 10 9 18 10 25 3 7 -7 2 -22 -15 -48 -26 -38 -28 -57 -4 -37 20 16
123 43 140 37 9 -4 19 -2 23 4 3 6 16 12 28 13 12 0 -12 4 -54 7 -62 6 -83 12
-113 34 -36 28 -46 47 -25 47 6 0 24 -11 41 -25 16 -14 36 -25 43 -25 16 0 41
38 37 57 -4 17 15 25 38 18 26 -8 26 -35 0 -42 -20 -5 -27 -27 -11 -37 15 -10
161 147 161 172 0 35 -85 58 -108 30z"/>
<path d="M1120 4808 c-11 -18 -20 -35 -20 -38 1 -3 21 -21 45 -40 51 -39 62
-58 39 -67 -9 -3 -27 6 -44 22 -25 24 -32 26 -45 15 -9 -8 -15 -25 -13 -39 3
-27 19 -31 80 -18 28 6 138 76 138 89 0 4 -9 10 -21 13 -11 4 -36 20 -55 37
-19 17 -34 25 -34 20 0 -6 6 -12 13 -15 6 -2 8 -8 4 -13 -13 -14 -42 11 -42
36 -1 36 -22 35 -45 -2z"/>
<path d="M1084 4495 c-2 -97 2 -100 64 -55 23 17 46 30 52 30 15 0 12 -16 -5
-30 -12 -10 -13 -16 -3 -27 10 -12 9 -18 -7 -29 -14 -10 -15 -14 -4 -14 8 0
31 -14 51 -30 32 -27 37 -28 42 -13 8 28 10 118 3 130 -4 6 -25 13 -47 16 -51
7 -106 43 -123 80 -6 15 -14 27 -17 27 -3 0 -6 -38 -6 -85z"/>
<path d="M1151 4406 c-7 -8 -8 -17 -3 -20 6 -3 12 3 15 14 6 24 4 25 -12 6z"/>
<path d="M1105 4353 c10 -45 90 -198 102 -196 7 2 26 -15 43 -37 25 -32 34
-37 45 -27 7 6 10 16 7 22 -3 5 -9 33 -13 62 -9 69 -60 140 -127 176 -62 33
-64 33 -57 0z"/>
<path d="M2132 5284 c-41 -69 -72 -127 -69 -130 2 -2 97 -3 210 -2 l206 3 -29
48 c-28 43 -33 47 -70 47 -22 0 -40 -4 -40 -10 0 -6 -32 -10 -75 -10 -41 0
-75 2 -75 5 0 3 14 30 31 60 30 54 30 55 13 85 -10 16 -21 30 -24 30 -3 0 -38
-57 -78 -126z"/>
<path d="M2280 4858 c-11 -18 -20 -35 -20 -38 0 -3 9 -20 20 -37 14 -24 27
-33 46 -33 l27 0 -27 26 c-27 28 -33 62 -16 95 18 34 -9 22 -30 -13z"/>
<path d="M1984 4532 c2 -27 7 -55 11 -62 6 -10 0 -12 -29 -7 -31 5 -37 3 -34
-11 2 -11 13 -17 33 -17 26 0 32 5 42 38 11 31 10 44 -2 73 -7 18 -16 34 -19
34 -3 0 -4 -22 -2 -48z"/>
<path d="M2222 4510 c-47 -44 -15 -126 77 -199 l42 -34 -28 -29 c-22 -23 -28
-39 -28 -73 0 -59 25 -85 82 -85 23 0 43 5 43 11 0 5 -4 8 -8 5 -5 -3 -23 4
-40 14 -38 23 -43 59 -12 90 26 26 42 25 78 -4 53 -46 88 -209 62 -299 -15
-54 -71 -130 -126 -169 -180 -129 -277 119 -134 342 32 50 36 75 20 129 -15
52 -47 81 -90 81 -48 0 -70 -25 -69 -76 l1 -39 14 33 c14 32 48 54 71 45 20
-8 36 -62 30 -109 -3 -30 -16 -60 -36 -87 -49 -65 -59 -90 -71 -161 -13 -83
-6 -124 33 -199 33 -63 29 -77 -20 -77 -45 0 -209 149 -290 264 -65 91 -82
132 -83 200 0 74 18 122 63 162 33 30 44 35 70 30 86 -17 134 -136 87 -213
-27 -45 -11 -42 20 4 45 66 23 183 -42 223 -114 69 -240 -37 -242 -205 -1 -61
4 -80 35 -146 20 -41 51 -92 69 -112 36 -41 34 -57 -5 -39 -91 42 -195 -35
-195 -144 0 -23 5 -55 11 -73 6 -18 9 -35 6 -38 -4 -3 -35 16 -71 41 -88 63
-116 111 -116 199 0 83 8 105 64 163 26 26 46 49 46 51 0 2 -25 -13 -56 -34
-70 -46 -101 -103 -110 -201 -5 -56 -3 -76 14 -114 27 -61 82 -121 153 -164
70 -44 84 -71 74 -154 -13 -115 32 -213 105 -227 l35 -6 -42 46 c-41 44 -43
50 -43 106 0 50 4 65 27 92 53 63 133 75 221 34 76 -35 117 -70 161 -135 33
-50 60 -124 49 -135 -2 -2 -28 3 -58 11 -124 32 -201 11 -285 -76 -83 -86
-158 -113 -189 -68 -20 29 -20 51 0 91 l16 32 -31 -29 c-25 -25 -31 -37 -31
-73 0 -121 139 -126 270 -10 57 50 97 67 158 67 62 0 109 -16 146 -49 l28 -26
-4 -280 -5 -281 -34 -64 c-47 -91 -198 -243 -257 -261 -34 -10 -51 -10 -75 -1
-38 14 -46 8 -22 -18 12 -14 31 -20 58 -20 38 0 39 -1 32 -27 -17 -68 -23
-143 -16 -198 l7 -60 8 70 c9 77 29 146 54 185 15 25 16 24 29 -53 19 -114 72
-209 149 -267 58 -44 61 -36 10 21 -65 72 -98 148 -104 237 -3 47 -1 72 6 72
6 0 14 -4 17 -10 3 -5 19 -10 34 -10 36 0 73 39 105 114 29 65 31 75 14 58 -9
-9 -17 -7 -37 11 -22 20 -24 21 -16 2 15 -40 16 -51 6 -77 -6 -15 -22 -35 -36
-44 -24 -16 -27 -16 -46 2 -29 26 -20 69 31 144 47 69 82 92 104 69 21 -21 68
-180 62 -205 -3 -12 -27 -50 -52 -83 -52 -70 -63 -126 -31 -158 16 -16 17 -15
17 36 0 48 3 56 43 97 23 24 47 44 54 44 17 0 26 -107 13 -169 -5 -30 -19 -69
-29 -86 -10 -17 -26 -54 -35 -82 -20 -59 -43 -83 -111 -112 -60 -27 -82 -45
-106 -93 -27 -52 -24 -57 14 -21 39 37 68 53 99 53 13 0 38 10 57 21 34 20 35
20 48 3 45 -62 57 -225 24 -335 -10 -35 -21 -100 -25 -144 -5 -72 -18 -132
-42 -190 -7 -18 -6 -18 30 3 20 12 40 22 43 22 5 0 -1 -172 -13 -330 -4 -58
-1 -121 11 -200 19 -131 30 -159 22 -55 -3 39 -1 117 3 175 5 58 14 169 20
246 9 108 9 158 0 210 -23 139 -23 158 0 238 36 122 45 110 42 -54 -2 -117 17
-41 25 97 6 120 0 160 -43 265 -13 32 -24 62 -24 69 0 6 21 -8 47 -31 26 -22
67 -52 92 -66 25 -14 57 -40 71 -59 33 -44 39 -36 9 12 -28 45 -48 66 -111
116 -35 28 -51 49 -63 88 -20 60 -16 148 9 197 9 17 16 58 17 91 1 34 5 61 9
61 3 0 16 -10 28 -23 29 -30 28 -70 0 -90 -13 -9 -17 -16 -10 -16 20 -1 62 45
62 68 0 38 -21 76 -70 126 -27 28 -54 63 -59 78 -16 42 -14 187 2 187 19 0
104 -56 134 -88 70 -74 60 -152 -17 -142 -41 5 -56 85 -18 99 17 6 18 9 6 14
-24 9 -57 -20 -64 -57 -12 -65 53 -124 116 -106 46 13 53 5 45 -54 -14 -100
-55 -169 -134 -227 -71 -51 -47 -51 28 1 90 60 145 143 158 236 7 51 17 55 38
15 28 -55 46 -145 46 -235 0 -65 3 -86 12 -77 7 7 11 58 11 138 0 110 -3 135
-22 177 -12 27 -22 52 -22 57 0 5 18 9 39 9 36 0 139 35 130 44 -2 3 -27 0
-54 -5 -60 -12 -119 -3 -161 22 -61 37 -170 164 -208 240 -51 105 -60 163 -52
371 9 253 41 362 120 416 49 33 105 37 184 13 84 -25 135 -64 228 -173 102
-121 154 -144 222 -101 26 16 62 70 62 93 0 8 -9 1 -20 -17 -25 -42 -62 -65
-97 -61 -21 2 -40 19 -76 68 -117 158 -219 236 -322 248 -25 2 -48 8 -50 13
-7 10 70 63 128 89 28 13 65 20 111 20 64 0 70 -2 102 -34 28 -28 34 -41 34
-77 0 -38 -5 -48 -47 -87 l-48 -45 45 24 c53 29 85 73 94 129 11 68 -2 109
-40 132 -19 11 -34 23 -33 26 0 4 27 20 59 35 83 39 154 98 197 162 31 48 37
65 41 130 6 92 -13 150 -63 194 -59 51 -136 51 -182 -2 -18 -20 -17 -20 2 -13
89 36 134 27 168 -32 21 -36 33 -132 23 -185 -10 -53 -83 -127 -166 -172 -39
-20 -74 -34 -77 -31 -3 3 -1 18 5 33 20 53 23 101 9 135 -17 40 -80 98 -107
98 -10 0 -26 10 -34 22 -18 26 -21 84 -5 94 16 10 61 -39 62 -70 3 -43 15 -30
22 25 6 42 4 56 -12 78 -11 14 -30 27 -42 29 -53 8 -107 -64 -97 -128 5 -34 3
-38 -29 -53 -97 -46 -109 -212 -20 -267 47 -29 61 -25 32 10 -51 60 -57 124
-16 181 36 51 115 45 164 -12 38 -46 31 -115 -18 -168 -21 -23 -136 -81 -240
-122 -80 -31 -176 -86 -244 -141 l-62 -49 -52 63 c-65 79 -99 149 -99 209 0
54 26 84 135 149 217 132 279 215 295 397 11 118 31 171 73 191 37 18 62 8 82
-34 17 -36 17 -106 1 -149 -7 -17 -5 -17 13 3 28 32 43 94 35 138 -8 45 -55
100 -92 107 -36 7 -106 -24 -127 -57 -10 -14 -22 -26 -29 -25 -6 0 -30 26 -52
58 -28 39 -56 65 -86 79 -45 22 -107 80 -127 119 -25 49 -8 93 37 93 13 0 20
4 17 10 -11 18 -70 11 -93 -10z m-395 -794 c29 -34 30 -80 3 -123 -22 -37 -20
-40 15 -17 30 19 48 78 38 125 l-6 33 53 -45 c123 -102 120 -96 120 -192 0
-47 -4 -88 -8 -91 -11 -7 -227 60 -280 86 -65 32 -93 75 -99 150 -4 55 -2 66
17 87 20 20 30 23 73 18 39 -3 56 -11 74 -31z"/>
<path d="M2480 4459 c0 -25 92 -119 117 -119 32 0 38 18 11 30 -49 22 -74 40
-100 72 -19 23 -28 28 -28 17z"/>
<path d="M3010 4075 c-14 -8 -33 -14 -42 -15 -11 0 -15 -5 -12 -15 10 -25 -14
-17 -32 10 -13 20 -19 23 -30 14 -21 -17 -17 -25 21 -43 32 -16 36 -15 56 1
78 64 87 76 39 48z"/>
<path d="M1874 3995 c-4 -15 -1 -32 7 -42 17 -20 111 -65 119 -56 3 3 -1 8 -8
11 -8 2 -29 17 -47 33 -18 16 -38 29 -45 29 -8 0 -11 9 -8 25 7 33 -10 33 -18
0z"/>
<path d="M2320 3994 c0 -3 9 -19 21 -35 23 -33 20 -70 -8 -101 -13 -15 -14
-18 -2 -18 8 0 25 7 37 16 24 16 30 61 12 93 -9 19 -60 56 -60 45z"/>
<path d="M1640 3890 c0 -17 -91 -72 -111 -67 -22 6 -25 -3 -7 -21 23 -23 56
-13 92 30 32 37 46 68 31 68 -3 0 -5 -4 -5 -10z"/>
<path d="M2461 3555 c-1 -17 -6 -36 -13 -43 -9 -9 -9 -12 1 -12 8 0 5 -10 -9
-27 -25 -31 -10 -45 20 -18 26 24 32 60 16 97 l-14 33 -1 -30z"/>
<path d="M3082 3378 c-15 -15 -15 -36 -1 -76 11 -31 55 -69 67 -57 4 3 2 9 -4
13 -5 4 -23 24 -38 44 l-28 38 26 11 c28 13 30 32 5 37 -8 1 -20 -3 -27 -10z"/>
<path d="M1367 3344 c-13 -13 -7 -40 11 -57 23 -21 101 -36 127 -26 20 7 20 8
0 8 -31 1 -112 44 -122 64 -5 10 -12 15 -16 11z"/>
<path d="M1754 2719 c-3 -6 15 -33 42 -60 l48 -49 -25 -27 c-13 -15 -28 -31
-34 -35 -6 -5 -4 -13 5 -23 14 -13 20 -10 62 32 l47 48 -56 63 c-54 61 -75 73
-89 51z"/>
<path d="M2591 2564 l-1 -159 61 63 c33 34 64 62 67 62 4 0 32 -28 63 -62 l56
-62 6 149 c3 82 4 151 3 153 -2 1 -31 -26 -65 -60 l-62 -63 -63 69 -63 69 -2
-159z m74 31 l27 -34 -29 -36 c-15 -19 -31 -35 -34 -35 -3 0 -6 32 -7 70 -1
39 3 70 8 70 5 0 21 -16 35 -35z m147 -39 c-2 -36 -7 -66 -10 -65 -4 0 -20 16
-36 35 l-29 35 33 34 c18 19 36 33 39 31 3 -2 4 -34 3 -70z"/>
<path d="M1715 2589 l-50 -49 66 -66 c55 -55 67 -63 77 -51 10 12 4 24 -34 66
l-47 52 34 35 c29 30 31 36 19 48 -13 13 -22 8 -65 -35z"/>
</g>
</svg>
