<?xml version="1.0" standalone="no"?>
<!DOCTYPE svg PUBLIC "-//W3C//DTD SVG 20010904//EN"
 "http://www.w3.org/TR/2001/REC-SVG-20010904/DTD/svg10.dtd">
<svg version="1.0" xmlns="http://www.w3.org/2000/svg"
 width="736.000000pt" height="1226.000000pt" viewBox="0 0 736.000000 1226.000000"
 preserveAspectRatio="xMidYMid meet">

<g transform="translate(0.000000,1226.000000) scale(0.100000,-0.100000)"
fill="#000000" stroke="none">
<path d="M3565 11288 c-62 -285 -141 -510 -262 -751 -50 -101 -75 -141 -150
-244 -34 -46 -48 -73 -39 -73 8 0 18 5 21 10 12 19 65 11 90 -15 41 -40 30
-135 -15 -135 -36 0 -110 -42 -156 -88 -88 -87 -138 -237 -118 -352 14 -84 31
-74 36 23 3 64 10 93 29 127 29 53 83 97 127 106 l33 7 -167 -334 c-92 -184
-250 -503 -352 -709 l-185 -375 -15 45 c-12 33 -16 84 -15 195 1 191 19 257
143 515 150 313 199 529 154 681 -27 90 -64 140 -64 85 0 -37 -39 -154 -75
-226 -85 -169 -202 -276 -360 -330 l-50 -17 30 -16 c68 -35 112 -106 121 -194
4 -48 1 -66 -18 -103 -13 -25 -37 -54 -55 -65 -30 -19 -31 -23 -25 -60 4 -22
6 -96 6 -165 -2 -151 -29 -283 -79 -389 -19 -40 -35 -75 -35 -77 0 -2 13 -4
28 -4 79 0 206 -108 278 -236 47 -85 94 -231 101 -316 3 -38 10 -68 14 -68 5
0 32 18 61 40 29 22 56 40 61 40 4 0 0 -17 -8 -37 -131 -322 -252 -602 -257
-600 -4 1 -70 129 -147 284 l-140 283 116 235 c64 129 113 238 110 241 -7 7
-237 -453 -237 -474 0 -7 65 -146 145 -309 l146 -297 -192 -461 c-105 -253
-233 -559 -284 -680 -164 -391 -181 -435 -167 -443 6 -5 118 -271 248 -592
l237 -585 -65 -328 -65 -328 90 -207 c200 -462 335 -774 777 -1792 254 -586
495 -1141 536 -1235 55 -127 75 -164 80 -150 6 18 201 468 861 1990 107 248
276 637 375 865 99 228 191 441 205 473 l26 58 -66 324 -66 324 224 558 c124
307 231 572 237 588 7 17 18 35 25 40 9 8 -64 192 -313 789 -178 428 -324 784
-324 791 0 7 65 146 145 309 l145 297 -115 234 c-63 129 -119 235 -124 235 -6
0 42 -106 106 -235 l118 -235 -143 -286 c-79 -158 -147 -283 -151 -278 -14 15
-264 624 -259 629 3 3 30 -13 61 -36 32 -22 62 -37 67 -34 6 3 10 34 10 68 0
75 47 219 105 322 67 120 192 225 268 225 34 0 34 7 -2 78 -58 115 -75 207
-77 415 l-1 189 -30 18 c-95 57 -80 260 26 337 20 15 40 30 44 34 5 4 -15 14
-45 23 -132 38 -265 164 -347 329 -46 92 -56 121 -77 222 l-6 30 -17 -24 c-58
-86 -68 -235 -27 -407 32 -129 58 -196 145 -374 105 -213 132 -304 138 -467 5
-120 -6 -236 -25 -267 -3 -5 -162 307 -354 694 -191 387 -346 705 -343 708 11
11 59 -12 97 -46 54 -49 79 -106 83 -195 2 -40 9 -73 14 -75 15 -5 24 62 19
147 -5 94 -44 186 -108 255 -43 47 -128 96 -166 96 -16 0 -25 9 -33 31 -16 47
-14 64 15 98 27 33 60 39 96 20 31 -17 34 -2 6 29 -147 158 -357 636 -425 966
-18 87 -28 105 -38 64z m-10 -279 c-25 -198 -88 -358 -214 -546 -52 -77 -148
-180 -158 -169 -2 2 18 34 43 72 109 162 255 508 314 744 29 119 37 68 15
-101z m151 -187 c52 -139 156 -354 216 -445 28 -43 49 -80 46 -82 -11 -12
-147 147 -193 225 -118 202 -170 364 -180 560 l-6 105 41 -133 c22 -73 56
-177 76 -230z m-112 110 c23 -183 173 -475 313 -609 l65 -62 -31 -15 c-41 -22
-53 -48 -50 -109 l3 -52 -47 -7 c-57 -8 -116 -37 -175 -85 l-44 -36 25 49 c79
159 82 277 10 416 -19 37 -27 69 -27 105 0 28 -4 49 -8 47 -20 -13 -7 -99 28
-177 41 -93 52 -172 35 -244 -14 -57 -101 -243 -113 -243 -17 0 -106 204 -118
267 -13 73 -3 124 41 226 36 82 44 123 30 157 -9 22 -10 19 -10 -24 -1 -33
-12 -74 -38 -130 -60 -134 -56 -251 13 -388 13 -26 22 -48 18 -48 -3 0 -24 16
-47 35 -45 38 -131 75 -178 75 -30 0 -30 0 -24 48 7 56 -7 89 -50 116 l-30 19
80 81 c134 136 258 380 293 579 17 93 25 95 36 9z m-209 -893 c30 -13 80 -53
124 -98 l75 -74 15 24 c30 48 114 122 170 148 82 38 176 37 250 -4 80 -44 157
-152 176 -245 3 -19 9 -44 12 -55 9 -34 -14 -3 -26 35 -53 168 -319 225 -448
95 -24 -23 -43 -48 -43 -54 0 -7 21 9 48 36 46 48 100 73 153 73 20 0 17 -5
-22 -29 -63 -40 -99 -111 -99 -197 0 -74 26 -165 63 -219 15 -21 25 -41 22
-43 -2 -2 -20 8 -40 24 -68 51 -125 159 -125 235 0 27 -4 38 -11 33 -18 -11
-2 -92 31 -160 28 -57 81 -117 126 -142 17 -9 14 -14 -29 -59 -59 -60 -122
-185 -144 -283 -30 -137 -18 -410 18 -410 7 0 8 8 4 18 -46 119 -19 441 46
536 11 17 18 22 14 11 -42 -129 -49 -308 -16 -440 52 -205 247 -471 410 -560
57 -31 61 -35 31 -30 -60 10 -192 81 -265 142 -43 37 -91 90 -125 140 -30 45
-56 80 -58 78 -2 -2 9 -27 24 -55 63 -116 222 -251 351 -300 199 -75 456 5
570 176 20 30 39 54 42 54 3 0 7 10 7 23 1 12 9 54 18 92 29 127 17 314 -30
453 -13 40 -62 152 -108 250 -150 315 -194 524 -144 678 7 21 17 39 22 39 5 0
15 -25 22 -55 38 -150 163 -335 282 -414 38 -25 72 -46 75 -46 2 0 21 -7 41
-15 l36 -15 -35 -32 c-101 -88 -113 -267 -24 -343 l30 -25 -31 -64 c-70 -142
-46 -340 59 -504 l39 -59 -49 -6 c-119 -14 -247 -114 -310 -242 -34 -69 -34
-71 -34 -205 l0 -136 -57 46 c-65 52 -225 140 -256 140 -12 0 -23 4 -26 9 -10
16 -166 34 -234 27 -140 -13 -301 -75 -390 -151 l-39 -34 -19 21 c-63 71 -256
151 -394 164 -81 7 -189 -6 -267 -32 -72 -24 -210 -103 -265 -153 -27 -24 -50
-42 -52 -40 -2 2 1 39 7 83 19 149 -20 273 -119 376 -65 68 -151 116 -225 126
-27 4 -49 8 -49 9 0 2 15 26 34 53 108 161 132 384 56 519 l-30 53 23 15 c42
27 67 86 67 159 0 81 -18 128 -71 182 l-41 42 78 37 c164 79 302 263 358 476
l14 54 18 -40 c26 -59 30 -192 9 -295 -27 -131 -59 -221 -149 -410 -128 -267
-147 -339 -147 -539 -1 -105 22 -255 41 -271 3 -3 17 -23 31 -45 105 -160 340
-250 525 -201 121 32 274 138 355 246 45 60 84 130 72 130 -5 0 -19 -21 -33
-47 -36 -69 -142 -176 -229 -234 -68 -44 -197 -97 -209 -85 -2 3 22 18 54 34
83 42 142 98 234 221 90 119 149 232 176 336 27 102 25 306 -4 395 -12 35 -20
66 -18 67 7 7 45 -85 60 -143 35 -137 39 -314 10 -424 -5 -18 -4 -22 4 -15 18
17 32 109 32 209 0 190 -59 365 -160 478 -44 50 -48 57 -31 63 27 8 105 95
131 145 24 48 41 168 22 156 -6 -4 -9 -13 -6 -21 9 -23 -25 -125 -57 -171 -28
-42 -96 -104 -112 -104 -4 0 4 15 18 34 67 88 91 259 48 341 -24 45 -54 75
-98 98 -30 16 -30 16 -5 17 56 0 105 -22 153 -71 26 -27 47 -43 47 -35 0 25
-49 74 -98 98 -65 32 -187 32 -253 0 -63 -31 -118 -91 -140 -154 -14 -41 -18
-47 -19 -25 0 37 35 140 64 186 33 52 109 117 159 135 57 21 149 15 212 -15z
m816 -587 c122 -246 282 -570 356 -720 l134 -273 -26 -46 c-40 -67 -101 -122
-179 -159 -64 -31 -150 -53 -162 -41 -3 2 -112 263 -244 578 l-239 574 26 27
25 27 -31 43 c-99 137 -103 308 -11 392 22 19 52 38 67 42 16 3 33 7 38 9 6 1
13 0 18 -2 4 -2 107 -205 228 -451z m-907 415 c96 -73 101 -253 11 -387 -41
-61 -42 -66 -14 -96 l21 -23 -238 -576 -239 -576 -49 5 c-63 7 -162 54 -216
102 -49 44 -100 119 -100 146 0 9 107 232 238 495 131 263 290 583 353 712
l113 233 43 -5 c25 -2 57 -16 77 -30z m82 -602 c41 -87 57 -184 51 -314 -8
-180 -54 -301 -177 -466 -127 -170 -238 -256 -353 -271 -47 -7 -47 -7 -38 17
5 13 84 204 176 424 91 220 193 467 227 549 69 166 65 164 114 61z m693 -487
c127 -306 231 -560 231 -563 0 -15 -82 4 -142 33 -35 16 -87 50 -116 77 -66
60 -186 219 -234 310 -106 202 -114 456 -22 643 20 41 40 70 44 65 4 -4 112
-258 239 -565z m837 64 c1 -166 20 -280 64 -380 25 -56 2 -41 -36 23 -93 159
-114 346 -53 472 12 24 22 43 22 43 1 0 2 -71 3 -158z m-2622 88 c51 -130 20
-313 -78 -469 -15 -24 -29 -41 -31 -39 -2 2 7 34 21 71 36 101 54 223 54 370
0 73 4 127 8 122 5 -6 17 -30 26 -55z m56 -585 c119 -60 217 -202 227 -328 6
-70 -4 -197 -16 -197 -3 0 -12 30 -19 68 -28 146 -129 335 -218 409 -25 20
-66 47 -92 60 l-47 24 56 -5 c33 -2 78 -15 109 -31z m2577 3 c-138 -75 -273
-295 -303 -493 -3 -25 -8 -44 -11 -41 -3 2 -9 37 -14 78 -11 88 2 191 32 251
69 137 201 236 314 236 l40 0 -58 -31z m-1651 -348 c98 -25 205 -76 262 -123
24 -21 46 -37 49 -37 3 0 23 15 45 34 53 46 167 100 263 125 93 25 210 27 308
6 70 -15 194 -71 270 -123 76 -53 72 -64 -7 -23 -126 64 -218 85 -376 85 -201
0 -322 -41 -443 -153 l-58 -54 -28 27 c-16 15 -31 23 -35 18 -3 -5 10 -23 28
-41 l33 -32 61 59 c66 63 147 111 230 136 28 8 52 14 52 12 0 -1 -8 -20 -19
-42 -27 -58 -34 -109 -21 -169 l11 -55 -92 -87 c-50 -49 -96 -90 -101 -92 -18
-7 -85 76 -98 123 -7 26 -16 49 -20 51 -4 3 -13 -16 -20 -41 -15 -52 -61 -120
-88 -128 -13 -5 -36 12 -88 62 -38 38 -81 77 -97 88 -25 17 -26 22 -17 54 16
55 11 131 -10 179 -11 24 -20 47 -20 51 0 22 161 -47 227 -96 17 -13 34 -24
37 -24 37 0 -94 88 -174 118 -185 68 -425 51 -619 -44 -47 -23 -87 -41 -89
-39 -6 6 96 75 169 114 147 80 316 101 475 61z m-54 -87 c41 -47 60 -129 47
-200 -5 -25 -11 -48 -12 -50 -2 -2 -31 9 -63 24 -118 54 -241 27 -284 -62 -20
-41 -25 -76 -14 -88 4 -3 19 0 35 8 75 39 191 3 272 -84 66 -70 90 -129 91
-216 1 -91 -7 -117 -51 -165 l-36 -40 49 -54 c27 -29 57 -65 67 -80 10 -15 31
-29 47 -32 l28 -6 6 -202 c3 -110 8 -338 10 -505 3 -167 8 -306 11 -309 3 -3
5 8 5 24 0 23 10 38 44 67 25 20 51 37 58 37 18 -1 61 -37 56 -49 -1 -5 -31
-32 -64 -60 l-62 -51 -48 22 c-40 18 -69 22 -159 22 -60 1 -129 -2 -152 -7
l-42 -7 -321 647 -322 648 15 40 c14 35 220 532 261 626 13 32 24 40 88 64
110 41 181 53 309 54 99 1 118 -2 131 -16z m1092 -12 c38 -11 90 -31 114 -43
42 -22 47 -28 92 -138 26 -63 89 -214 139 -336 50 -121 91 -227 91 -235 0 -9
-108 -232 -240 -497 -132 -265 -269 -543 -305 -617 l-66 -135 -62 0 c-56 0
-198 -18 -286 -36 l-34 -7 6 394 c4 217 7 442 7 501 l0 107 45 20 c25 11 45
24 45 30 0 5 23 36 50 67 28 31 50 60 50 64 0 4 -10 15 -21 26 -60 53 -77 185
-38 289 26 69 108 157 174 185 55 24 141 26 169 5 30 -22 36 -19 36 20 0 132
-177 195 -319 114 -43 -25 -51 -17 -58 60 -6 68 12 131 49 171 20 22 25 22
157 17 96 -3 156 -11 205 -26z m-1152 -218 c113 -44 273 -186 357 -316 74
-113 61 -111 116 -26 65 102 242 276 323 318 86 45 163 52 226 21 45 -21 76
-60 76 -96 0 -11 -5 -14 -17 -9 -109 44 -235 25 -328 -49 -44 -36 -25 -41 22
-6 48 35 113 60 157 60 28 0 25 -3 -29 -29 -69 -32 -141 -105 -175 -177 -13
-29 -24 -79 -29 -128 l-7 -81 -14 45 c-7 25 -13 76 -13 113 0 41 -3 63 -8 55
-14 -21 -10 -110 6 -164 8 -27 15 -50 15 -51 0 -2 -115 -3 -254 -3 l-255 0 15
35 c15 36 20 195 7 195 -5 0 -8 -37 -9 -83 -1 -45 -7 -95 -15 -112 -13 -29
-13 -27 -19 55 -4 47 -13 99 -20 115 -41 90 -123 169 -208 200 l-37 14 40 0
c44 1 112 -27 162 -65 18 -14 33 -20 33 -15 0 18 -81 71 -133 86 -63 19 -140
19 -192 0 -21 -8 -41 -13 -43 -11 -1 2 0 16 4 30 7 29 60 77 96 88 43 12 107
8 150 -9z m454 -143 c15 -27 38 -57 50 -65 31 -20 30 -27 -10 -79 -18 -24 -40
-58 -47 -75 -8 -17 -16 -31 -19 -30 -3 0 -29 37 -58 81 l-53 81 33 28 c19 15
42 46 53 68 10 23 19 41 21 41 1 0 15 -22 30 -50z m251 -417 c7 -10 23 -30 34
-45 l20 -28 -336 0 -336 0 38 45 37 45 265 0 c239 0 265 -2 278 -17z m-1139
-635 c172 -348 312 -636 312 -639 0 -4 -28 -16 -62 -29 -90 -32 -230 -103
-324 -165 -79 -51 -83 -53 -122 -42 -32 8 -53 7 -106 -7 -36 -10 -66 -22 -66
-27 0 -11 -4 -12 54 6 53 16 122 20 130 7 2 -4 -25 -32 -61 -62 -129 -107
-284 -316 -385 -518 -28 -56 -52 -101 -53 -100 -2 2 -25 59 -53 128 -27 69
-79 198 -116 287 -36 90 -66 164 -66 166 0 2 27 -10 60 -26 51 -26 72 -30 133
-30 41 0 94 8 122 18 58 19 219 105 212 112 -3 2 -45 -16 -94 -41 -120 -60
-192 -80 -264 -73 -72 6 -153 49 -186 98 l-23 36 32 80 c146 357 604 1453 608
1453 3 0 146 -285 318 -632z m2276 66 c376 -905 396 -954 396 -966 0 -10 -118
-307 -126 -316 -1 -2 -21 17 -44 42 -59 64 -200 132 -200 96 0 -5 8 -10 19
-10 31 0 85 -27 140 -70 85 -67 85 -61 -5 -284 -43 -108 -82 -196 -86 -196 -5
0 -8 16 -8 34 0 53 -46 188 -80 235 -17 23 -46 51 -65 62 -34 21 -34 21 -17
47 14 23 8 20 -37 -15 -55 -44 -78 -52 -99 -31 -44 44 43 194 125 214 12 4 23
10 23 15 0 17 -27 9 -68 -19 -103 -68 -147 -205 -76 -233 19 -7 34 -5 57 6 43
21 71 19 106 -11 58 -49 120 -217 121 -326 0 -23 -25 -99 -62 -194 l-63 -157
-17 60 c-43 146 -199 231 -287 157 -17 -14 -31 -34 -31 -44 0 -18 25 -34 39
-25 15 8 59 -50 71 -92 12 -46 2 -102 -23 -136 -12 -17 -15 -15 -45 27 -62 86
-169 124 -269 95 -102 -28 -174 -148 -140 -232 28 -65 80 -70 109 -9 7 15 29
35 48 44 27 13 30 17 14 18 -25 0 -74 -36 -74 -55 0 -20 -27 -37 -48 -30 -27
8 -46 58 -39 102 18 111 141 181 257 147 143 -42 238 -234 227 -459 -3 -75
-11 -106 -41 -182 -37 -90 -38 -92 -59 -78 -28 18 -140 45 -189 45 -21 0 -38
3 -38 6 0 4 21 29 46 56 66 71 106 163 112 258 5 83 -6 117 -50 156 -27 26
-68 40 -68 25 0 -6 7 -11 16 -11 26 0 72 -54 84 -99 22 -81 -20 -213 -97 -309
-46 -56 -79 -72 -153 -72 -33 0 -60 -4 -60 -10 0 -6 35 -10 84 -10 176 0 336
-39 322 -77 -36 -100 -203 -503 -208 -503 -5 0 -8 10 -8 23 0 45 -56 141 -112
192 -88 81 -196 106 -283 66 -137 -62 -137 -224 0 -268 22 -7 33 -19 43 -48
34 -104 -60 -294 -216 -436 -69 -62 -177 -129 -208 -129 -53 0 -209 134 -271
234 -32 50 -63 140 -63 182 l0 33 35 -15 c44 -18 69 -18 105 1 56 29 75 104
44 171 -25 52 -116 129 -182 155 -75 29 -196 31 -270 6 -127 -45 -224 -142
-262 -263 l-18 -59 -1 50 c0 28 5 75 13 106 14 60 74 178 109 217 11 12 16 22
10 22 -36 0 -129 -173 -139 -257 -3 -26 -8 -55 -10 -63 -4 -11 -224 508 -224
527 0 2 12 3 26 3 88 0 185 114 239 280 25 78 55 134 66 123 4 -4 13 -59 18
-121 13 -143 22 -177 82 -290 52 -99 56 -116 37 -157 -10 -23 -17 -26 -45 -23
-38 5 -32 -6 9 -16 21 -5 30 -1 42 16 29 41 20 99 -28 190 -57 107 -73 165
-82 285 -7 104 -16 133 -39 133 -21 0 -40 -33 -78 -141 -57 -161 -132 -251
-219 -265 -34 -6 -35 -5 -56 51 -24 61 -27 79 -14 71 21 -13 89 19 137 65 94
89 130 180 171 429 16 98 34 175 50 211 49 109 155 181 266 183 66 1 83 -10
48 -32 -43 -28 -96 -88 -118 -133 -28 -61 -35 -89 -23 -89 6 0 11 7 11 15 0
28 49 113 85 150 50 50 110 77 181 83 194 15 367 -112 368 -270 1 -46 -3 -62
-20 -79 -29 -28 -44 -17 -37 25 14 86 -110 152 -216 115 -17 -6 -31 -15 -31
-19 0 -5 14 -4 31 2 16 6 31 9 33 7 9 -11 14 -479 5 -484 -14 -9 -191 173
-218 226 -33 62 -24 88 54 165 69 70 66 90 -4 23 -132 -127 -173 -306 -108
-468 94 -232 294 -436 467 -475 79 -18 120 -20 120 -6 0 6 -18 10 -39 10 -114
0 -268 88 -371 213 -33 39 -60 76 -60 81 0 4 25 -15 56 -43 99 -90 314 -180
432 -181 60 0 33 17 -35 23 -115 8 -266 72 -367 154 -73 59 -159 170 -188 243
-27 65 -32 215 -9 265 12 28 14 29 25 11 108 -175 214 -265 399 -336 108 -42
195 -59 397 -75 210 -18 200 -17 200 -5 0 6 -28 10 -62 11 -35 0 -71 4 -81 7
-16 7 -15 10 9 42 56 75 77 131 82 215 5 88 -7 128 -54 191 -48 62 -141 92
-195 64 -26 -15 -51 -67 -43 -92 5 -18 12 -20 50 -14 37 5 45 2 59 -16 24 -36
19 -90 -14 -136 -16 -22 -34 -43 -40 -47 -6 -3 -11 -11 -11 -18 0 -23 70 58
86 100 21 53 11 97 -27 126 -22 15 -30 17 -48 8 -48 -26 -56 24 -10 63 47 40
97 31 157 -27 111 -106 103 -283 -20 -423 l-32 -36 -70 7 c-105 9 -246 36
-246 46 0 13 38 35 102 59 31 11 62 27 68 35 16 19 6 19 -32 -1 -18 -9 -45
-20 -61 -25 l-29 -8 7 577 c4 317 9 584 11 592 1 8 3 25 3 38 1 19 6 22 43 22
25 0 66 -12 105 -30 68 -33 96 -32 113 1 8 14 6 27 -5 49 l-16 30 49 0 c155 0
333 -103 397 -230 21 -42 26 -63 24 -116 -3 -75 12 -97 61 -97 40 0 79 29 110
84 21 36 25 57 25 119 0 160 -108 302 -284 373 -60 23 -65 28 -82 72 -25 67
-63 112 -132 156 l-59 39 28 12 c40 16 211 22 262 9 70 -19 124 -69 162 -151
12 -25 56 -24 74 2 31 43 13 108 -51 186 -39 47 -166 136 -185 130 -7 -3 15
-21 48 -41 66 -40 144 -116 168 -164 28 -57 17 -123 -21 -123 -8 0 -22 19 -32
43 -25 58 -88 113 -153 132 -68 19 -205 14 -268 -10 -52 -20 -49 -19 -155 -8
-74 9 -261 1 -273 -12 -13 -12 9 -14 73 -3 83 13 220 5 290 -16 95 -29 197
-122 211 -194 l6 -30 -43 9 c-24 4 -55 8 -69 8 l-25 -1 25 -8 c14 -4 59 -15
101 -24 159 -35 275 -119 334 -241 26 -52 30 -72 30 -145 0 -72 -4 -91 -23
-123 -23 -37 -66 -67 -96 -67 -32 0 -45 28 -39 84 18 174 -224 366 -462 366
-70 0 -82 -11 -44 -39 20 -15 29 -29 27 -44 -5 -32 -29 -32 -109 4 -63 27 -81
31 -130 26 -68 -6 -183 -58 -249 -114 -109 -90 -229 -252 -253 -341 -11 -42
-13 -43 -42 -37 -128 28 -221 6 -300 -71 -68 -66 -93 -130 -126 -325 -42 -249
-79 -342 -169 -423 -39 -35 -107 -63 -132 -54 -7 3 -69 143 -136 311 l-124
305 22 112 c55 288 156 487 335 659 121 116 207 159 269 135 24 -9 20 -20 -28
-82 -63 -81 -111 -167 -151 -271 -33 -86 -43 -122 -29 -108 4 4 24 50 45 102
45 116 99 208 173 297 77 91 194 178 274 203 21 6 23 4 17 -14 -9 -28 -1 -27
43 8 44 35 99 51 130 40 35 -13 25 -31 -36 -69 -113 -70 -251 -229 -325 -375
-42 -82 -53 -115 -38 -115 6 0 11 7 11 15 0 8 18 49 41 92 109 208 265 356
478 456 47 22 81 42 74 44 -6 2 -45 -11 -86 -30 -72 -34 -74 -34 -96 -16 -29
23 -60 24 -109 3 -20 -9 -61 -20 -90 -25 -60 -8 -136 -51 -212 -117 l-49 -43
-32 17 c-44 22 -90 13 -158 -32 -241 -160 -401 -420 -466 -758 -9 -44 -17 -82
-20 -84 -2 -3 -9 6 -14 19 -5 13 -39 100 -76 192 l-68 168 28 64 c95 224 295
489 470 622 147 112 345 216 493 259 82 23 106 26 210 22 100 -3 124 -7 167
-28 70 -35 67 -55 -12 -87 -35 -14 -61 -29 -58 -33 3 -5 42 8 88 27 266 113
480 161 676 150 58 -4 119 -10 135 -13 20 -5 27 -3 22 4 -3 6 -31 14 -61 17
-30 4 -55 11 -55 15 0 4 135 281 301 616 224 454 303 605 309 593 5 -9 110
-258 234 -555z m-1109 436 l-39 -40 -271 0 -271 0 -39 40 -39 40 349 0 349 0
-39 -40z m-172 -57 c70 -3 127 -9 127 -13 0 -4 -16 -16 -37 -25 -27 -13 -72
-19 -182 -22 -157 -6 -247 5 -290 34 -26 18 -26 18 64 24 149 9 184 9 318 2z
m-167 -94 c19 -11 34 -25 34 -29 0 -5 -15 -21 -34 -35 l-35 -26 -50 37 c-28
21 -51 46 -51 56 0 27 91 25 136 -3z m84 12 c0 -20 -28 -33 -49 -21 -32 16
-25 30 14 30 19 0 35 -4 35 -9z m120 -10 c0 -11 -31 -44 -77 -82 -43 -35 -80
-66 -83 -69 -3 -3 -35 -29 -72 -58 -60 -47 -69 -52 -87 -40 -40 25 -25 49 84
137 58 47 115 95 127 108 29 31 108 34 108 4z m-289 -71 l38 -31 -38 -34 c-21
-19 -41 -35 -45 -35 -3 0 -6 29 -6 65 0 36 3 65 6 65 3 0 23 -14 45 -30z m289
-24 c0 -43 -1 -44 -106 -130 -58 -47 -111 -86 -118 -86 -14 1 -62 37 -56 43
31 29 267 217 273 217 4 0 7 -20 7 -44z m-10 -123 c0 -47 -2 -49 -65 -100 -36
-29 -68 -53 -72 -53 -10 1 -53 36 -53 43 0 6 179 157 186 157 2 0 4 -21 4 -47z
m-214 -118 c239 -173 214 -148 214 -206 0 -37 -3 -50 -13 -46 -6 2 -81 53
-165 113 l-152 109 0 53 c0 30 4 52 10 50 5 -1 53 -34 106 -73z m214 -3 c0
-41 -4 -51 -28 -69 l-29 -21 -29 24 -29 24 50 44 c28 25 53 45 58 46 4 0 7
-22 7 -48z m-160 -166 l155 -112 3 -52 c2 -29 -1 -52 -5 -52 -5 0 -36 19 -68
43 -76 55 -85 60 -85 50 0 -5 34 -33 75 -62 41 -30 76 -59 76 -65 5 -40 5 -54
0 -74 -6 -22 -8 -22 -69 23 -35 26 -66 44 -70 41 -3 -3 -3 -8 -1 -9 2 -2 34
-25 72 -51 l67 -48 0 -55 c0 -30 -4 -53 -8 -51 -4 2 -74 50 -155 108 l-147
105 0 58 0 58 45 -33 c77 -56 85 -61 85 -50 0 5 -29 29 -64 53 -64 44 -64 44
-68 97 -1 30 -1 55 2 57 3 2 29 -14 58 -36 29 -22 57 -39 63 -37 6 2 -16 23
-50 46 -34 24 -65 52 -71 62 -12 22 -14 100 -2 99 4 0 77 -51 162 -113z m160
69 c0 -27 -12 -32 -29 -12 -8 10 -7 17 1 25 19 19 28 14 28 -13z m-277 -377
c18 -12 34 -23 36 -25 6 -4 -20 -32 -51 -54 l-28 -20 0 60 c0 34 3 61 6 61 3
0 20 -10 37 -22z m182 -132 l30 -24 -25 -22 c-14 -12 -54 -35 -88 -51 -61 -29
-65 -29 -78 -12 -7 10 -14 21 -14 25 0 9 123 107 135 108 6 0 23 -11 40 -24z
m55 -45 c0 -9 -24 -21 -42 -21 -6 0 -6 6 2 15 14 16 40 20 40 6z m20 -741 c0
-38 -3 -70 -7 -70 -5 1 -33 23 -63 50 l-55 49 45 20 c75 34 80 32 80 -49z
m-81 -27 c31 -26 60 -50 65 -54 5 -4 -12 -18 -37 -30 l-46 -22 -55 47 c-31 26
-56 51 -56 54 0 6 59 50 69 51 2 1 29 -20 60 -46z m-88 -65 c27 -22 49 -44 49
-48 0 -7 -65 -40 -80 -40 -14 0 -80 60 -80 73 0 13 40 57 52 57 5 0 32 -19 59
-42z m169 -63 c0 -52 12 -43 -157 -125 l-123 -59 0 49 0 50 128 64 c70 36 133
65 140 65 8 1 12 -14 12 -44z m-290 -219 c7 -7 10 -6 10 2 0 14 266 149 275
140 4 -3 3 -27 0 -52 l-7 -47 -96 -45 -95 -46 -61 18 c-34 10 -93 18 -132 18
l-71 0 8 26 c16 43 72 138 114 190 l40 51 3 -123 c1 -67 7 -127 12 -132z m69
183 c1 -5 -44 -29 -54 -29 -3 0 -5 18 -5 41 l0 41 29 -24 c17 -13 30 -26 30
-29z m200 -183 c7 -8 11 -38 9 -72 l-3 -58 -55 51 -54 50 39 21 c48 25 50 26
64 8z m1103 -57 c69 -35 117 -122 118 -213 0 -66 -153 -452 -158 -396 -6 78
-33 209 -50 251 -19 44 -19 44 2 72 17 23 21 43 21 101 0 64 -3 77 -28 109
-19 25 -36 37 -53 37 -28 0 -32 20 -6 42 35 32 88 30 154 -3z m-1156 -36 l64
-58 0 -59 c0 -51 -2 -57 -15 -46 -8 7 -23 31 -33 54 -19 42 -72 104 -107 124
-20 12 -20 12 -1 27 11 8 22 15 24 15 2 0 32 -26 68 -57z m-99 -177 l27 -24
-61 -30 -61 -31 -4 54 -3 55 37 0 c24 0 46 -8 65 -24z m163 -77 c0 -58 -8 -71
-28 -46 -12 15 6 120 19 111 5 -3 9 -32 9 -65z m-115 21 c3 -10 2 -27 -3 -37
-5 -10 -8 -23 -6 -28 4 -10 -106 -75 -126 -75 -5 0 -10 22 -10 48 l0 48 63 31
c75 38 74 38 82 13z m-1155 -540 c101 -250 263 -653 361 -895 98 -242 310
-766 471 -1164 161 -399 298 -726 304 -728 6 -2 119 264 269 634 141 351 304
753 361 893 123 304 234 578 500 1237 109 271 201 490 204 487 3 -3 33 -139
67 -302 l61 -297 -375 -865 c-206 -476 -495 -1142 -642 -1480 -147 -338 -305
-704 -352 -812 -46 -109 -87 -198 -90 -198 -7 0 5 -27 -400 905 -172 396 -474
1091 -671 1545 -198 454 -367 843 -375 866 -17 42 -9 89 99 597 5 27 13 45 17
40 4 -4 90 -213 191 -463z m1250 445 c21 -22 22 -27 9 -39 -14 -14 -230 -126
-243 -126 -3 0 -6 22 -6 48 l0 49 98 46 c53 26 102 47 108 47 6 0 21 -11 34
-25z m15 -97 c-2 -18 -4 -41 -4 -50 -1 -12 -39 -37 -121 -78 -66 -33 -122 -60
-125 -60 -3 0 -5 21 -5 48 l0 47 118 62 c64 34 122 62 129 62 7 1 10 -11 8
-31z m-5 -197 l0 -65 -55 54 c-30 30 -55 58 -55 62 0 4 17 16 38 27 34 18 39
18 55 4 13 -12 17 -32 17 -82z m-70 -16 l54 -55 -21 -21 c-29 -30 -63 -19
-124 38 -27 25 -49 48 -49 52 0 9 53 39 70 40 9 1 40 -24 70 -54z m-114 -43
c-6 -5 -66 27 -66 37 0 21 16 19 42 -6 15 -14 26 -28 24 -31z m727 -472 c87
-44 159 -149 173 -253 5 -36 1 -61 -17 -109 l-23 -63 -12 50 c-27 120 -62 145
-208 145 -108 0 -151 13 -184 55 -43 54 -17 141 54 183 52 31 147 27 217 -8z
m-898 -119 c139 -69 199 -194 128 -266 -33 -32 -72 -32 -151 0 -73 30 -132 31
-187 6 -46 -21 -72 -47 -75 -76 -4 -40 1 -39 19 1 23 50 68 74 139 74 68 0 82
-7 82 -40 0 -49 38 -154 78 -216 102 -156 272 -262 448 -280 40 -4 64 -3 64 3
0 6 -31 13 -68 16 -38 3 -83 12 -101 19 l-32 13 78 52 c131 86 241 210 299
335 24 53 29 76 29 144 l0 82 60 4 c110 8 161 -17 184 -91 24 -81 15 -131 -54
-304 -64 -158 -66 -163 -111 -190 -55 -33 -152 -67 -196 -68 -18 -1 -44 -5
-58 -9 -21 -7 -19 -8 17 -9 62 -1 141 18 206 50 31 16 57 26 57 22 0 -6 -153
-387 -197 -490 -3 -9 -18 -2 -45 22 -38 32 -120 60 -150 51 -7 -3 -25 -7 -40
-10 -69 -15 -115 -93 -84 -141 21 -32 29 -31 60 2 39 41 89 38 132 -10 97
-106 -38 -190 -184 -115 -45 23 -59 39 -129 153 -26 44 -74 62 -197 75 -115
12 -201 38 -242 73 -17 15 -72 140 -180 407 -173 428 -170 416 -120 525 44 96
125 166 241 208 78 28 197 18 280 -22z m-39 -1200 c38 -5 94 -13 125 -16 75
-8 109 -31 143 -98 49 -97 125 -148 221 -149 55 -1 88 12 117 46 23 26 20 18
-149 -399 -70 -170 -138 -340 -153 -377 -15 -38 -29 -70 -31 -72 -4 -4 -349
841 -440 1075 l-18 46 58 -23 c31 -13 88 -28 127 -33z m600 20 c23 -10 50 -32
62 -48 l21 -29 -26 -67 -27 -66 -15 47 c-29 86 -125 121 -182 66 -31 -30 -49
-25 -49 14 0 84 117 128 216 83z"/>
<path d="M3556 9587 c-13 -37 -34 -67 -72 -104 l-55 -52 31 -60 c39 -77 74
-187 96 -295 15 -79 34 -107 34 -52 0 49 54 235 91 315 21 46 39 89 39 95 0 7
-13 20 -30 29 -38 23 -74 71 -91 122 -19 59 -23 59 -43 2z m107 -122 l43 -36
-33 -65 c-30 -60 -51 -120 -84 -244 -6 -25 -13 -40 -15 -35 -1 6 -14 53 -29
105 -14 52 -42 128 -62 169 -33 70 -34 75 -17 84 33 18 82 76 96 112 l12 36
23 -45 c13 -25 42 -61 66 -81z"/>
<path d="M3434 8299 l-139 -140 -50 5 c-27 4 -56 2 -63 -2 -9 -6 7 -11 45 -15
115 -10 257 -89 314 -172 13 -19 28 -35 33 -35 5 0 34 27 64 60 41 46 73 70
136 100 45 22 103 43 129 46 26 4 47 11 47 15 0 5 -19 6 -42 3 l-43 -5 -140
140 c-77 78 -142 141 -145 141 -4 0 -69 -63 -146 -141z m279 -11 c70 -73 127
-133 127 -134 0 -2 -33 -18 -72 -38 -49 -23 -92 -54 -131 -94 l-58 -59 -59 59
c-40 40 -83 70 -135 95 l-77 36 134 134 c73 73 135 133 138 133 3 0 62 -59
133 -132z"/>
<path d="M3254 5662 c-61 -34 -124 -81 -124 -93 0 -5 38 16 84 46 46 30 89 55
95 55 6 0 11 5 11 10 0 15 -10 12 -66 -18z"/>
</g>
</svg>
